<svg width="20" height="23" viewBox="0 0 20 23" fill="none" xmlns="http://www.w3.org/2000/svg">
<path d="M10.1027 14.1627H4.172L3.19067 17H0.0546667L5.40933 2.088H8.88667L14.2413 17H11.084L10.1027 14.1627ZM9.292 11.7733L7.13733 5.544L4.98267 11.7733H9.292ZM17.8908 3.77333C17.3504 3.77333 16.9024 3.60978 16.5468 3.28267C16.2055 2.94133 16.0348 2.52178 16.0348 2.024C16.0348 1.52622 16.2055 1.11378 16.5468 0.786665C16.9024 0.445332 17.3504 0.274665 17.8908 0.274665C18.4171 0.274665 18.8508 0.445332 19.1922 0.786665C19.5335 1.11378 19.7042 1.52622 19.7042 2.024C19.7042 2.52178 19.5335 2.94133 19.1922 3.28267C18.8508 3.60978 18.4171 3.77333 17.8908 3.77333ZM19.3628 18.9413C19.3628 20.2498 19.0357 21.1884 18.3815 21.7573C17.7415 22.3404 16.8171 22.632 15.6082 22.632H14.2855V20.0933H15.1388C15.5939 20.0933 15.9139 20.0009 16.0988 19.816C16.2837 19.6453 16.3762 19.3609 16.3762 18.9627V5.18133H19.3628V18.9413Z" fill="#8D8D8D"/>
</svg>
