<svg width="23" height="15" viewBox="0 0 23 15" fill="none" xmlns="http://www.w3.org/2000/svg">
<path d="M9.78 10.9H3.7L2.58 14H0.66L5.7 0.14H7.8L12.82 14H10.9L9.78 10.9ZM9.26 9.42L6.74 2.38L4.22 9.42H9.26ZM22.1366 0.0599995V10.36C22.1366 11.5067 21.7832 12.4267 21.0766 13.12C20.3699 13.8 19.4366 14.14 18.2766 14.14C17.1032 14.14 16.1632 13.7933 15.4566 13.1C14.7499 12.3933 14.3966 11.4333 14.3966 10.22H16.2166C16.2299 10.9 16.4032 11.4533 16.7366 11.88C17.0832 12.3067 17.5966 12.52 18.2766 12.52C18.9566 12.52 19.4632 12.32 19.7966 11.92C20.1299 11.5067 20.2966 10.9867 20.2966 10.36V0.0599995H22.1366Z" fill="white"/>
</svg>
