<svg width="17" height="22" viewBox="0 0 17 22" fill="none" xmlns="http://www.w3.org/2000/svg">
<path d="M0.36 10.48C0.36 9.36 0.586667 8.38 1.04 7.54C1.49333 6.68667 2.11333 6.02667 2.9 5.56C3.7 5.09333 4.58667 4.86 5.56 4.86C6.52 4.86 7.35333 5.06667 8.06 5.48C8.76667 5.89333 9.29333 6.41333 9.64 7.04V5.04H11.48V16H9.64V13.96C9.28 14.6 8.74 15.1333 8.02 15.56C7.31333 15.9733 6.48667 16.18 5.54 16.18C4.56667 16.18 3.68667 15.94 2.9 15.46C2.11333 14.98 1.49333 14.3067 1.04 13.44C0.586667 12.5733 0.36 11.5867 0.36 10.48ZM9.64 10.5C9.64 9.67333 9.47333 8.95333 9.14 8.34C8.80667 7.72667 8.35333 7.26 7.78 6.94C7.22 6.60667 6.6 6.44 5.92 6.44C5.24 6.44 4.62 6.6 4.06 6.92C3.5 7.24 3.05333 7.70667 2.72 8.32C2.38667 8.93333 2.22 9.65333 2.22 10.48C2.22 11.32 2.38667 12.0533 2.72 12.68C3.05333 13.2933 3.5 13.7667 4.06 14.1C4.62 14.42 5.24 14.58 5.92 14.58C6.6 14.58 7.22 14.42 7.78 14.1C8.35333 13.7667 8.80667 13.2933 9.14 12.68C9.47333 12.0533 9.64 11.3267 9.64 10.5ZM15.6356 3.26C15.289 3.26 14.9956 3.14 14.7556 2.9C14.529 2.66 14.4156 2.36667 14.4156 2.02C14.4156 1.67333 14.529 1.38 14.7556 1.14C14.9956 0.899999 15.289 0.779999 15.6356 0.779999C15.9823 0.779999 16.269 0.899999 16.4956 1.14C16.7356 1.38 16.8556 1.67333 16.8556 2.02C16.8556 2.36667 16.7356 2.66 16.4956 2.9C16.269 3.14 15.9823 3.26 15.6356 3.26ZM16.5356 18.38C16.5356 19.3533 16.289 20.0667 15.7956 20.52C15.3023 20.9733 14.5823 21.2 13.6356 21.2H12.5756V19.66H13.3356C13.8423 19.66 14.1956 19.56 14.3956 19.36C14.609 19.16 14.7156 18.82 14.7156 18.34V5.04H16.5356V18.38Z" fill="white"/>
</svg>
