<svg width="24" height="24" viewBox="0 0 24 24" fill="none" xmlns="http://www.w3.org/2000/svg">
<g id="arrow_upward_alt">
<mask id="mask0_8830_65082" style="mask-type:alpha" maskUnits="userSpaceOnUse" x="0" y="0" width="24" height="24">
<rect id="Bounding box" width="24" height="24" fill="#D9D9D9"/>
</mask>
<g mask="url(#mask0_8830_65082)">
<path id="arrow_upward_alt_2" d="M13.3435 8.94231L9.24227 8.94231C8.98299 8.94231 8.75318 8.84213 8.55284 8.64179C8.35249 8.44144 8.25232 8.21163 8.25232 7.95236C8.25232 7.69309 8.35249 7.46328 8.55284 7.26293C8.75318 7.06258 8.98299 6.96241 9.24227 6.96241L15.7476 6.96241C16.0305 6.96241 16.2662 7.05669 16.4548 7.24525C16.6433 7.43381 16.7376 7.66952 16.7376 7.95236L16.7376 14.4577C16.7376 14.717 16.6374 14.9468 16.4371 15.1472C16.2367 15.3475 16.0069 15.4477 15.7476 15.4477C15.4884 15.4477 15.2586 15.3475 15.0582 15.1472C14.8579 14.9468 14.7577 14.717 14.7577 14.4577V10.3565L8.95942 16.1548C8.75908 16.3551 8.52337 16.4553 8.25232 16.4553C7.98126 16.4553 7.74556 16.3551 7.54521 16.1548C7.34486 15.9545 7.24469 15.7187 7.24469 15.4477C7.24469 15.1766 7.34486 14.9409 7.54521 14.7406L13.3435 8.94231Z" fill="#284093"/>
</g>
</g>
</svg>
