<svg width="19" height="18" viewBox="0 0 19 18" fill="none" xmlns="http://www.w3.org/2000/svg">
<path d="M14.8702 10.1668H1.83268C1.50213 10.1668 1.22504 10.055 1.00143 9.83138C0.777821 9.60777 0.666016 9.33068 0.666016 9.00013C0.666016 8.66957 0.777821 8.39249 1.00143 8.16888C1.22504 7.94527 1.50213 7.83346 1.83268 7.83346H14.8702L9.15352 2.11679C8.92018 1.88346 8.80838 1.61124 8.8181 1.30013C8.82782 0.989017 8.94935 0.716794 9.18268 0.483461C9.41602 0.269572 9.68824 0.157766 9.99935 0.148044C10.3105 0.138322 10.5827 0.250128 10.816 0.483461L18.516 8.18346C18.6327 8.30013 18.7153 8.42652 18.7639 8.56263C18.8125 8.69874 18.8368 8.84457 18.8368 9.00013C18.8368 9.15568 18.8125 9.30152 18.7639 9.43763C18.7153 9.57374 18.6327 9.70013 18.516 9.8168L10.816 17.5168C10.6021 17.7307 10.3348 17.8376 10.0139 17.8376C9.6931 17.8376 9.41602 17.7307 9.18268 17.5168C8.94935 17.2835 8.83268 17.0064 8.83268 16.6855C8.83268 16.3647 8.94935 16.0876 9.18268 15.8543L14.8702 10.1668Z" fill="#AEAEB2"/>
</svg>
