<svg width="25" height="24" viewBox="0 0 25 24" fill="none" xmlns="http://www.w3.org/2000/svg">
<path d="M15.6667 11.52C16.3987 11.676 16.9867 12.042 17.4307 12.618C17.8747 13.182 18.0967 13.83 18.0967 14.562C18.0967 15.618 17.7247 16.458 16.9807 17.082C16.2487 17.694 15.2227 18 13.9027 18H8.0167V5.364H13.7047C14.9887 5.364 15.9907 5.658 16.7107 6.246C17.4427 6.834 17.8087 7.632 17.8087 8.64C17.8087 9.384 17.6107 10.002 17.2147 10.494C16.8307 10.986 16.3147 11.328 15.6667 11.52ZM11.0947 10.476H13.1107C13.6147 10.476 13.9987 10.368 14.2627 10.152C14.5387 9.924 14.6767 9.594 14.6767 9.162C14.6767 8.73 14.5387 8.4 14.2627 8.172C13.9987 7.944 13.6147 7.83 13.1107 7.83H11.0947V10.476ZM13.3627 15.516C13.8787 15.516 14.2747 15.402 14.5507 15.174C14.8387 14.934 14.9827 14.592 14.9827 14.148C14.9827 13.704 14.8327 13.356 14.5327 13.104C14.2447 12.852 13.8427 12.726 13.3267 12.726H11.0947V15.516H13.3627Z" fill="#8D8D8D"/>
</svg>
