<svg xmlns="http://www.w3.org/2000/svg" xmlns:xlink="http://www.w3.org/1999/xlink" width="264.05" height="212.128" viewBox="0 0 264.05 212.128">
  <defs>
    <clipPath id="clip-path">
      <rect id="Rectangle_146397" data-name="Rectangle 146397" width="155.336" height="68.131" fill="none"/>
    </clipPath>
  </defs>
  <g id="GDD_Havells_Illustration_Socket_crabtree" transform="translate(-218.891 -248.046)">
    <g id="Layer_22" data-name="Layer 22" transform="translate(334.038 248.046)">
      <g id="Group_3074" data-name="Group 3074" opacity="0.15">
        <path id="Path_4372" data-name="Path 4372" d="M716.186,320.443c1.978,19.521-16.51,34.43-26.78,48.647-10.809,14.96-20.448,36.751-39.438,38.681s-32.807-17.494-46.395-29.979c-12.914-11.867-34.018-22.768-36-42.285s16.508-34.432,26.78-48.647c10.809-14.96,20.448-36.752,39.439-38.681s32.809,17.494,46.4,29.979C693.115,290.025,714.214,300.918,716.186,320.443Z" transform="translate(-567.431 -248.046)" fill="#fff"/>
      </g>
    </g>
    <g id="Layer_21" data-name="Layer 21" transform="translate(276.287 374.751)">
      <path id="Path_4373" data-name="Path 4373" d="M448.865,870.582c16.993,4.337,39.886,4.135,39.886,13.126,0,17.571-55.193,31.621-106.633,25.665-47.828-5.539-97.539-.3-97.539-17.871,0-7.687,28.209-13.412,40.663-18.913,0,0,10.987-5.039,35.271-3.769s38.285,4.653,54.17,4.231S437.577,867.7,448.865,870.582Z" transform="translate(-284.58 -868.615)" fill="#1849c4"/>
    </g>
    <g id="Layer_10" data-name="Layer 10" transform="translate(274.16 385.371)">
      <path id="Path_4403" data-name="Path 4403" d="M308.1,950.886c-3.53-.649-7.011-1.464-10.444-2.4q-2.577-.7-5.1-1.5c-1.686-.535-3.355-1.115-4.988-1.75a50.358,50.358,0,0,1-9.239-4.61,17.96,17.96,0,0,1-1.972-1.517,8.357,8.357,0,0,1-1.562-1.807,3.929,3.929,0,0,1-.629-2.16,3.88,3.88,0,0,1,.784-2.142l.174-.245.2-.229a4.787,4.787,0,0,1,.419-.447c.151-.141.3-.286.455-.423l.488-.394c.159-.137.343-.247.515-.372a6.3,6.3,0,0,1,.529-.357c.368-.221.729-.451,1.115-.649l.572-.308.586-.286c.2-.094.39-.2.59-.282l.6-.265c.2-.086.408-.18.6-.261l.613-.243,1.225-.488,1.225-.486,1.237-.457c.817-.306,1.644-.613,2.485-.894s1.666-.58,2.522-.817l1.274-.39q.635-.2,1.284-.368a80.079,80.079,0,0,1,10.546-2.183l1.343-.178,1.348-.153c.9-.1,1.8-.184,2.7-.27l2.7-.243,1.346-.129,1.343-.145.014.065-1.329.223-1.337.2c-.89.127-1.782.249-2.675.361-1.784.235-3.561.48-5.323.778a93.744,93.744,0,0,0-10.382,2.336c-3.391.96-6.715,2.078-9.972,3.318a43.821,43.821,0,0,0-4.753,2.013,18.187,18.187,0,0,0-2.138,1.272l-.5.343c-.157.125-.3.257-.453.386a5.277,5.277,0,0,0-.408.408l-.2.2-.172.224a3.661,3.661,0,0,0-.817,1.97,2.373,2.373,0,0,0,0,.525,2.9,2.9,0,0,0,.094.523,1.278,1.278,0,0,0,.082.255l.1.255c.069.167.167.329.249.494a7.642,7.642,0,0,0,1.5,1.772,16.238,16.238,0,0,0,1.954,1.484c.7.449,1.429.868,2.189,1.264s1.533.758,2.326,1.1c1.574.7,3.2,1.321,4.843,1.915,6.566,2.381,13.386,4.308,20.271,6.078Z" transform="translate(-274.16 -920.956)" fill="#3968ea"/>
      <path id="Path_4404" data-name="Path 4404" d="M711.888,1053.391c-.535.08-1.068.157-1.6.233-1.87.245-3.749.453-5.629.6s-3.767.247-5.652.3c-1.887,0-3.773,0-5.652-.139-.941-.045-1.878-.151-2.814-.243l-.351-.037-.349-.049-.7-.1-.7-.1-.349-.049-.347-.065-1.384-.255c-.233-.039-.459-.1-.688-.149l-.684-.163c-.921-.19-1.809-.492-2.711-.741l-2.728-.792-.684-.2c-.227-.065-.453-.135-.684-.188l-1.38-.341-1.38-.339c-.461-.114-.921-.231-1.384-.323l-2.785-.572c-.233-.045-.464-.1-.7-.139l-.7-.12-1.4-.241-1.4-.241c-.466-.084-.937-.141-1.4-.2l-2.811-.408-2.818-.339a168.426,168.426,0,0,0-22.663-1.007v.076c3.777.022,7.555.192,11.322.433s7.524.613,11.27,1.062l2.807.359,2.8.423c.466.073.933.133,1.4.22l1.39.249,1.393.251.7.125c.231.043.461.1.692.145,3.7.731,7.35,1.654,10.966,2.715l1.378.378c.231.059.457.135.69.18l.7.151.7.151c.231.051.464.1.7.139l1.407.235.351.057.353.045.706.086.708.086.353.043.353.029c.947.078,1.891.165,2.84.192a85.51,85.51,0,0,0,11.346-.314c2.73-.245,5.451-.578,8.167-.982C712.521,1053.463,712.2,1053.426,711.888,1053.391Z" transform="translate(-563.204 -1021.144)" fill="#3968ea"/>
      <path id="Path_4405" data-name="Path 4405" d="M1138.741,923.211a3.955,3.955,0,0,0-2.1-1.858,8.431,8.431,0,0,0-2.881-.545c-.484-.016-.974,0-1.429,0h-1.4c-.47,0-.937-.035-1.407-.051l-.7-.027-.7-.055-.559-.045c-.031.163-.063.325-.1.486l.613.053.708.063.713.037c.476.02.951.051,1.429.065h1.429c.484,0,.937,0,1.4.012a7.71,7.71,0,0,1,2.612.515,3.3,3.3,0,0,1,1.748,1.576,4.713,4.713,0,0,1,.408,2.258,11.629,11.629,0,0,1-.365,2.358c-.2.784-.443,1.56-.7,2.342-.127.392-.257.782-.378,1.182-.059.2-.118.408-.167.613a3.576,3.576,0,0,0-.106.659,1.493,1.493,0,0,0,0,.19.724.724,0,0,0,.014.106v.053a.223.223,0,0,1,0,.029.8.8,0,0,0,.012.1v.123a2.536,2.536,0,0,1-.11.533,7.22,7.22,0,0,1-.459,1.094,14.894,14.894,0,0,1-1.337,2.087,20.977,20.977,0,0,1-1.66,1.925,22.9,22.9,0,0,1-1.9,1.762,26.2,26.2,0,0,1-9.433,5.008c-.219.072-.441.127-.664.184l-.67.176c-.453.1-.9.2-1.36.294q-1.384.278-2.758.586c-1.838.408-3.659.827-5.484,1.243-2.934.664-5.866,1.331-8.81,1.956l1.652.063q3.663-.735,7.305-1.531c1.838-.408,3.663-.8,5.5-1.186.917-.2,1.838-.384,2.75-.564.457-.09.927-.2,1.391-.292l.69-.176c.229-.059.459-.114.684-.186a27.045,27.045,0,0,0,9.747-5.1,22.822,22.822,0,0,0,3.675-3.8,15.457,15.457,0,0,0,1.4-2.181,8.031,8.031,0,0,0,.5-1.2,3.119,3.119,0,0,0,.133-.668V933.3a1.4,1.4,0,0,0-.029-.2v-.067a.252.252,0,0,1,0-.047.687.687,0,0,1,0-.114,5.33,5.33,0,0,1,.241-1.125c.114-.388.241-.778.366-1.172.251-.784.5-1.576.694-2.385a12.132,12.132,0,0,0,.367-2.475A5.182,5.182,0,0,0,1138.741,923.211Z" transform="translate(-933.119 -920.63)" fill="#3968ea"/>
    </g>
    <g id="Group_76217" data-name="Group 76217" transform="translate(105.94 215.148)">
      <g id="Crabtree_IRBlaster_Illustration_TV_v4-12" transform="translate(259.417 66.141)" opacity="0.913">
        <rect id="Rectangle_146395" data-name="Rectangle 146395" width="74.075" height="43.474" rx="1" transform="translate(0 0)" fill="#f9d482" stroke="#fff" stroke-width="1"/>
      </g>
      <g id="Group_76217-2" data-name="Group 76217" transform="translate(246.747 97.568)">
        <g id="Group_76125" data-name="Group 76125" transform="translate(0 0)">
          <path id="Path_8562" data-name="Path 8562" d="M434.472,314.715a21.66,21.66,0,0,1,1.859,9.437c-.071,5.7-6.649,2.216-6.649,2.216s-.214-7.507,0-7.721,4.79-3.932,4.79-3.932" transform="translate(-384.54 -281.797)" fill="#f7b686"/>
          <path id="Path_8563" data-name="Path 8563" d="M260.766,150.337,261.8,147l.3-.972,1.77-5.714L264.1,146l.139,3.412.044,1.08c.03.733.477.887,1.02,1.524.22.258,1.63,1.823.03,2.53-1.993.881-5.72-.453-7.137-2.2.011,0,2.23-.927,2.564-2.006" transform="translate(-231.127 -125.683)" fill="#f7b686"/>
          <path id="Path_8564" data-name="Path 8564" d="M271.21,107.856c-.44-3.353-3.051-5.775-5.832-5.41s-4.678,3.379-4.238,6.732,3.051,5.775,5.832,5.41,4.678-3.379,4.238-6.732" transform="translate(-233.7 -91.754)" fill="#f7b686"/>
          <path id="Path_8565" data-name="Path 8565" d="M7.736,356.039c.824-9.07,2.714-22.037,7.04-32.307a31.067,31.067,0,0,1,2.2-4.572c.629-1.046-.5-3.344-2.274-4.439-1.667-1.028-4.264-.86-4.675-.351a27.44,27.44,0,0,0-2.6,5.158C3.393,328.678.978,340.5,0,355.739Z" transform="translate(0 -281.126)" fill="#f7b686"/>
          <path id="Path_8566" data-name="Path 8566" d="M122.319,249.473s1.857-7.361,15.56-7.435c19.76-.108,17.93,18.049,19.759,45.642,0,0-19.464-2.753-37.9,1.2,0,0-1.71-28.164,2.581-39.411" transform="translate(-106.881 -216.741)" fill="#e28569"/>
          <path id="Path_8567" data-name="Path 8567" d="M69.656,251.94s3.126,6.381,10.116,5.683c6.7-.668,21.5-2.749,26.707-3.606s7.449-3.239,7.449-3.239-6.361-7.17-15.778-8.7c-.885-.145-1.8-.251-2.754-.313-1.6-.1-3.187.063-4.76.095-15.764.323-20.98,10.081-20.98,10.081" transform="translate(-62.352 -216.466)" fill="#e28569"/>
          <path id="Path_8568" data-name="Path 8568" d="M246.764,89.262a4.175,4.175,0,0,1,3.164,2.091c1.019,1.93.975,5.518-1.9,5.172s-1.548,5.5-4.49,5.821-6.94-5.768-5.193-10.218,8.418-2.866,8.418-2.866" transform="translate(-212.971 -79.74)" fill="#2f1a31"/>
          <path id="Path_8569" data-name="Path 8569" d="M159.839,87.446s-5.354-1.388-6.534,3.53c-.445,1.855.536,6.2-3.485,7.32-3.781,1.053-4.632,3.1-2.717,5.671,1.233,1.657-5.265,1.888-1.5,8.908,3.36,6.267,23.621,5.391,25.787,1.173s1.285-9.88-2.492-10.552-1.436-3.925-4.659-4.354c-1.857-.247-2.246-2.9-.8-4.4s-3.6-7.3-3.6-7.3" transform="translate(-129.271 -78.198)" fill="#2f1a31"/>
          <path id="Path_8572" data-name="Path 8572" d="M312.011,160.778a.994.994,0,1,0,.557,1.373,1.051,1.051,0,0,0-.557-1.373" transform="translate(-277.935 -143.891)" fill="#f7b686"/>
          <path id="Path_8573" data-name="Path 8573" d="M314.795,178.034a1.757,1.757,0,0,1-.762-.181l.05-.095a1.547,1.547,0,0,0,1.242.055l.045.1a1.375,1.375,0,0,1-.576.122" transform="translate(-281.103 -159.202)" fill="#2f1a31"/>
          <path id="Path_8574" data-name="Path 8574" d="M614.9,91.168l-1.154-3.725-.336-1.085-1.976-6.377-.26,6.343-.156,3.807-.049,1.205c-.034.818-.532.99-1.139,1.7-.246.288-1.819,2.034-.034,2.823,2.224.983,6.383-.505,7.964-2.455-.012,0-2.488-1.035-2.861-2.238" transform="translate(-545.099 -71.679)" fill="#f7b686"/>
          <path id="Path_8575" data-name="Path 8575" d="M581.278,43.762c.491-3.742,3.405-6.445,6.508-6.037s5.221,3.771,4.729,7.513-3.4,6.445-6.508,6.037-5.221-3.771-4.729-7.513" transform="translate(-520.262 -33.816)" fill="#f7b686"/>
          <path id="Path_8576" data-name="Path 8576" d="M563.634,9.1c-3.24.122-4.812-1.748-4.849-3.479-.048-2.22,1.35-4.186,2.977-3.361s.929-1.2,2.494-1.413c2.924-.4,3.473,1.678,5.866,1.78,3.157.133,6.756,5.393,4.111,9.233,0,0-8.04-2.856-10.6-2.76" transform="translate(-500.189 -0.796)" fill="#2f1a31"/>
          <path id="Path_8577" data-name="Path 8577" d="M577.523,45.255s3.462,3.333,3.005,5.208-.341,2.61,1.681,3.61.237,2.625,2.931,2.742,6-3.067,5.994-8.3a7.855,7.855,0,0,0-1.676-4.828Z" transform="translate(-516.964 -39.189)" fill="#2f1a31"/>
          <path id="Path_8578" data-name="Path 8578" d="M809.02,320.712c-.919-10.121-3.028-24.592-7.855-36.052a34.675,34.675,0,0,0-2.457-5.1c-.7-1.167.555-3.731,2.538-4.954,1.861-1.147,4.758-.959,5.217-.391a30.6,30.6,0,0,1,2.906,5.756c4.5,10.212,7.193,23.4,8.285,40.409Z" transform="translate(-714.778 -245.139)" fill="#f7b686"/>
          <path id="Path_8579" data-name="Path 8579" d="M147.723,275.776c-1.457-1.435,1.788-5.361,1.788-5.361.557-.391,9.838,8.405,20.472,5.034,3.787-1.2,9.024-7.83,9.4-8.814.05-.131,8.386,2.883,8.386,2.883-.684,1.783-1.474,7.424-5.551,11.176-8.433,7.762-26.7,5.566-34.5-4.917" transform="translate(-131.896 -238.755)" fill="#f7b686"/>
          <path id="Path_8580" data-name="Path 8580" d="M480.333,201.795s-2.072-8.214-17.363-8.3c-22.05-.12-20.009,20.141-22.049,50.933,0,0,21.72-3.072,42.292,1.344,0,0,1.908-31.429-2.88-43.979" transform="translate(-394.686 -173.29)" fill="#84a1f0"/>
          <path id="Path_8581" data-name="Path 8581" d="M485.978,200.037l-9.987,5.526s-21.867,1.986-27.672,1.029-7.4-5.219-7.4-5.219a31.994,31.994,0,0,1,16.691-8.1c.987-.162,2.011-.28,3.073-.35a30.21,30.21,0,0,1,5.312.106c13.319,1.5,19.98,7.013,19.98,7.013" transform="translate(-394.687 -172.71)" fill="#84a1f0"/>
          <path id="Path_8582" data-name="Path 8582" d="M796.578,257.778c.847,1.2-.4,3.564-2.786,5.286s-5.005,2.146-5.852.948.4-3.564,2.786-5.286,5.005-2.146,5.852-.948" transform="translate(-705.079 -230.221)" fill="#84a1f0"/>
          <path id="Path_8583" data-name="Path 8583" d="M587.412,102.766a1.109,1.109,0,1,1,.19,1.642,1.173,1.173,0,0,1-.19-1.642" transform="translate(-525.595 -91.575)" fill="#f7b686"/>
          <path id="Path_8588" data-name="Path 8588" d="M595.638,117.946a.751.751,0,0,1-.228-.031.04.04,0,0,1,.026-.076c.03.01.731.234,1.227-.756a.04.04,0,1,1,.072.036,1.37,1.37,0,0,1-.859.8.961.961,0,0,1-.238.03" transform="translate(-532.951 -104.868)" fill="#2f1a31"/>
          <path id="Path_8589" data-name="Path 8589" d="M94.347,288.078l-.065.076a.638.638,0,0,1-.9.068l-2.353-1.576a9.475,9.475,0,0,1-1.376-2.21.58.58,0,0,1,.036-.358.638.638,0,0,1,.9-.068l3.69,3.17a.638.638,0,0,1,.068.9" transform="translate(-80.242 -254.175)" fill="#f7b686"/>
          <path id="Path_8590" data-name="Path 8590" d="M105.354,276.322l-.1.122c-.217.253-.6.282.044,1.344l-3.587-3.082c-1.152-1.5-1.181-1.882-.964-2.135l.1-.122a.608.608,0,0,1,.855-.065l4.184,2.722c.253.217-.315.962-.533,1.215" transform="translate(-90.084 -243.775)" fill="#f7b686"/>
          <path id="Path_8591" data-name="Path 8591" d="M155.145,278.2l-.24.046a.833.833,0,0,1-.971-.66l-.835-4.369a.833.833,0,0,1,.659-.971l.24-.046a.833.833,0,0,1,.971.659l.835,4.369a.833.833,0,0,1-.659.971" transform="translate(-137.031 -243.726)" fill="#f7b686"/>
          <path id="Path_8592" data-name="Path 8592" d="M127.965,273.6l-.151.175a.573.573,0,0,1-.805.061l-2.146-1.606a1.082,1.082,0,0,1-.173-1.139l.151-.175a.573.573,0,0,1,.805-.061l2.258,1.94a.573.573,0,0,1,.061.805" transform="translate(-111.526 -242.412)" fill="#f7b686"/>
          <path id="Path_8593" data-name="Path 8593" d="M102.91,288.953a8.168,8.168,0,0,1-5.164-3.163c-1.989-2.853,3.029-4.686,4.075-4.412s3.512,2.849,3.512,2.849Z" transform="translate(-87.083 -251.932)" fill="#f7b686"/>
          <path id="Path_8594" data-name="Path 8594" d="M86.512,305.777l-.075.087a.63.63,0,0,1-.885.067L82.369,303.2a.63.63,0,0,1-.067-.885l.075-.087c.225-.262,1.687.271,1.949.5l2.12,2.172a.63.63,0,0,1,.067.885" transform="translate(-73.536 -270.552)" fill="#f7b686"/>
          <path id="Path_8595" data-name="Path 8595" d="M137.466,285.555a.715.715,0,0,1-.452-.184.451.451,0,1,1,.733.068.36.36,0,0,1-.281.116m-.378-.269c.2.172.463.208.574.08s.035-.383-.165-.555-.463-.208-.574-.079-.035.383.165.555" transform="translate(-122.419 -254.787)" fill="#e08b65"/>
          <path id="Path_8596" data-name="Path 8596" d="M126.323,296.87a.715.715,0,0,1-.452-.184h0a.451.451,0,1,1,.733.068.36.36,0,0,1-.281.116m-.378-.269c.2.172.463.208.574.08s.035-.383-.165-.555-.463-.209-.574-.08-.035.383.165.555Z" transform="translate(-112.444 -264.916)" fill="#e08b65"/>
          <path id="Path_8597" data-name="Path 8597" d="M117.219,310.1a.569.569,0,0,1-.06,0,.746.746,0,0,1-.392-.182.536.536,0,0,1-.177-.714.377.377,0,0,1,.34-.114.791.791,0,0,1,.631.542.377.377,0,0,1-.061.353.358.358,0,0,1-.28.117m-.349-.9a.249.249,0,0,0-.2.078c-.111.129-.035.383.165.555a.632.632,0,0,0,.332.155.239.239,0,0,0,.28-.326.68.68,0,0,0-.535-.46l-.047,0" transform="translate(-104.294 -276.754)" fill="#e08b65"/>
          <path id="Path_8598" data-name="Path 8598" d="M110.211,323.806a.527.527,0,0,1-.06,0,.745.745,0,0,1-.392-.181.537.537,0,0,1-.177-.714.376.376,0,0,1,.34-.114.744.744,0,0,1,.393.181.537.537,0,0,1,.177.714.358.358,0,0,1-.28.117m-.349-.9a.249.249,0,0,0-.2.078c-.111.129-.035.383.165.555a.633.633,0,0,0,.332.155.268.268,0,0,0,.242-.076c.111-.129.035-.383-.165-.555a.632.632,0,0,0-.332-.155l-.047,0" transform="translate(-98.021 -289.025)" fill="#e08b65"/>
          <path id="Path_8600" data-name="Path 8600" d="M934.435,361.768c-.012-5.7.415-13.893,2.516-20.545a19.435,19.435,0,0,1,1.107-2.978c.332-.688-.5-2.055-1.675-2.635a3.219,3.219,0,0,0-2.934.052,17.172,17.172,0,0,0-1.324,3.366c-1.982,5.937-2.8,13.445-2.529,23Z" transform="translate(-832.071 -300.218)" fill="#f7b686"/>
        </g>
      </g>
      <g id="GDD_Havells_Illustration_Socket_crabtree-2" data-name="GDD_Havells_Illustration_Socket_crabtree" transform="translate(112.95 99.107)">
        <g id="Layer_10-2" data-name="Layer 10" transform="translate(0 104.961)">
          <path id="Path_4403-2" data-name="Path 4403" d="M315.376,957.288c-4.287-.789-8.515-1.778-12.683-2.911q-3.129-.848-6.2-1.825c-2.048-.65-4.074-1.354-6.058-2.125a61.155,61.155,0,0,1-11.22-5.6,21.815,21.815,0,0,1-2.4-1.842,10.151,10.151,0,0,1-1.9-2.194,4.772,4.772,0,0,1-.764-2.623,4.712,4.712,0,0,1,.952-2.6l.211-.3.248-.278a5.821,5.821,0,0,1,.508-.543c.183-.171.36-.347.553-.513l.593-.479c.193-.166.417-.3.625-.451a7.646,7.646,0,0,1,.642-.434c.446-.268.885-.548,1.354-.789l.694-.375.712-.347c.248-.114.474-.248.717-.342l.729-.322c.248-.1.5-.218.732-.318l.744-.295,1.488-.593,1.488-.59,1.5-.555c.992-.372,2-.744,3.018-1.086s2.023-.7,3.062-.992l1.547-.474q.771-.248,1.56-.446a97.243,97.243,0,0,1,12.807-2.651l1.632-.216,1.637-.186c1.091-.119,2.182-.223,3.273-.327l3.273-.3,1.634-.156,1.632-.176.017.079-1.614.27-1.624.248c-1.081.154-2.165.3-3.248.439-2.167.285-4.325.583-6.464.945a113.819,113.819,0,0,0-12.609,2.837c-4.119,1.165-8.156,2.524-12.111,4.029a53.238,53.238,0,0,0-5.773,2.445,22.092,22.092,0,0,0-2.6,1.545l-.608.417c-.191.151-.365.312-.55.469a6.416,6.416,0,0,0-.5.5l-.248.248-.208.273a4.446,4.446,0,0,0-.992,2.393,2.882,2.882,0,0,0,0,.637,3.515,3.515,0,0,0,.114.635,1.553,1.553,0,0,0,.1.31l.117.31c.084.2.2.4.3.6a9.282,9.282,0,0,0,1.823,2.152,19.734,19.734,0,0,0,2.373,1.8c.853.546,1.736,1.054,2.658,1.535s1.862.92,2.824,1.339c1.912.85,3.888,1.6,5.882,2.326,7.975,2.891,16.257,5.232,24.618,7.382Z" transform="translate(-274.16 -920.938)" fill="#3968ea"/>
          <path id="Path_4404-2" data-name="Path 4404" d="M727.872,1054.776c-.65.1-1.3.191-1.947.283-2.271.3-4.553.551-6.836.727s-4.575.3-6.864.362c-2.291,0-4.582,0-6.864-.169-1.143-.055-2.281-.183-3.417-.3l-.427-.045-.424-.059-.848-.119-.848-.119-.424-.059-.422-.079-1.681-.31c-.283-.047-.558-.116-.836-.181l-.831-.2c-1.118-.23-2.2-.6-3.293-.9l-3.313-.962-.831-.248c-.275-.079-.55-.163-.831-.228l-1.676-.414-1.676-.412c-.56-.139-1.118-.28-1.681-.392l-3.382-.694c-.283-.055-.563-.116-.846-.169l-.851-.146-1.7-.293-1.7-.293c-.565-.1-1.138-.171-1.706-.248l-3.414-.5-3.422-.412a204.565,204.565,0,0,0-27.524-1.222v.092c4.587.027,9.175.233,13.75.526s9.137.744,13.688,1.29l3.41.436,3.4.513c.565.089,1.133.161,1.7.268l1.689.3,1.691.3.846.151c.28.052.56.116.841.176,4.491.888,8.927,2.009,13.318,3.3l1.674.459c.28.072.556.164.838.218l.848.183.848.183c.28.062.563.126.848.169l1.709.285.427.069.429.055.858.1.86.1.429.052.429.035c1.151.094,2.3.2,3.449.233a103.849,103.849,0,0,0,13.779-.382c3.315-.3,6.621-.7,9.919-1.193C728.641,1054.863,728.257,1054.819,727.872,1054.776Z" transform="translate(-547.299 -1015.613)" fill="#3968ea"/>
          <path id="Path_4405-2" data-name="Path 4405" d="M1146.583,923.764a4.8,4.8,0,0,0-2.554-2.257,10.241,10.241,0,0,0-3.5-.662c-.588-.02-1.183,0-1.736,0h-1.706c-.571,0-1.138-.042-1.709-.062l-.853-.032-.851-.067-.679-.055c-.037.2-.077.394-.122.59l.744.064.86.077.865.045c.578.025,1.155.062,1.736.079h1.736c.588,0,1.138,0,1.7.015a9.363,9.363,0,0,1,3.172.625,4,4,0,0,1,2.122,1.914,5.724,5.724,0,0,1,.5,2.743,14.133,14.133,0,0,1-.444,2.864c-.248.952-.538,1.894-.848,2.844-.154.476-.312.95-.459,1.436-.072.248-.144.5-.2.744a4.345,4.345,0,0,0-.129.8,1.773,1.773,0,0,0,0,.231.865.865,0,0,0,.017.129v.065a.274.274,0,0,1,0,.035.971.971,0,0,0,.015.119v.149a3.081,3.081,0,0,1-.134.647,8.759,8.759,0,0,1-.558,1.329,18.1,18.1,0,0,1-1.624,2.534,25.478,25.478,0,0,1-2.016,2.338,27.785,27.785,0,0,1-2.3,2.14,31.821,31.821,0,0,1-11.456,6.083c-.265.087-.536.154-.806.223l-.813.213c-.55.119-1.091.248-1.651.357q-1.681.337-3.35.712c-2.232.5-4.443,1-6.66,1.51-3.563.806-7.124,1.617-10.7,2.376l2.006.077q4.448-.893,8.872-1.86c2.232-.5,4.448-.972,6.675-1.441,1.113-.248,2.232-.466,3.34-.684.556-.109,1.126-.248,1.689-.355l.838-.213c.278-.072.558-.139.831-.226a32.847,32.847,0,0,0,11.838-6.2,27.716,27.716,0,0,0,4.463-4.61,18.773,18.773,0,0,0,1.7-2.648,9.758,9.758,0,0,0,.61-1.453,3.787,3.787,0,0,0,.161-.811v-.221a1.7,1.7,0,0,0-.035-.248v-.082a.319.319,0,0,1,0-.057.85.85,0,0,1,0-.139,6.471,6.471,0,0,1,.292-1.366c.139-.471.293-.945.444-1.423.3-.952.608-1.914.843-2.9a14.731,14.731,0,0,0,.446-3.005A6.293,6.293,0,0,0,1146.583,923.764Z" transform="translate(-896.86 -920.63)" fill="#3968ea"/>
        </g>
        <g id="Layer_4" data-name="Layer 4" transform="translate(72.05 45.451)">
          <path id="Path_4387" data-name="Path 4387" d="M480.411,823.64c-.3,3.2-.362,6.023-.352,7.972h0c-3.154-.057-4.682-3.174-4.868-6.152s-1.294-2.252-3.886-3.9-1.542-4.937-1.542-4.937a1.691,1.691,0,0,1,1.453.037,31.209,31.209,0,0,1,4.82,3.008h0A33.53,33.53,0,0,1,480.411,823.64Z" transform="translate(-468.793 -806.344)" fill="#f9d482"/>
          <path id="Path_4388" data-name="Path 4388" d="M495.645,802.88c-.124.93-.223,1.842-.307,2.728a33.539,33.539,0,0,0-4.374-3.967h0a34.7,34.7,0,0,1-1.56-8.123,1.029,1.029,0,0,1,.632-1.017,4.623,4.623,0,0,0,1.614,3.338c1.731,1.689.248,2.48.947,4.349A5.384,5.384,0,0,0,495.645,802.88Z" transform="translate(-483.719 -788.31)" fill="#ff9945"/>
          <path id="Path_4389" data-name="Path 4389" d="M559.875,793.312a1.124,1.124,0,0,1,.382.88,22.172,22.172,0,0,1-1.974,8.342,33.607,33.607,0,0,0-4.044,3.719c-.045-.446-.1-.885-.149-1.319,1.79-2.028.806-3.935.769-5.753s3.11-.471,3.268-3.357S559.875,793.312,559.875,793.312Z" transform="translate(-532.367 -788.908)" fill="#f9d482"/>
          <path id="Path_4390" data-name="Path 4390" d="M498.373,797.927h0c-.327,1.565-.585,3.124-.784,4.632a5.467,5.467,0,0,1-3.047-2.7c-.7-1.852.786-2.663-.947-4.349a4.561,4.561,0,0,1-1.6-3.338,1.128,1.128,0,0,1,1.185.151A25.431,25.431,0,0,1,498.373,797.927Z" transform="translate(-485.666 -787.989)" fill="#f9d482"/>
          <path id="Path_4391" data-name="Path 4391" d="M556.29,834.2h-1.24a75.053,75.053,0,0,0-.34-10.724,33.6,33.6,0,0,1,4.044-3.72,31.151,31.151,0,0,1,5.418-3.409,1.587,1.587,0,0,1,1.8.275s-2.928.965-3.608,3.551-3.764,1.8-4.32,5.16.439,4.245-.922,5.125S556.29,834.2,556.29,834.2Z" transform="translate(-532.834 -806.117)" fill="#ffb743"/>
          <path id="Path_4392" data-name="Path 4392" d="M477.826,834.867H476.2a3.9,3.9,0,0,0-1.031.134c-.719-.672-7.687-7.382-8.679-16.311a1.574,1.574,0,0,1,.967-1.619s-1.049,3.29,1.542,4.937,3.7.912,3.886,3.9,1.713,6.095,4.868,6.152h0C477.772,833.813,477.826,834.867,477.826,834.867Z" transform="translate(-466.486 -806.787)" fill="#ffb743"/>
          <path id="Path_4393" data-name="Path 4393" d="M522.2,803.935a7.748,7.748,0,0,0-.585-6.021c-1.736-2.742,0-5.311.617-7.6s2.775-5.289,1.294-8.758a4.844,4.844,0,0,1,1.064-5.614,1.086,1.086,0,0,1,.635.605,53.885,53.885,0,0,1,2.852,9.249c.4,1.833.761,3.868,1.036,6.1.052.434.1.873.149,1.319a75.037,75.037,0,0,1,.34,10.725Z" transform="translate(-507.38 -775.856)" fill="#f9d482"/>
          <path id="Path_4394" data-name="Path 4394" d="M560.78,835.5s-.523-2.869.836-3.752.369-1.763.922-5.125,3.64-2.571,4.32-5.16,3.608-3.551,3.608-3.551a1.428,1.428,0,0,1,.446,1.175c-.841,9.152-7.63,15.957-8.168,16.477a4.078,4.078,0,0,0-.732-.064Z" transform="translate(-537.324 -807.419)" fill="#f9d482"/>
          <path id="Path_4395" data-name="Path 4395" d="M556.769,792.386s-1.582-.367-1.736,2.522-3.308,1.54-3.268,3.357,1.022,3.719-.769,5.753c-.275-2.232-.637-4.265-1.036-6.1a25.345,25.345,0,0,1,5.175-5.574,1.26,1.26,0,0,1,1.634.04Z" transform="translate(-529.261 -787.982)" fill="#ff9945"/>
          <path id="Path_4396" data-name="Path 4396" d="M512.287,792.9c.084-.883.183-1.8.307-2.728.2-1.508.456-3.067.784-4.632a40.534,40.534,0,0,1,3.043-9.3,1.158,1.158,0,0,1,1.458-.55,4.846,4.846,0,0,0-1.064,5.614c1.48,3.467-.677,6.465-1.294,8.758s-2.346,4.86-.617,7.6a7.748,7.748,0,0,1,.585,6.021h-3.471s-.065-1.054-.074-2.812A79.609,79.609,0,0,1,512.287,792.9Z" transform="translate(-500.668 -775.601)" fill="#ffb743"/>
          <path id="Path_4397" data-name="Path 4397" d="M498.211,888.84h14.977a4.083,4.083,0,0,1,.732.065c.992.181,1.718.722,1.736,1.364a13.358,13.358,0,0,1-3.023,9.093,4.129,4.129,0,0,1-2.993,1.066H502.3a4.3,4.3,0,0,1-2.847-.917,12.444,12.444,0,0,1-3.7-9.229c0-.58.588-1.079,1.431-1.307A3.908,3.908,0,0,1,498.211,888.84Z" transform="translate(-488.492 -860.76)" fill="#f72f2f"/>
        </g>
      </g>
      <g id="Group_76218" data-name="Group 76218" transform="translate(218.786 131.9)">
        <g id="Group_76114" data-name="Group 76114">
          <g id="Group_76113" data-name="Group 76113" clip-path="url(#clip-path)">
            <path id="Path_8533" data-name="Path 8533" d="M10.21,166.967S3.651,165,.584,168.2s6.863,19.533,8.324,26.1,4.83,9.739,12.412,9.739-11.11-37.074-11.11-37.074" transform="translate(0 -146.985)" fill="#96b4e0"/>
            <path id="Path_8534" data-name="Path 8534" d="M1256.969,166.967s6.559-1.966,9.626,1.237-6.864,19.533-8.324,26.1-4.83,9.739-12.413,9.739,11.11-37.074,11.11-37.074" transform="translate(-1111.843 -146.985)" fill="#96b4e0"/>
            <path id="Path_8535" data-name="Path 8535" d="M1201.2,472.431h0c.516-.007.886-.856.757-1.637l-2.177-13.172h-2.8l3.468,13.966c.129.516.425.849.751.844" transform="translate(-1069.777 -404.301)" fill="#2f1a31"/>
            <path id="Path_8536" data-name="Path 8536" d="M1199.845,456.739a2.609,2.609,0,0,0-2.465,1.216l-.4-1.607,2.784-.168Z" transform="translate(-1069.777 -403.028)" fill="#2f1a31"/>
            <path id="Path_8537" data-name="Path 8537" d="M234.409,472.431h0c-.516-.007-.886-.856-.757-1.637l2.177-13.172h2.8l-3.468,13.966c-.128.516-.424.849-.751.844" transform="translate(-208.799 -404.301)" fill="#2f1a31"/>
            <path id="Path_8538" data-name="Path 8538" d="M253.749,456.739a2.608,2.608,0,0,1,2.465,1.216l.4-1.607-2.784-.168Z" transform="translate(-226.783 -403.028)" fill="#2f1a31"/>
            <path id="Path_8539" data-name="Path 8539" d="M210.062,9.95l-.529,3.977-4.245,31.9c-.863,6.486-5.225,11.228-10.328,11.228H85.523c-5.1,0-9.465-4.741-10.328-11.228l-4.246-31.9L70.42,9.95C69.757,4.96,74.446-.3,80.842.39c36.1,3.886,83.083.386,115.34-.369a44.458,44.458,0,0,1,7.639.38c3.892.56,6.906,4.559,6.241,9.549" transform="translate(-62.881 0)" fill="#96b4e0"/>
            <path id="Path_8540" data-name="Path 8540" d="M213.512,84.352c.891,8-5.4,16.837-4.245,31.9.5,6.532-5.225,11.228-10.328,11.228H89.5c-5.1,0-10.078-4.678-10.328-11.228-.75-19.655-5.136-23.9-4.246-31.9.324-2.912,3.163-4.639,5.713-4.639H207.8c2.55,0,5.388,1.727,5.712,4.638" transform="translate(-66.86 -70.426)" fill="#7ca1ce"/>
          </g>
        </g>
      </g>
    </g>
  </g>
</svg>
