<svg width="45" height="44" viewBox="0 0 45 44" fill="none" xmlns="http://www.w3.org/2000/svg">
<mask id="mask0_19473_135666" style="mask-type:alpha" maskUnits="userSpaceOnUse" x="0" y="0" width="45" height="44">
<rect x="0.5" width="44" height="44" fill="#D9D9D9"/>
</mask>
<g mask="url(#mask0_19473_135666)">
<path d="M8.50351 39.4167C8.05459 39.4167 7.67795 39.2587 7.37358 38.9425C7.06919 38.6264 6.91699 38.2439 6.91699 37.7949V28.8398C6.91699 27.9255 7.24077 27.1446 7.88834 26.4971C8.53587 25.8495 9.3168 25.5258 10.2311 25.5258H10.5837V18.0514C10.5837 17.1371 10.9074 16.3562 11.555 15.7086C12.2025 15.0611 12.9835 14.7373 13.8978 14.7373H21.1253V12.0437C20.5871 11.6888 20.1469 11.2722 19.805 10.7939C19.463 10.3156 19.292 9.74499 19.292 9.08218C19.292 8.67087 19.3719 8.27307 19.5317 7.88877C19.6915 7.50447 19.9313 7.1525 20.251 6.83286L22.5003 4.5835L24.7496 6.83286C25.0693 7.1525 25.309 7.50447 25.4689 7.88877C25.6287 8.27307 25.7086 8.67087 25.7086 9.08218C25.7086 9.74499 25.5376 10.3156 25.1956 10.7939C24.8536 11.2722 24.4135 11.6888 23.8752 12.0437V14.7373H31.1028C32.0171 14.7373 32.798 15.0611 33.4456 15.7086C34.0931 16.3562 34.4169 17.1371 34.4169 18.0514V25.5258H34.7695C35.6838 25.5258 36.4647 25.8495 37.1122 26.4971C37.7598 27.1446 38.0836 27.9255 38.0836 28.8398V37.7949C38.0836 38.2439 37.9255 38.6264 37.6093 38.9425C37.2932 39.2587 36.9107 39.4167 36.4618 39.4167H8.50351ZM13.3336 25.5258H31.667V18.0514C31.667 17.8869 31.6141 17.7517 31.5083 17.6459C31.4025 17.5401 31.2673 17.4872 31.1028 17.4872H13.8978C13.7332 17.4872 13.5981 17.5401 13.4923 17.6459C13.3865 17.7517 13.3336 17.8869 13.3336 18.0514V25.5258ZM9.66695 36.6668H35.3336V28.8398C35.3336 28.6753 35.2807 28.5401 35.1749 28.4343C35.0692 28.3286 34.934 28.2757 34.7695 28.2757H10.2311C10.0666 28.2757 9.9314 28.3286 9.82562 28.4343C9.71984 28.5401 9.66695 28.6753 9.66695 28.8398V36.6668Z" fill="#393939"/>
</g>
</svg>
