<svg width="16" height="16" viewBox="0 0 16 16" fill="none" xmlns="http://www.w3.org/2000/svg">
<g id="cancel">
<mask id="mask0_8220_11275" style="mask-type:alpha" maskUnits="userSpaceOnUse" x="0" y="0" width="16" height="16">
<rect id="Bounding box" width="16" height="16" fill="#D9D9D9"/>
</mask>
<g mask="url(#mask0_8220_11275)">
<path id="cancel_2" d="M7.99967 8.93301L9.93301 10.8663C10.0552 10.9886 10.2108 11.0497 10.3997 11.0497C10.5886 11.0497 10.7441 10.9886 10.8663 10.8663C10.9886 10.7441 11.0497 10.5886 11.0497 10.3997C11.0497 10.2108 10.9886 10.0552 10.8663 9.93301L8.93301 7.99967L10.8663 6.06634C10.9886 5.94412 11.0497 5.78856 11.0497 5.59967C11.0497 5.41079 10.9886 5.25523 10.8663 5.13301C10.7441 5.01079 10.5886 4.94967 10.3997 4.94967C10.2108 4.94967 10.0552 5.01079 9.93301 5.13301L7.99967 7.06634L6.06634 5.13301C5.94412 5.01079 5.78856 4.94967 5.59967 4.94967C5.41079 4.94967 5.25523 5.01079 5.13301 5.13301C5.01079 5.25523 4.94967 5.41079 4.94967 5.59967C4.94967 5.78856 5.01079 5.94412 5.13301 6.06634L7.06634 7.99967L5.13301 9.93301C5.01079 10.0552 4.94967 10.2108 4.94967 10.3997C4.94967 10.5886 5.01079 10.7441 5.13301 10.8663C5.25523 10.9886 5.41079 11.0497 5.59967 11.0497C5.78856 11.0497 5.94412 10.9886 6.06634 10.8663L7.99967 8.93301ZM7.99967 14.6663C7.07745 14.6663 6.21079 14.4913 5.39967 14.1413C4.58856 13.7913 3.88301 13.3163 3.28301 12.7163C2.68301 12.1163 2.20801 11.4108 1.85801 10.5997C1.50801 9.78856 1.33301 8.9219 1.33301 7.99967C1.33301 7.07745 1.50801 6.21079 1.85801 5.39967C2.20801 4.58856 2.68301 3.88301 3.28301 3.28301C3.88301 2.68301 4.58856 2.20801 5.39967 1.85801C6.21079 1.50801 7.07745 1.33301 7.99967 1.33301C8.9219 1.33301 9.78856 1.50801 10.5997 1.85801C11.4108 2.20801 12.1163 2.68301 12.7163 3.28301C13.3163 3.88301 13.7913 4.58856 14.1413 5.39967C14.4913 6.21079 14.6663 7.07745 14.6663 7.99967C14.6663 8.9219 14.4913 9.78856 14.1413 10.5997C13.7913 11.4108 13.3163 12.1163 12.7163 12.7163C12.1163 13.3163 11.4108 13.7913 10.5997 14.1413C9.78856 14.4913 8.9219 14.6663 7.99967 14.6663Z" fill="#E20814"/>
</g>
</g>
</svg>
