<svg width="16" height="16" viewBox="0 0 16 16" fill="none" xmlns="http://www.w3.org/2000/svg">
  <g id="close">
    <rect width="16" height="16" rx="8" fill="#EAEAEA"/>
    <path id="close_2" d="M8 8.85167L5.01901 11.8327C4.90748 11.9442 4.76553 12 4.59316 12C4.42079 12 4.27883 11.9442 4.1673 11.8327C4.05577 11.7211 4 11.5792 4 11.4068C4 11.2344 4.05577 11.0925 4.1673 10.9809L7.14829 7.99995L4.1673 5.01897C4.05577 4.90743 4 4.76548 4 4.59311C4 4.42074 4.05577 4.27879 4.1673 4.16725C4.27883 4.05572 4.42079 3.99995 4.59316 3.99995C4.76553 3.99995 4.90748 4.05572 5.01901 4.16725L8 7.14824L10.981 4.16725C11.0925 4.05572 11.2345 3.99995 11.4068 3.99995C11.5792 3.99995 11.7212 4.05572 11.8327 4.16725C11.9442 4.27879 12 4.42074 12 4.59311C12 4.76548 11.9442 4.90743 11.8327 5.01897L8.85171 7.99995L11.8327 10.9809C11.9442 11.0925 12 11.2344 12 11.4068C12 11.5792 11.9442 11.7211 11.8327 11.8327C11.7212 11.9442 11.5792 12 11.4068 12C11.2345 12 11.0925 11.9442 10.981 11.8327L8 8.85167Z" fill="#000000"/>
  </g>
</svg>
