<svg width="28" height="28" viewBox="0 0 28 28" fill="none" xmlns="http://www.w3.org/2000/svg">
<g id="icon">
<mask id="mask0_7291_141072" style="mask-type:alpha" maskUnits="userSpaceOnUse" x="0" y="0" width="28" height="28">
<rect id="Bounding box" width="28" height="28" fill="#D9D9D9"/>
</mask>
<g mask="url(#mask0_7291_141072)">
<g id="currency_exchange">
<path d="M14.0001 26.8332C11.8223 26.8332 9.81953 26.3373 7.99175 25.3457C6.16397 24.354 4.66675 23.0318 3.50008 21.379V23.3332C3.50008 23.6637 3.38828 23.9408 3.16466 24.1644C2.94105 24.388 2.66397 24.4998 2.33341 24.4998C2.00286 24.4998 1.72578 24.388 1.50216 24.1644C1.27855 23.9408 1.16675 23.6637 1.16675 23.3332V18.6665C1.16675 18.3359 1.27855 18.0589 1.50216 17.8353C1.72578 17.6116 2.00286 17.4998 2.33341 17.4998H7.00008C7.33064 17.4998 7.60772 17.6116 7.83133 17.8353C8.05494 18.0589 8.16675 18.3359 8.16675 18.6665C8.16675 18.9971 8.05494 19.2741 7.83133 19.4978C7.60772 19.7214 7.33064 19.8332 7.00008 19.8332H5.27925C6.21258 21.2332 7.44244 22.3609 8.96883 23.2165C10.4952 24.0721 12.1723 24.4998 14.0001 24.4998C16.7417 24.4998 19.0994 23.5859 21.073 21.7582C23.0466 19.9304 24.1695 17.6846 24.4417 15.0207C24.4806 14.7096 24.6167 14.4616 24.8501 14.2769C25.0834 14.0922 25.3556 13.9998 25.6667 13.9998C25.9973 13.9998 26.2792 14.1019 26.5126 14.3061C26.7459 14.5103 26.8431 14.7582 26.8042 15.0498C26.6681 16.7026 26.2404 18.2436 25.5209 19.6728C24.8015 21.1019 23.8681 22.3464 22.7209 23.4061C21.5737 24.4658 20.2563 25.3019 18.7688 25.9144C17.2813 26.5269 15.6917 26.8332 14.0001 26.8332ZM14.0001 3.49984C11.2584 3.49984 8.90078 4.41373 6.92716 6.2415C4.95355 8.06928 3.83064 10.3151 3.55841 12.979C3.51953 13.2901 3.38341 13.538 3.15008 13.7228C2.91675 13.9075 2.64453 13.9998 2.33341 13.9998C2.00286 13.9998 1.72091 13.8978 1.48758 13.6936C1.25425 13.4894 1.15703 13.2415 1.19591 12.9498C1.33203 11.2971 1.7598 9.75609 2.47925 8.32692C3.19869 6.89775 4.13203 5.65331 5.27925 4.59359C6.42647 3.53386 7.74383 2.69775 9.23133 2.08525C10.7188 1.47275 12.3084 1.1665 14.0001 1.1665C16.1779 1.1665 18.1806 1.66234 20.0084 2.654C21.8362 3.64567 23.3334 4.96789 24.5001 6.62067V4.6665C24.5001 4.33595 24.6119 4.05887 24.8355 3.83525C25.0591 3.61164 25.3362 3.49984 25.6667 3.49984C25.9973 3.49984 26.2744 3.61164 26.498 3.83525C26.7216 4.05887 26.8334 4.33595 26.8334 4.6665V9.33317C26.8334 9.66373 26.7216 9.94081 26.498 10.1644C26.2744 10.388 25.9973 10.4998 25.6667 10.4998H21.0001C20.6695 10.4998 20.3924 10.388 20.1688 10.1644C19.9452 9.94081 19.8334 9.66373 19.8334 9.33317C19.8334 9.00261 19.9452 8.72553 20.1688 8.50192C20.3924 8.27831 20.6695 8.1665 21.0001 8.1665H22.7209C21.7876 6.7665 20.5577 5.63873 19.0313 4.78317C17.5049 3.92762 15.8279 3.49984 14.0001 3.49984Z" fill="white"/>
<path d="M16.7721 11.2746H18.6667V12.614H16.6741C16.5543 13.3435 16.3256 13.9261 15.9881 14.3616C15.6614 14.7863 15.1932 15.0966 14.5834 15.2926C13.9736 15.4777 13.1842 15.5703 12.2151 15.5703V16.5993C12.2151 17.1982 12.3403 17.6718 12.5907 18.0203C12.8521 18.3687 13.2876 18.543 13.8974 18.543C15.0081 18.543 15.5634 17.9168 15.5634 16.6646H17.2784C17.2675 17.7644 16.9681 18.5974 16.3801 19.1636C15.803 19.719 14.9645 19.9966 13.8647 19.9966C12.765 19.9966 11.9211 19.6917 11.3331 19.082C10.756 18.4722 10.4674 17.6174 10.4674 16.5176V14.28C11.6761 14.28 12.5635 14.2473 13.1297 14.182C13.696 14.1057 14.1152 13.9533 14.3874 13.7246C14.6705 13.496 14.8556 13.1257 14.9427 12.614H9.78141V11.2746H15.0244V9.82096H9.78141V8.46529H18.6667V9.82096H16.7721V11.2746Z" fill="white"/>
</g>
</g>
</g>
</svg>
