<svg width="25" height="24" viewBox="0 0 25 24" fill="none" xmlns="http://www.w3.org/2000/svg">
<mask id="mask0_6435_2870" style="mask-type:alpha" maskUnits="userSpaceOnUse" x="0" y="0" width="25" height="24">
<rect x="0.75" width="24" height="24" fill="#D9D9D9"/>
</mask>
<g mask="url(#mask0_6435_2870)">
<path d="M12.75 15.575C12.6167 15.575 12.4917 15.5542 12.375 15.5125C12.2583 15.4708 12.15 15.4 12.05 15.3L8.45 11.7C8.25 11.5 8.15417 11.2667 8.1625 11C8.17083 10.7333 8.26667 10.5 8.45 10.3C8.65 10.1 8.8875 9.99583 9.1625 9.9875C9.4375 9.97917 9.675 10.075 9.875 10.275L11.75 12.15V5C11.75 4.71667 11.8458 4.47917 12.0375 4.2875C12.2292 4.09583 12.4667 4 12.75 4C13.0333 4 13.2708 4.09583 13.4625 4.2875C13.6542 4.47917 13.75 4.71667 13.75 5V12.15L15.625 10.275C15.825 10.075 16.0625 9.97917 16.3375 9.9875C16.6125 9.99583 16.85 10.1 17.05 10.3C17.2333 10.5 17.3292 10.7333 17.3375 11C17.3458 11.2667 17.25 11.5 17.05 11.7L13.45 15.3C13.35 15.4 13.2417 15.4708 13.125 15.5125C13.0083 15.5542 12.8833 15.575 12.75 15.575ZM6.75 20C6.2 20 5.72917 19.8042 5.3375 19.4125C4.94583 19.0208 4.75 18.55 4.75 18V16C4.75 15.7167 4.84583 15.4792 5.0375 15.2875C5.22917 15.0958 5.46667 15 5.75 15C6.03333 15 6.27083 15.0958 6.4625 15.2875C6.65417 15.4792 6.75 15.7167 6.75 16V18H18.75V16C18.75 15.7167 18.8458 15.4792 19.0375 15.2875C19.2292 15.0958 19.4667 15 19.75 15C20.0333 15 20.2708 15.0958 20.4625 15.2875C20.6542 15.4792 20.75 15.7167 20.75 16V18C20.75 18.55 20.5542 19.0208 20.1625 19.4125C19.7708 19.8042 19.3 20 18.75 20H6.75Z" fill="white"/>
</g>
</svg>
