<svg width="24" height="24" viewBox="0 0 24 24" fill="none" xmlns="http://www.w3.org/2000/svg">
<g id="Icon">
<g id="border_color">
<mask id="mask0_2921_20093" style="mask-type:alpha" maskUnits="userSpaceOnUse" x="4" y="4" width="16" height="16">
<rect id="Bounding box" x="4" y="4" width="16" height="16" fill="#D9D9D9"/>
</mask>
<g mask="url(#mask0_2921_20093)">
<path id="border_color_2" d="M6.66683 19.9997C6.30016 19.9997 5.98627 19.8691 5.72516 19.608C5.46405 19.3469 5.3335 19.033 5.3335 18.6663C5.3335 18.2997 5.46405 17.9858 5.72516 17.7247C5.98627 17.4636 6.30016 17.333 6.66683 17.333H17.3335C17.7002 17.333 18.0141 17.4636 18.2752 17.7247C18.5363 17.9858 18.6668 18.2997 18.6668 18.6663C18.6668 19.033 18.5363 19.3469 18.2752 19.608C18.0141 19.8691 17.7002 19.9997 17.3335 19.9997H6.66683ZM8.00016 14.6663H8.9335L14.1335 9.48301L13.1835 8.53301L8.00016 13.733V14.6663ZM6.66683 15.333V13.4497C6.66683 13.3608 6.6835 13.2747 6.71683 13.1913C6.75016 13.108 6.80016 13.033 6.86683 12.9663L14.1335 5.71634C14.2557 5.59412 14.3974 5.49967 14.5585 5.43301C14.7196 5.36634 14.8891 5.33301 15.0668 5.33301C15.2446 5.33301 15.4168 5.36634 15.5835 5.43301C15.7502 5.49967 15.9002 5.59967 16.0335 5.73301L16.9502 6.66634C17.0835 6.78856 17.1807 6.93301 17.2418 7.09967C17.3029 7.26634 17.3335 7.43856 17.3335 7.61634C17.3335 7.78301 17.3029 7.9469 17.2418 8.10801C17.1807 8.26912 17.0835 8.41634 16.9502 8.54967L9.70016 15.7997C9.6335 15.8663 9.5585 15.9163 9.47516 15.9497C9.39183 15.983 9.30572 15.9997 9.21683 15.9997H7.3335C7.14461 15.9997 6.98627 15.9358 6.8585 15.808C6.73072 15.6802 6.66683 15.5219 6.66683 15.333Z" fill="#284093"/>
</g>
</g>
</g>
</svg>
