<svg width="16" height="16" viewBox="0 0 16 16" fill="none" xmlns="http://www.w3.org/2000/svg">
<g id="error">
<mask id="mask0_8220_11232" style="mask-type:alpha" maskUnits="userSpaceOnUse" x="0" y="0" width="16" height="16">
<rect id="Bounding box" width="16" height="16" fill="#D9D9D9"/>
</mask>
<g mask="url(#mask0_8220_11232)">
<path id="error_2" d="M7.99967 11.333C8.18856 11.333 8.3469 11.2691 8.47467 11.1413C8.60245 11.0136 8.66634 10.8552 8.66634 10.6663C8.66634 10.4775 8.60245 10.3191 8.47467 10.1913C8.3469 10.0636 8.18856 9.99967 7.99967 9.99967C7.81079 9.99967 7.65245 10.0636 7.52467 10.1913C7.3969 10.3191 7.33301 10.4775 7.33301 10.6663C7.33301 10.8552 7.3969 11.0136 7.52467 11.1413C7.65245 11.2691 7.81079 11.333 7.99967 11.333ZM7.99967 8.66634C8.18856 8.66634 8.3469 8.60245 8.47467 8.47467C8.60245 8.3469 8.66634 8.18856 8.66634 7.99967V5.33301C8.66634 5.14412 8.60245 4.98579 8.47467 4.85801C8.3469 4.73023 8.18856 4.66634 7.99967 4.66634C7.81079 4.66634 7.65245 4.73023 7.52467 4.85801C7.3969 4.98579 7.33301 5.14412 7.33301 5.33301V7.99967C7.33301 8.18856 7.3969 8.3469 7.52467 8.47467C7.65245 8.60245 7.81079 8.66634 7.99967 8.66634ZM7.99967 14.6663C7.07745 14.6663 6.21079 14.4913 5.39967 14.1413C4.58856 13.7913 3.88301 13.3163 3.28301 12.7163C2.68301 12.1163 2.20801 11.4108 1.85801 10.5997C1.50801 9.78856 1.33301 8.9219 1.33301 7.99967C1.33301 7.07745 1.50801 6.21079 1.85801 5.39967C2.20801 4.58856 2.68301 3.88301 3.28301 3.28301C3.88301 2.68301 4.58856 2.20801 5.39967 1.85801C6.21079 1.50801 7.07745 1.33301 7.99967 1.33301C8.9219 1.33301 9.78856 1.50801 10.5997 1.85801C11.4108 2.20801 12.1163 2.68301 12.7163 3.28301C13.3163 3.88301 13.7913 4.58856 14.1413 5.39967C14.4913 6.21079 14.6663 7.07745 14.6663 7.99967C14.6663 8.9219 14.4913 9.78856 14.1413 10.5997C13.7913 11.4108 13.3163 12.1163 12.7163 12.7163C12.1163 13.3163 11.4108 13.7913 10.5997 14.1413C9.78856 14.4913 8.9219 14.6663 7.99967 14.6663Z" fill="#D3883E"/>
</g>
</g>
</svg>
