<svg width="40" height="40" viewBox="0 0 40 40" fill="none" xmlns="http://www.w3.org/2000/svg">
<g id="Component 7">
<circle id="Ellipse 3" cx="20" cy="20" r="19.5" fill="white" stroke="#EAEAEA"/>
<g id="search">
<mask id="mask0_5132_81234" style="mask-type:alpha" maskUnits="userSpaceOnUse" x="8" y="8" width="24" height="24">
<rect id="Bounding box" x="8" y="8" width="24" height="24" fill="#D9D9D9"/>
</mask>
<g mask="url(#mask0_5132_81234)">
<path id="search_2" d="M17.5 24C15.6833 24 14.1458 23.3708 12.8875 22.1125C11.6292 20.8542 11 19.3167 11 17.5C11 15.6833 11.6292 14.1458 12.8875 12.8875C14.1458 11.6292 15.6833 11 17.5 11C19.3167 11 20.8542 11.6292 22.1125 12.8875C23.3708 14.1458 24 15.6833 24 17.5C24 18.2333 23.8833 18.925 23.65 19.575C23.4167 20.225 23.1 20.8 22.7 21.3L28.3 26.9C28.4833 27.0833 28.575 27.3167 28.575 27.6C28.575 27.8833 28.4833 28.1167 28.3 28.3C28.1167 28.4833 27.8833 28.575 27.6 28.575C27.3167 28.575 27.0833 28.4833 26.9 28.3L21.3 22.7C20.8 23.1 20.225 23.4167 19.575 23.65C18.925 23.8833 18.2333 24 17.5 24ZM17.5 22C18.75 22 19.8125 21.5625 20.6875 20.6875C21.5625 19.8125 22 18.75 22 17.5C22 16.25 21.5625 15.1875 20.6875 14.3125C19.8125 13.4375 18.75 13 17.5 13C16.25 13 15.1875 13.4375 14.3125 14.3125C13.4375 15.1875 13 16.25 13 17.5C13 18.75 13.4375 19.8125 14.3125 20.6875C15.1875 21.5625 16.25 22 17.5 22Z" fill="#666666"/>
</g>
</g>
</g>
</svg>
