<svg width="41" height="40" viewBox="0 0 41 40" fill="none" xmlns="http://www.w3.org/2000/svg">
<mask id="mask0_15008_17212" style="mask-type:alpha" maskUnits="userSpaceOnUse" x="0" y="0" width="41" height="40">
<rect x="0.666504" width="40" height="40" fill="#D9D9D9"/>
</mask>
<g mask="url(#mask0_15008_17212)">
<path d="M10.333 32.8327C9.61079 32.8327 9.01356 32.5966 8.54134 32.1244C8.06912 31.6521 7.83301 31.0549 7.83301 30.3327V9.66602C7.83301 8.94379 8.06912 8.34657 8.54134 7.87435C9.01356 7.40213 9.61079 7.16602 10.333 7.16602H30.9997C31.7219 7.16602 32.3191 7.40213 32.7913 7.87435C33.2636 8.34657 33.4997 8.94379 33.4997 9.66602V30.3327C33.4997 31.0549 33.2636 31.6521 32.7913 32.1244C32.3191 32.5966 31.7219 32.8327 30.9997 32.8327H10.333ZM10.6663 22.4993L17.333 15.8327L23.9997 22.4993L30.6663 15.8327L32.333 17.4993V9.66602C32.333 9.27713 32.208 8.95768 31.958 8.70768C31.708 8.45768 31.3886 8.33268 30.9997 8.33268H10.333C9.94412 8.33268 9.62467 8.45768 9.37467 8.70768C9.12467 8.95768 8.99967 9.27713 8.99967 9.66602V20.8327L10.6663 22.4993ZM10.333 31.666H30.9997C31.3886 31.666 31.708 31.541 31.958 31.291C32.208 31.041 32.333 30.7216 32.333 30.3327V19.166L30.6663 17.4993L23.9997 24.166L17.333 17.4993L10.6663 24.166L8.99967 22.4993V30.3327C8.99967 30.7216 9.12467 31.041 9.37467 31.291C9.62467 31.541 9.94412 31.666 10.333 31.666ZM8.99967 31.666V19.166V20.3327V8.33268V31.666Z" fill="#C1C1C1"/>
</g>
</svg>
