<svg width="324" height="70" viewBox="0 0 324 70" fill="none" xmlns="http://www.w3.org/2000/svg">
<mask id="mask0_414_16210" style="mask-type:alpha" maskUnits="userSpaceOnUse" x="0" y="0" width="324" height="70">
<path fill-rule="evenodd" clip-rule="evenodd" d="M51.185 69.1122C61.0708 69.171 69.1712 64.6157 70.637 50.8248L70.604 1.94313L54.9542 1.91741L54.9799 48.8226C54.7375 51.3501 52.941 52.7094 51.174 52.68C49.3996 52.7094 47.6069 51.3538 47.3571 48.8263L47.3277 1.92476L31.6743 1.96884L31.711 50.8505C33.1841 64.6414 41.2882 69.1784 51.1814 69.1122M102.436 36.3138L107.535 1.87333L126.278 1.86598L130.117 67.8926L115.919 67.933L114.728 22.1666L108.365 67.9257H96.54L90.1221 22.1813L88.9869 67.9514L74.7919 67.9257L78.5427 1.88435L97.2894 1.87333L102.436 36.3102V36.3138ZM135.551 1.89904L135.587 67.8889L151.241 67.8816L151.208 1.86231L135.554 1.90272L135.551 1.89904ZM158.404 1.97986L158.448 67.9734L172.989 67.9661L172.963 35.3293L181.706 67.9624L197.36 67.922L197.316 1.92843L182.772 1.93945L182.797 35.2926L174.054 1.94313L158.408 1.98354L158.404 1.97986ZM268.254 68.9837C278.143 69.0388 286.259 64.4798 287.702 50.6925L287.68 1.8072L272.03 1.78149L272.06 48.6904C271.814 51.2289 270.017 52.5771 268.254 52.5477C266.487 52.5771 264.69 51.2252 264.43 48.6941L264.411 1.78883L248.754 1.82924L248.791 50.7182C250.264 64.5018 258.375 69.0498 268.254 68.9837ZM223.369 15.8479C223.175 15.8553 222.98 15.881 222.792 15.9251C220.081 16.6084 218.061 22.1152 217.932 34.8003C218.079 47.3311 220.056 52.86 222.726 53.6425C222.752 53.6498 222.778 53.6572 222.807 53.6682C223.002 53.7086 223.186 53.7306 223.377 53.738H223.454C223.641 53.7306 223.828 53.7086 224.016 53.6682C224.049 53.6572 224.078 53.6498 224.108 53.6425C226.771 52.8526 228.747 47.3311 228.876 34.7893C228.733 22.1115 226.705 16.6047 223.994 15.9251C223.799 15.8773 223.612 15.8553 223.413 15.8479H223.366H223.369ZM220.732 69.149C209.538 67.6979 201.974 57.7937 202.477 34.804C201.937 11.7848 209.516 1.86598 220.739 0.43693C220.838 0.418561 220.948 0.403867 221.059 0.392846C221.823 0.304678 222.594 0.253247 223.38 0.253247C224.166 0.253247 224.942 0.304678 225.713 0.392846C225.812 0.403867 225.919 0.411214 226.025 0.433256H226.033C237.245 1.85129 244.827 11.7591 244.327 34.7746V34.793C244.86 57.768 237.307 67.6905 226.124 69.1453C225.243 69.2739 224.339 69.3363 223.421 69.329C222.495 69.34 221.602 69.2739 220.724 69.1526L220.732 69.149ZM320.644 35.8693C316.827 29.5543 314.017 29.22 310.854 25.4545C304.135 17.4423 311.981 10.106 322.319 21.4539L322.312 4.91879C313.98 -1.07294 305.064 -1.92156 297.559 4.92981C288.676 14.1213 292.136 27.9673 298.808 35.8877H298.848C300.766 38.1507 302.955 40.1785 304.847 42.6472C312.301 51.3354 303.282 59.7848 291.989 45.9719L291.997 64.6157C300.769 70.905 310.416 71.7867 318.319 64.5973C326.074 56.3757 324.472 42.1843 320.644 35.8693ZM0 1.97986L0.0367365 67.9844L27.49 67.9661L27.4789 52.3053H15.6792L15.6534 1.94313L0 1.98354V1.97986Z" fill="#0047BA"/>
</mask>
<g mask="url(#mask0_414_16210)">
<path fill-rule="evenodd" clip-rule="evenodd" d="M-106.723 -14.1219L-127.539 12.3721C-133.509 19.9691 -136.753 29.3507 -136.753 39.0122C-136.753 62.8264 -117.448 82.1317 -93.6339 82.1317H132.533C139.744 82.1317 146.548 80.3865 152.545 77.2955C158.489 80.3855 165.243 82.1317 172.406 82.1317H398.573C405.784 82.1317 412.588 80.3865 418.585 77.2955C424.529 80.3854 431.283 82.1317 438.445 82.1317H664.612C688.769 82.1317 708.352 62.5487 708.352 38.3918V37.7324C708.352 28.854 705.65 20.1858 700.606 12.8798L681.85 -14.2837C670.199 -31.1581 645.129 -30.7449 634.04 -13.4955C622.73 4.09705 596.909 3.9346 585.6 -13.658C574.524 -30.8868 549.456 -31.6529 537.551 -14.9862L534.897 -11.2703C522.348 6.29794 496.376 6.69832 483.292 -10.4748L480.828 -13.7088C466.924 -31.9578 439.531 -32.1618 425.357 -14.1219L420.335 -7.73073L415.81 -14.2837C404.159 -31.1581 379.089 -30.7449 368 -13.4955C356.691 4.09705 330.87 3.9346 319.56 -13.658C308.484 -30.8868 283.416 -31.6529 271.511 -14.9862L268.857 -11.2703C256.308 6.29794 230.336 6.69832 217.252 -10.4748L214.788 -13.7088C200.884 -31.9578 173.491 -32.1618 159.317 -14.1219L154.295 -7.73092L149.771 -14.2837C138.119 -31.1581 113.049 -30.7449 101.961 -13.4955C90.651 4.09705 64.8301 3.9346 53.5206 -13.658C42.4449 -30.8868 17.3766 -31.6529 5.47185 -14.9862L2.81764 -11.2703C-9.73107 6.29794 -35.7035 6.69832 -48.7877 -10.4748L-51.2517 -13.7088C-65.1557 -31.9578 -92.5486 -32.1618 -106.723 -14.1219Z" fill="#0047BA"/>
</g>
</svg>
