<svg xmlns="http://www.w3.org/2000/svg" width="97.324" height="67.181" viewBox="0 0 97.324 67.181">
  <g id="Group_74764" data-name="Group 74764" transform="translate(-43.853 -257.909)" style="mix-blend-mode: luminosity;isolation: isolate">
    <path id="Path_6455" data-name="Path 6455" d="M2208.04,399.242s-.433-2.155.1-2.3c.913-.247,2.177,2.236,2.229,1.994.369-1.736.561-2.333.86-2.333,1,0,.914,2.518,1.135,2.518s.767-2.44,1.367-2.475c.547-.032.589,1.842.591,2.326a.02.02,0,0,0,.039.007c.163-.427.793-2.01,1.179-2.037.447-.032.591,1.588.591,1.588s.652-.881,1.035-.85-.049,1.593-.049,1.593Z" transform="translate(-2133.883 -96.91)" fill="#ffcfc5"/>
    <path id="Path_6459" data-name="Path 6459" d="M2163.939,326.292" transform="translate(-2097.866 -39.27)" fill="#ffcfc5"/>
    <g id="Group_74743" data-name="Group 74743" transform="translate(83.952 284.386)">
      <path id="Path_6464" data-name="Path 6464" d="M2310.79,400.583l.965,1.9c.353.6,1.666.016,1.295-.661l-.909-1.874Z" transform="translate(-2302.204 -384.038)" fill="#a0b1c7"/>
      <path id="Path_6465" data-name="Path 6465" d="M2327.434,392.782l.965,1.9c.353.6,1.666.016,1.295-.661l-.909-1.874Z" transform="translate(-2315.848 -377.643)" fill="#a0b1c7"/>
      <path id="Path_6466" data-name="Path 6466" d="M2271.358,328.291c-1.257.5-3.482-.467-4.81-3.195l-3.037-6.483a3.706,3.706,0,0,1-.362-1.734,2.79,2.79,0,0,1,1.532-2.444l5.723-2.579a3.282,3.282,0,0,1,3.959,1.373,2.851,2.851,0,0,1,.147.337l3.326,8.72a2.838,2.838,0,0,1-.771,3.385Z" transform="translate(-2263.146 -311.663)" fill="#a0b1c7"/>
    </g>
    <path id="Path_6467" data-name="Path 6467" d="M2282.362,365.635a23.818,23.818,0,0,0,10.561-4.45c.806,1.642,1.043,2.817.614,4.031a2.025,2.025,0,0,1-1.054,1.159l-5.2,2.424a2.349,2.349,0,0,1-.491.172C2285.3,369.3,2283.325,367.851,2282.362,365.635Z" transform="translate(-2194.947 -67.874)" fill="#545454"/>
    <circle id="Ellipse_1752" data-name="Ellipse 1752" cx="0.771" cy="0.771" r="0.771" transform="translate(93.129 297.215)" fill="#f8452d"/>
    <path id="Path_6468" data-name="Path 6468" d="M2382.954,166.6c-.289-1.406,1.5-1.852,3.385-1.852s3.491.426,3.414,1.774" transform="translate(-2277.385 93.159)" fill="#a0b1c7"/>
    <path id="Path_6469" data-name="Path 6469" d="M2383.761,223.234l.326-1.552a2.541,2.541,0,0,1,1.887-1.966,5.346,5.346,0,0,1,2.42-.008,2.539,2.539,0,0,1,1.912,2.028l.283,1.375c.148.837-.274,2.083-1.449,2.064l-4.064-.053C2384.1,225.059,2383.6,224.486,2383.761,223.234Z" transform="translate(-2278.048 48.216)" fill="#cdd6e2"/>
    <ellipse id="Ellipse_1753" data-name="Ellipse 1753" cx="2.438" cy="0.876" rx="2.438" ry="0.876" transform="translate(106.595 271.019)" fill="#545454"/>
    <path id="Path_6470" data-name="Path 6470" d="M2399.151,184.222v-7.247a.54.54,0,0,1,.54-.54h0a.54.54,0,0,1,.54.54v7.247Z" transform="translate(-2290.688 83.58)" fill="#cdd6e2"/>
    <ellipse id="Ellipse_1754" data-name="Ellipse 1754" cx="3.409" cy="1.255" rx="3.409" ry="1.255" transform="translate(105.574 258.578)" fill="#cdd6e2"/>
    <path id="Path_6471" data-name="Path 6471" d="M2420.211,229c4.535-.382,6.937-.733,10.975-.481,2.92.072,6.525.685,7.442,2.511a1.021,1.021,0,0,1-.51,1.4,9.975,9.975,0,0,1-3.523.26,10.864,10.864,0,0,1-1.13-.081,74.787,74.787,0,0,1-13.021-2.5Z" transform="translate(-2307.953 40.955)" fill="#cdd6e2"/>
    <path id="Path_6472" data-name="Path 6472" d="M2329.795,211.791a29.433,29.433,0,0,1-7.509-.175,6.931,6.931,0,0,1-.9-.205c-2.216-.656-3.4-1.408-3.791-2.976-.219-1.287,1.123-1.4,3.2-.946a62.051,62.051,0,0,1,9.4,3.173A2.722,2.722,0,0,0,2329.795,211.791Z" transform="translate(-2223.807 58.32)" fill="#cdd6e2"/>
    <path id="Path_6473" data-name="Path 6473" d="M2355.224,244.929a15.86,15.86,0,0,0-6,4.894c-.51.914-.311,1.822,1.183,1.425.941-.269,2.23-1.043,5.3-5.62A2.419,2.419,0,0,1,2355.224,244.929Z" transform="translate(-2249.554 27.43)" fill="#cdd6e2"/>
    <g id="Group_74744" data-name="Group 74744" transform="translate(113.234 285.905)">
      <path id="Path_6474" data-name="Path 6474" d="M2425.628,328.315a9.238,9.238,0,0,1,2.6-7.209,4.637,4.637,0,0,1,3.87-.954,92.046,92.046,0,0,1,19.505,6.1c1.531.751,2.071,1.748,1.955,2.908a21.929,21.929,0,0,1-.852,5.57c-.644,1.2-2.014,1.845-4.071,1.963-6.537-1.469-12.946-3.256-19.259-4.715A4.189,4.189,0,0,1,2425.628,328.315Z" transform="translate(-2425.627 -320.092)" fill="#cdd6e2"/>
      <path id="Path_6475" data-name="Path 6475" d="M2425.908,366.26c7.178,1.3,16.333,3.645,26.93,6.494a4.456,4.456,0,0,1-4.371,1.745l-18.864-4.677A4.076,4.076,0,0,1,2425.908,366.26Z" transform="translate(-2425.858 -357.94)" fill="#a0b1c7"/>
      <path id="Path_6476" data-name="Path 6476" d="M2445.148,372.991a4.765,4.765,0,0,1-.045-2.862c5.96,1.284,12.7,2.963,19.917,4.887a4.058,4.058,0,0,1-1.069,2.628Z" transform="translate(-2441.431 -361.111)" fill="#545454"/>
    </g>
    <g id="Group_74746" data-name="Group 74746" transform="translate(110.555 309.725)">
      <rect id="Rectangle_2619" data-name="Rectangle 2619" width="12.498" height="8.312" rx="4.156" transform="translate(0 0.081) rotate(-0.373)" fill="#cdd6e2"/>
      <g id="Group_74745" data-name="Group 74745" transform="translate(1.801 2.106)">
        <circle id="Ellipse_1265" data-name="Ellipse 1265" cx="0.715" cy="0.715" r="0.715" transform="translate(3.255 2.887)" fill="#545454"/>
        <circle id="Ellipse_1266" data-name="Ellipse 1266" cx="0.715" cy="0.715" r="0.715" transform="translate(1.582 0.031)" fill="#545454"/>
        <circle id="Ellipse_1267" data-name="Ellipse 1267" cx="0.715" cy="0.715" r="0.715" transform="translate(0 2.908)" fill="#545454"/>
        <path id="Rectangle_2620" data-name="Rectangle 2620" d="M2458.523,463.948h0a1.105,1.105,0,0,1,1.112,1.1l.014,2.088a1.105,1.105,0,0,1-1.1,1.112h0a1.105,1.105,0,0,1-1.112-1.1l-.014-2.088A1.1,1.1,0,0,1,2458.523,463.948Z" transform="translate(-2450.816 -463.948)" fill="#545454"/>
      </g>
    </g>
    <path id="Path_6483" data-name="Path 6483" d="M2163.8,326.4" transform="translate(-2097.75 -39.358)" fill="#ffcfc5"/>
    <line id="Line_19" data-name="Line 19" x2="57.785" transform="translate(59.454 324.091)" fill="none" stroke="#000" stroke-linecap="round" stroke-linejoin="round" stroke-width="2"/>
    <g id="Group_74756" data-name="Group 74756" transform="translate(43.853 259.023)">
      <path id="Path_6512" data-name="Path 6512" d="M1923.333,1022.11c-.041,1.759,1.185,4,2.731,4.531-1.559,2.189-7.431,2.482-10.446,1.439,1.012-2.292-.427-5.649-2.619-9.317C1916.649,1020.91,1919.561,1022.217,1923.333,1022.11Z" transform="translate(-1901.576 -997.761)" fill="#fcb3a4"/>
      <path id="Path_6513" data-name="Path 6513" d="M1891.476,1097.858l-24.063-.084h0c-.79-7.486-1.71-14.786-4.432-20.146h0c-2.827,1.949-4.013,4.91-3.632,6.995a2.5,2.5,0,0,0,.848,1.526c1.961,1.568,6.28-.1,10.427-1.977h0l2.832,4.077h0a17.525,17.525,0,0,1-9.838,5.637,9.285,9.285,0,0,1-6.661-1.2,9.705,9.705,0,0,1-4.291-6.831,15.841,15.841,0,0,1,.926-8.69c2.691-6.8,8.1-11.382,15.477-13.493l.266-.066c2.162.964,5.351.243,5.569-1.04,0-.01.481.09.481.09,9.833,2.508,18.071,12.482,19.829,17.39,1.685,3.663-.887,5.865-3.3,5.479h0a6.183,6.183,0,0,1-3.44-2.18h0c-.258,10.9,2.939,14.764,3,14.515S1891.476,1097.858,1891.476,1097.858Z" transform="translate(-1852.421 -1033.302)" fill="#fc4b37"/>
      <path id="Path_6514" data-name="Path 6514" d="M1975.69,1134.536l3.026-5.939a.9.9,0,0,1,.81-.491l12.795.127a.9.9,0,0,1,.794,1.3l-2.839,5.623a.9.9,0,0,1-.79.494l-12.981.19A.9.9,0,0,1,1975.69,1134.536Z" transform="translate(-1952.366 -1086.486)"/>
      <path id="Path_6515" data-name="Path 6515" d="M1947.777,1155.856l2.541-3.974s1.4-1.994,1.7-1.858-.288,1.943-.288,1.943,3.266-3.3,3.67-3.022-2.159,3.453-2.159,3.453,3.792-3.713,4.284-3.18-3.442,3.811-3.442,3.811,4.3-2.7,4.671-2.172-3.852,3.032-3.647,3.2,2.131-1.065,2.54-.533c.335.436-7.932,4.922-7.932,4.922Z" transform="translate(-1929.797 -1103.383)" fill="#ffcfc5"/>
      <path id="Path_6516" data-name="Path 6516" d="M1967.234,1043.2" transform="translate(-1945.585 -1017.594)" fill="#ffcfc5"/>
      <path id="Path_6517" data-name="Path 6517" d="M1908.257,1142.882c2.258,1.691,3.814,4.153,5.425,7.544l-2.6.863A34.919,34.919,0,0,0,1908.257,1142.882Z" transform="translate(-1897.729 -1098.476)" fill="#db1f16"/>
      <path id="Path_6518" data-name="Path 6518" d="M1929.289,1216.72l4.051-1.665c1.98,4.681,6.447,6.475,17.769,6.511l-21.3.073Z" transform="translate(-1914.795 -1157.041)" fill="#db1f16"/>
      <g id="Group_74755" data-name="Group 74755" transform="translate(4.335)">
        <path id="Path_6519" data-name="Path 6519" d="M1902.5,938.424c-2.724-.65-3.708-2.113-2.828-4.755a20.607,20.607,0,0,0-2.468-18.695c.692-2.091-2.221-5.54-5.4-6.719-5.193-2.152-9.641-.083-13.136,3.51-3.445,3.833-4.369,9.515-1.778,15.978.482,1.2,4.208,4.809,3.471,10.229-1.493,10.981-1.636,19.587,5.666,19.587,4.119,0,7.913-7.046,2.957-17.55-1.251-2.651-3.642-7.158-6.271-11.6-.952.34-1.618-.4-1.971-1.224-.86-2.007.189-3.761,2.107-1.088,1.455,2.029,3.551.9,2.25-1.7l-2.039-4.379c-.73-1.939-1.186-3.046-.54-4.2.757-1.408,2.219-1.44,5.159.36,4.02,1.678,5.71,1.623,7.8.9,3.268,4.311,4.258,12.719,1.914,16.43-.8,1.267-2.414,1.732-4.284,1.757l.047.256.182,1.135a14.112,14.112,0,0,0,1.812,4.67c1.975,3.849,3.463,6.552,5.483,7.548a4.357,4.357,0,0,0,1.944.47,4.719,4.719,0,0,0,1.982-.461C1907.531,948.861,1909.693,940.14,1902.5,938.424Z" transform="translate(-1875.409 -907.38)" fill="#232e8d"/>
        <g id="Group_74754" data-name="Group 74754" transform="translate(4.805 7.176)">
          <path id="Path_6520" data-name="Path 6520" d="M1914.268,966.141c2.446.051,3.478-.782,4.153-1.74,2.345-3.856,1.265-12.1-2.166-16.77-3.45,1.307-6.143-.027-8.315-1.1-1.771-.878-3.171-1.571-4.434-.658-1.666,1.694-.049,5.028,1.252,7.709.86,1.773,1.482,3.054,1.149,3.743a.772.772,0,0,1-.559.418l-.057.006c-.64,0-1.156-.636-1.7-1.309-.753-.929-1.3-1.519-1.957-1.251-.841.62-.958,1.561-.392,3.14.578,1.206,1.471,1.7,2.449,1.368l.156.326.016.028a11.805,11.805,0,0,0,3.957,4.114A11.086,11.086,0,0,0,1914.268,966.141Z" transform="translate(-1900.892 -945.44)" fill="#ffcfc5"/>
          <path id="Path_6521" data-name="Path 6521" d="M1930.444,979.376a.093.093,0,0,1-.069-.156,5.065,5.065,0,0,1,2.541-1.619.093.093,0,1,1,.045.18,4.888,4.888,0,0,0-2.449,1.563A.093.093,0,0,1,1930.444,979.376Z" transform="translate(-1924.797 -971.535)"/>
          <path id="Path_6522" data-name="Path 6522" d="M1979.4,971.55a.1.1,0,0,1-.029,0,4.9,4.9,0,0,0-2.64-.069.093.093,0,1,1-.042-.181,5.075,5.075,0,0,1,2.738.073.093.093,0,0,1-.028.182Z" transform="translate(-1962.337 -966.296)"/>
          <path id="Path_6523" data-name="Path 6523" d="M1967.975,991.243a.075.075,0,0,1-.05-.132l1.225-1.1c-.114-.133-.232-.267-.35-.4a16.3,16.3,0,0,1-1.2-1.478,7.186,7.186,0,0,1-.755-1.569.075.075,0,0,1,.048-.1.076.076,0,0,1,.1.048,7.182,7.182,0,0,0,.737,1.531,16.217,16.217,0,0,0,1.185,1.464c.135.154.269.307.4.46a.075.075,0,0,1-.007.105l-1.28,1.144A.075.075,0,0,1,1967.975,991.243Z" transform="translate(-1954.409 -978.732)" fill="#fcb3a4"/>
          <path id="Path_6524" data-name="Path 6524" d="M1965.566,1030.774a2.992,2.992,0,0,0,3.633-.434" transform="translate(-1953.371 -1014.331)" fill="#e0563f"/>
          <ellipse id="Ellipse_1758" data-name="Ellipse 1758" cx="1.995" cy="1.113" rx="1.995" ry="1.113" transform="translate(7.334 12.754) rotate(-19.761)" fill="#fcb3a4"/>
          <path id="Path_6525" data-name="Path 6525" d="M1990.344,1001.51c-1.094.118-2.233.8-2.168,1.4s1.324.943,2.419.825Z" transform="translate(-1971.716 -990.938)" fill="#fcb3a4"/>
          <path id="Path_6526" data-name="Path 6526" d="M1987.471,986.152a1.648,1.648,0,0,1-.758-.176.971.971,0,0,1-.522-.6.076.076,0,0,1,.147-.038.823.823,0,0,0,.445.5,1.657,1.657,0,0,0,1.308.045.076.076,0,1,1,.054.142A1.913,1.913,0,0,1,1987.471,986.152Z" transform="translate(-1970.105 -977.768)" fill="#ea9c8f"/>
          <path id="Path_6527" data-name="Path 6527" d="M1936.206,994.444a1.63,1.63,0,0,1-.48-.068.791.791,0,0,1-.58-.526.093.093,0,0,1,.18-.046.614.614,0,0,0,.455.4,1.844,1.844,0,0,0,1.707-.442.613.613,0,0,0,.206-.567.093.093,0,0,1,.18-.046.789.789,0,0,1-.251.742,1.883,1.883,0,0,1-.885.49A2.132,2.132,0,0,1,1936.206,994.444Z" transform="translate(-1928.684 -984.091)" fill="#ea9c8f"/>
        </g>
      </g>
      <path id="Path_6528" data-name="Path 6528" d="M1967.091,1043.312" transform="translate(-1945.469 -1017.681)" fill="#ffcfc5"/>
      <path id="Path_6529" data-name="Path 6529" d="M2011.342,1116.277s-.454-2.255.1-2.405c.955-.258,2.277,2.34,2.331,2.086.386-1.817.588-2.441.9-2.441,1.042,0,.955,2.634,1.187,2.634s.8-2.553,1.43-2.59c.572-.033.617,1.927.619,2.433a.021.021,0,0,0,.041.008c.171-.447.83-2.1,1.234-2.131.467-.033.618,1.662.618,1.662s.682-.922,1.082-.889-.05,1.667-.05,1.667Z" transform="translate(-1981.235 -1074.648)" fill="#ffcfc5"/>
    </g>
  </g>
</svg>
