<svg width="12" height="12" viewBox="0 0 12 12" fill="none" xmlns="http://www.w3.org/2000/svg">
<path d="M-2.91409e-08 0.666666C-2.08843e-08 0.477777 0.0638885 0.319444 0.191667 0.191666C0.319445 0.0638884 0.477777 -5.03652e-07 0.666666 -4.95396e-07L4.66667 -3.2055e-07C4.85556 -3.12294e-07 5.01389 0.0638886 5.14167 0.191666C5.26944 0.319444 5.33333 0.477777 5.33333 0.666666C5.33333 0.855555 5.26944 1.01389 5.14167 1.14167C5.01389 1.26944 4.85556 1.33333 4.66667 1.33333L2.26667 1.33333L10.6667 9.73333L10.6667 7.33333C10.6667 7.14444 10.7306 6.98611 10.8583 6.85833C10.9861 6.73056 11.1444 6.66667 11.3333 6.66667C11.5222 6.66667 11.6806 6.73056 11.8083 6.85833C11.9361 6.98611 12 7.14444 12 7.33333L12 11.3333C12 11.5222 11.9361 11.6806 11.8083 11.8083C11.6806 11.9361 11.5222 12 11.3333 12L7.33333 12C7.14444 12 6.98611 11.9361 6.85833 11.8083C6.73056 11.6806 6.66667 11.5222 6.66667 11.3333C6.66667 11.1444 6.73056 10.9861 6.85833 10.8583C6.98611 10.7306 7.14444 10.6667 7.33333 10.6667L9.73333 10.6667L1.33333 2.26667L1.33333 4.66667C1.33333 4.85556 1.26944 5.01389 1.14167 5.14167C1.01389 5.26944 0.855555 5.33333 0.666666 5.33333C0.477777 5.33333 0.319444 5.26944 0.191666 5.14167C0.0638883 5.01389 -2.12243e-07 4.85556 -2.03986e-07 4.66667L-2.91409e-08 0.666666Z" fill="#393939"/>
</svg>
