<svg width="19" height="18" viewBox="0 0 19 18" fill="none" xmlns="http://www.w3.org/2000/svg">
<g id="icon">
<mask id="mask0_6539_1990" style="mask-type:alpha" maskUnits="userSpaceOnUse" x="0" y="0" width="19" height="18">
<rect id="Bounding box" x="0.5" width="18" height="18" fill="#D9D9D9"/>
</mask>
<g mask="url(#mask0_6539_1990)">
<path id="open_in_new" d="M4.25 15.75C3.8375 15.75 3.48438 15.6031 3.19063 15.3094C2.89688 15.0156 2.75 14.6625 2.75 14.25V3.75C2.75 3.3375 2.89688 2.98438 3.19063 2.69063C3.48438 2.39688 3.8375 2.25 4.25 2.25H8.75C8.9625 2.25 9.14063 2.32187 9.28438 2.46562C9.42813 2.60938 9.5 2.7875 9.5 3C9.5 3.2125 9.42813 3.39062 9.28438 3.53437C9.14063 3.67813 8.9625 3.75 8.75 3.75H4.25V14.25H14.75V9.75C14.75 9.5375 14.8219 9.35938 14.9656 9.21563C15.1094 9.07188 15.2875 9 15.5 9C15.7125 9 15.8906 9.07188 16.0344 9.21563C16.1781 9.35938 16.25 9.5375 16.25 9.75V14.25C16.25 14.6625 16.1031 15.0156 15.8094 15.3094C15.5156 15.6031 15.1625 15.75 14.75 15.75H4.25ZM14.75 4.8L8.3 11.25C8.1625 11.3875 7.9875 11.4563 7.775 11.4563C7.5625 11.4563 7.3875 11.3875 7.25 11.25C7.1125 11.1125 7.04375 10.9375 7.04375 10.725C7.04375 10.5125 7.1125 10.3375 7.25 10.2L13.7 3.75H11.75C11.5375 3.75 11.3594 3.67813 11.2156 3.53437C11.0719 3.39062 11 3.2125 11 3C11 2.7875 11.0719 2.60938 11.2156 2.46562C11.3594 2.32187 11.5375 2.25 11.75 2.25H16.25V6.75C16.25 6.9625 16.1781 7.14062 16.0344 7.28438C15.8906 7.42812 15.7125 7.5 15.5 7.5C15.2875 7.5 15.1094 7.42812 14.9656 7.28438C14.8219 7.14062 14.75 6.9625 14.75 6.75V4.8Z" fill="#284093"/>
</g>
</g>
</svg>
