<svg width="54" height="54" viewBox="0 0 54 54" fill="none" xmlns="http://www.w3.org/2000/svg">
<g id="Component 10">
<mask id="mask0_6571_12467" style="mask-type:alpha" maskUnits="userSpaceOnUse" x="0" y="0" width="54" height="54">
<rect id="Bounding box" width="54" height="54" fill="#D9D9D9"/>
</mask>
<g mask="url(#mask0_6571_12467)">
<path id="release_alert" d="M18.3377 48.9386L15.0752 43.4261L8.8877 42.0761C8.3252 41.9636 7.8752 41.6729 7.5377 41.2042C7.2002 40.7354 7.06895 40.2198 7.14395 39.6573L7.7627 33.3011L3.54395 28.4636C3.16895 28.0511 2.98145 27.5636 2.98145 27.0011C2.98145 26.4386 3.16895 25.9511 3.54395 25.5386L7.7627 20.7011L7.14395 14.3448C7.06895 13.7823 7.2002 13.2667 7.5377 12.7979C7.8752 12.3292 8.3252 12.0386 8.8877 11.9261L15.0752 10.5761L18.3377 5.06356C18.6377 4.57606 19.0502 4.24794 19.5752 4.07919C20.1002 3.91044 20.6252 3.93856 21.1502 4.16356L27.0002 6.63856L32.8502 4.16356C33.3752 3.93856 33.9002 3.91044 34.4252 4.07919C34.9502 4.24794 35.3627 4.57606 35.6627 5.06356L38.9252 10.5761L45.1127 11.9261C45.6752 12.0386 46.1252 12.3292 46.4627 12.7979C46.8002 13.2667 46.9314 13.7823 46.8564 14.3448L46.2377 20.7011L50.4564 25.5386C50.8314 25.9511 51.0189 26.4386 51.0189 27.0011C51.0189 27.5636 50.8314 28.0511 50.4564 28.4636L46.2377 33.3011L46.8564 39.6573C46.9314 40.2198 46.8002 40.7354 46.4627 41.2042C46.1252 41.6729 45.6752 41.9636 45.1127 42.0761L38.9252 43.4261L35.6627 48.9386C35.3627 49.4261 34.9502 49.7542 34.4252 49.9229C33.9002 50.0917 33.3752 50.0636 32.8502 49.8386L27.0002 47.3636L21.1502 49.8386C20.6252 50.0636 20.1002 50.0917 19.5752 49.9229C19.0502 49.7542 18.6377 49.4261 18.3377 48.9386ZM27.0002 38.2511C27.6377 38.2511 28.1721 38.0354 28.6033 37.6042C29.0346 37.1729 29.2502 36.6386 29.2502 36.0011C29.2502 35.3636 29.0346 34.8292 28.6033 34.3979C28.1721 33.9667 27.6377 33.7511 27.0002 33.7511C26.3627 33.7511 25.8283 33.9667 25.3971 34.3979C24.9658 34.8292 24.7502 35.3636 24.7502 36.0011C24.7502 36.6386 24.9658 37.1729 25.3971 37.6042C25.8283 38.0354 26.3627 38.2511 27.0002 38.2511ZM27.0002 29.2511C27.6377 29.2511 28.1721 29.0354 28.6033 28.6042C29.0346 28.1729 29.2502 27.6386 29.2502 27.0011V18.0011C29.2502 17.3636 29.0346 16.8292 28.6033 16.3979C28.1721 15.9667 27.6377 15.7511 27.0002 15.7511C26.3627 15.7511 25.8283 15.9667 25.3971 16.3979C24.9658 16.8292 24.7502 17.3636 24.7502 18.0011V27.0011C24.7502 27.6386 24.9658 28.1729 25.3971 28.6042C25.8283 29.0354 26.3627 29.2511 27.0002 29.2511Z" fill="#D3883E"/>
</g>
</g>
</svg>
