<svg width="19" height="18" viewBox="0 0 19 18" fill="none" xmlns="http://www.w3.org/2000/svg">
<path d="M2.5 18C1.95 18 1.47917 17.8042 1.0875 17.4125C0.695833 17.0208 0.5 16.55 0.5 16V2C0.5 1.45 0.695833 0.979167 1.0875 0.5875C1.47917 0.195833 1.95 0 2.5 0H10.5C10.7833 0 11.0208 0.0958333 11.2125 0.2875C11.4042 0.479167 11.5 0.716667 11.5 1C11.5 1.28333 11.4042 1.52083 11.2125 1.7125C11.0208 1.90417 10.7833 2 10.5 2H2.5V16H16.5V8C16.5 7.71667 16.5958 7.47917 16.7875 7.2875C16.9792 7.09583 17.2167 7 17.5 7C17.7833 7 18.0208 7.09583 18.2125 7.2875C18.4042 7.47917 18.5 7.71667 18.5 8V16C18.5 16.55 18.3042 17.0208 17.9125 17.4125C17.5208 17.8042 17.05 18 16.5 18H2.5ZM6.5 14C6.21667 14 5.97917 13.9042 5.7875 13.7125C5.59583 13.5208 5.5 13.2833 5.5 13C5.5 12.7167 5.59583 12.4792 5.7875 12.2875C5.97917 12.0958 6.21667 12 6.5 12H12.5C12.7833 12 13.0208 12.0958 13.2125 12.2875C13.4042 12.4792 13.5 12.7167 13.5 13C13.5 13.2833 13.4042 13.5208 13.2125 13.7125C13.0208 13.9042 12.7833 14 12.5 14H6.5ZM6.5 11C6.21667 11 5.97917 10.9042 5.7875 10.7125C5.59583 10.5208 5.5 10.2833 5.5 10C5.5 9.71667 5.59583 9.47917 5.7875 9.2875C5.97917 9.09583 6.21667 9 6.5 9H12.5C12.7833 9 13.0208 9.09583 13.2125 9.2875C13.4042 9.47917 13.5 9.71667 13.5 10C13.5 10.2833 13.4042 10.5208 13.2125 10.7125C13.0208 10.9042 12.7833 11 12.5 11H6.5ZM6.5 8C6.21667 8 5.97917 7.90417 5.7875 7.7125C5.59583 7.52083 5.5 7.28333 5.5 7C5.5 6.71667 5.59583 6.47917 5.7875 6.2875C5.97917 6.09583 6.21667 6 6.5 6H12.5C12.7833 6 13.0208 6.09583 13.2125 6.2875C13.4042 6.47917 13.5 6.71667 13.5 7C13.5 7.28333 13.4042 7.52083 13.2125 7.7125C13.0208 7.90417 12.7833 8 12.5 8H6.5ZM15.5 6C15.2167 6 14.9792 5.90417 14.7875 5.7125C14.5958 5.52083 14.5 5.28333 14.5 5V4H13.5C13.2167 4 12.9792 3.90417 12.7875 3.7125C12.5958 3.52083 12.5 3.28333 12.5 3C12.5 2.71667 12.5958 2.47917 12.7875 2.2875C12.9792 2.09583 13.2167 2 13.5 2H14.5V1C14.5 0.716667 14.5958 0.479167 14.7875 0.2875C14.9792 0.0958333 15.2167 0 15.5 0C15.7833 0 16.0208 0.0958333 16.2125 0.2875C16.4042 0.479167 16.5 0.716667 16.5 1V2H17.5C17.7833 2 18.0208 2.09583 18.2125 2.2875C18.4042 2.47917 18.5 2.71667 18.5 3C18.5 3.28333 18.4042 3.52083 18.2125 3.7125C18.0208 3.90417 17.7833 4 17.5 4H16.5V5C16.5 5.28333 16.4042 5.52083 16.2125 5.7125C16.0208 5.90417 15.7833 6 15.5 6Z" fill="#393939"/>
</svg>
