<svg width="54" height="54" viewBox="0 0 54 54" fill="none" xmlns="http://www.w3.org/2000/svg">
<g id="Component 10">
<mask id="mask0_6571_12157" style="mask-type:alpha" maskUnits="userSpaceOnUse" x="0" y="0" width="54" height="54">
<rect id="Bounding box" width="54" height="54" fill="#D9D9D9"/>
</mask>
<g mask="url(#mask0_6571_12157)">
<g id="release_alert">
<path d="M18.3377 48.9386L15.0752 43.4261L8.8877 42.0761C8.3252 41.9636 7.8752 41.6729 7.5377 41.2042C7.2002 40.7354 7.06895 40.2198 7.14395 39.6573L7.7627 33.3011L3.54395 28.4636C3.16895 28.0511 2.98145 27.5636 2.98145 27.0011C2.98145 26.4386 3.16895 25.9511 3.54395 25.5386L7.7627 20.7011L7.14395 14.3448C7.06895 13.7823 7.2002 13.2667 7.5377 12.7979C7.8752 12.3292 8.3252 12.0386 8.8877 11.9261L15.0752 10.5761L18.3377 5.06356C18.6377 4.57606 19.0502 4.24794 19.5752 4.07919C20.1002 3.91044 20.6252 3.93856 21.1502 4.16356L27.0002 6.63856L32.8502 4.16356C33.3752 3.93856 33.9002 3.91044 34.4252 4.07919C34.9502 4.24794 35.3627 4.57606 35.6627 5.06356L38.9252 10.5761L45.1127 11.9261C45.6752 12.0386 46.1252 12.3292 46.4627 12.7979C46.8002 13.2667 46.9314 13.7823 46.8564 14.3448L46.2377 20.7011L50.4564 25.5386C50.8314 25.9511 51.0189 26.4386 51.0189 27.0011C51.0189 27.5636 50.8314 28.0511 50.4564 28.4636L46.2377 33.3011L46.8564 39.6573C46.9314 40.2198 46.8002 40.7354 46.4627 41.2042C46.1252 41.6729 45.6752 41.9636 45.1127 42.0761L38.9252 43.4261L35.6627 48.9386C35.3627 49.4261 34.9502 49.7542 34.4252 49.9229C33.9002 50.0917 33.3752 50.0636 32.8502 49.8386L27.0002 47.3636L21.1502 49.8386C20.6252 50.0636 20.1002 50.0917 19.5752 49.9229C19.0502 49.7542 18.6377 49.4261 18.3377 48.9386ZM27.0002 38.2511C27.6377 38.2511 28.1721 38.0354 28.6033 37.6042C29.0346 37.1729 29.2502 36.6386 29.2502 36.0011C29.2502 35.3636 29.0346 34.8292 28.6033 34.3979C28.1721 33.9667 27.6377 33.7511 27.0002 33.7511C26.3627 33.7511 25.8283 33.9667 25.3971 34.3979C24.9658 34.8292 24.7502 35.3636 24.7502 36.0011C24.7502 36.6386 24.9658 37.1729 25.3971 37.6042C25.8283 38.0354 26.3627 38.2511 27.0002 38.2511ZM27.0002 29.2511C27.6377 29.2511 28.1721 29.0354 28.6033 28.6042C29.0346 28.1729 29.2502 27.6386 29.2502 27.0011V18.0011C29.2502 17.3636 29.0346 16.8292 28.6033 16.3979C28.1721 15.9667 27.6377 15.7511 27.0002 15.7511C26.3627 15.7511 25.8283 15.9667 25.3971 16.3979C24.9658 16.8292 24.7502 17.3636 24.7502 18.0011V27.0011C24.7502 27.6386 24.9658 28.1729 25.3971 28.6042C25.8283 29.0354 26.3627 29.2511 27.0002 29.2511Z" fill="#E20814"/>
<path d="M27.0002 29.2511C27.6377 29.2511 28.1721 29.0354 28.6033 28.6042C29.0346 28.1729 29.2502 27.6386 29.2502 27.0011V18.0011C29.2502 17.3636 29.0346 16.8292 28.6033 16.3979C28.1721 15.9667 27.6377 15.7511 27.0002 15.7511C26.3627 15.7511 25.8283 15.9667 25.3971 16.3979C24.9658 16.8292 24.7502 17.3636 24.7502 18.0011V27.0011C24.7502 27.6386 24.9658 28.1729 25.3971 28.6042C25.8283 29.0354 26.3627 29.2511 27.0002 29.2511Z" fill="#E20814"/>
<path d="M27.0002 38.2511C27.6377 38.2511 28.1721 38.0354 28.6033 37.6042C29.0346 37.1729 29.2502 36.6386 29.2502 36.0011C29.2502 35.3636 29.0346 34.8292 28.6033 34.3979C28.1721 33.9667 27.6377 33.7511 27.0002 33.7511C26.3627 33.7511 25.8283 33.9667 25.3971 34.3979C24.9658 34.8292 24.7502 35.3636 24.7502 36.0011C24.7502 36.6386 24.9658 37.1729 25.3971 37.6042C25.8283 38.0354 26.3627 38.2511 27.0002 38.2511Z" fill="#DA1E28"/>
<path d="M27 30.1498L33.525 36.6748C33.9375 37.0873 34.4625 37.2936 35.1 37.2936C35.7375 37.2936 36.2625 37.0873 36.675 36.6748C37.0875 36.2623 37.2938 35.7373 37.2938 35.0998C37.2938 34.4623 37.0875 33.9373 36.675 33.5248L30.15 26.9998L36.675 20.4748C37.0875 20.0623 37.2938 19.5373 37.2938 18.8998C37.2938 18.2623 37.0875 17.7373 36.675 17.3248C36.2625 16.9123 35.7375 16.7061 35.1 16.7061C34.4625 16.7061 33.9375 16.9123 33.525 17.3248L27 23.8498L20.475 17.3248C20.0625 16.9123 19.5375 16.7061 18.9 16.7061C18.2625 16.7061 17.7375 16.9123 17.325 17.3248C16.9125 17.7373 16.7063 18.2623 16.7063 18.8998C16.7063 19.5373 16.9125 20.0623 17.325 20.4748L23.85 26.9998L17.325 33.5248C16.9125 33.9373 16.7063 34.4623 16.7063 35.0998C16.7063 35.7373 16.9125 36.2623 17.325 36.6748C17.7375 37.0873 18.2625 37.2936 18.9 37.2936C19.5375 37.2936 20.0625 37.0873 20.475 36.6748L27 30.1498Z" fill="white"/>
</g>
</g>
</g>
</svg>
