<svg width="54" height="54" viewBox="0 0 54 54" fill="none" xmlns="http://www.w3.org/2000/svg">
<g id="Component 10">
<mask id="mask0_6527_8080" style="mask-type:alpha" maskUnits="userSpaceOnUse" x="0" y="0" width="54" height="54">
<rect id="Bounding box" width="54" height="54" fill="#D9D9D9"/>
</mask>
<g mask="url(#mask0_6527_8080)">
<path id="new_releases" d="M24.6377 28.5751L21.3752 25.3688C20.9627 24.9563 20.4471 24.7501 19.8283 24.7501C19.2096 24.7501 18.6752 24.9751 18.2252 25.4251C17.8127 25.8376 17.6064 26.3626 17.6064 27.0001C17.6064 27.6376 17.8127 28.1626 18.2252 28.5751L23.0627 33.4126C23.5127 33.8626 24.0377 34.0876 24.6377 34.0876C25.2377 34.0876 25.7627 33.8626 26.2127 33.4126L35.7752 23.8501C36.2252 23.4001 36.4408 22.8751 36.4221 22.2751C36.4033 21.6751 36.1877 21.1501 35.7752 20.7001C35.3252 20.2501 34.7908 20.0157 34.1721 19.997C33.5533 19.9782 33.0189 20.1938 32.5689 20.6438L24.6377 28.5751ZM18.3377 48.9376L15.0752 43.4251L8.8877 42.0751C8.3252 41.9626 7.8752 41.672 7.5377 41.2032C7.2002 40.7345 7.06895 40.2188 7.14395 39.6563L7.7627 33.3001L3.54395 28.4626C3.16895 28.0501 2.98145 27.5626 2.98145 27.0001C2.98145 26.4376 3.16895 25.9501 3.54395 25.5376L7.7627 20.7001L7.14395 14.3438C7.06895 13.7813 7.2002 13.2657 7.5377 12.797C7.8752 12.3282 8.3252 12.0376 8.8877 11.9251L15.0752 10.5751L18.3377 5.06258C18.6377 4.57508 19.0502 4.24696 19.5752 4.07821C20.1002 3.90946 20.6252 3.93758 21.1502 4.16258L27.0002 6.63758L32.8502 4.16258C33.3752 3.93758 33.9002 3.90946 34.4252 4.07821C34.9502 4.24696 35.3627 4.57508 35.6627 5.06258L38.9252 10.5751L45.1127 11.9251C45.6752 12.0376 46.1252 12.3282 46.4627 12.797C46.8002 13.2657 46.9314 13.7813 46.8564 14.3438L46.2377 20.7001L50.4564 25.5376C50.8314 25.9501 51.0189 26.4376 51.0189 27.0001C51.0189 27.5626 50.8314 28.0501 50.4564 28.4626L46.2377 33.3001L46.8564 39.6563C46.9314 40.2188 46.8002 40.7345 46.4627 41.2032C46.1252 41.672 45.6752 41.9626 45.1127 42.0751L38.9252 43.4251L35.6627 48.9376C35.3627 49.4251 34.9502 49.7532 34.4252 49.922C33.9002 50.0907 33.3752 50.0626 32.8502 49.8376L27.0002 47.3626L21.1502 49.8376C20.6252 50.0626 20.1002 50.0907 19.5752 49.922C19.0502 49.7532 18.6377 49.4251 18.3377 48.9376Z" fill="#24A148"/>
</g>
</g>
</svg>
