<svg width="108" height="108" viewBox="0 0 108 108" fill="none" xmlns="http://www.w3.org/2000/svg">
<g id="warning">
<mask id="mask0_5624_77430" style="mask-type:alpha" maskUnits="userSpaceOnUse" x="0" y="0" width="108" height="108">
<rect id="Bounding box" width="108" height="108" fill="#D9D9D9"/>
</mask>
<g mask="url(#mask0_5624_77430)">
<path id="warning_2" d="M12.2616 94.5C11.4366 94.5 10.6866 94.2938 10.0116 93.8813C9.33655 93.4688 8.81155 92.925 8.43655 92.25C8.06155 91.575 7.8553 90.8438 7.8178 90.0563C7.7803 89.2688 7.98655 88.5 8.43655 87.75L50.0616 15.75C50.5116 15 51.0928 14.4375 51.8053 14.0625C52.5178 13.6875 53.2491 13.5 53.9991 13.5C54.7491 13.5 55.4803 13.6875 56.1928 14.0625C56.9053 14.4375 57.4866 15 57.9366 15.75L99.5616 87.75C100.012 88.5 100.218 89.2688 100.18 90.0563C100.143 90.8438 99.9366 91.575 99.5616 92.25C99.1866 92.925 98.6616 93.4688 97.9866 93.8813C97.3116 94.2938 96.5616 94.5 95.7366 94.5H12.2616ZM53.9991 81C55.2741 81 56.3428 80.5688 57.2053 79.7063C58.0678 78.8438 58.4991 77.775 58.4991 76.5C58.4991 75.225 58.0678 74.1562 57.2053 73.2938C56.3428 72.4313 55.2741 72 53.9991 72C52.7241 72 51.6553 72.4313 50.7928 73.2938C49.9303 74.1562 49.4991 75.225 49.4991 76.5C49.4991 77.775 49.9303 78.8438 50.7928 79.7063C51.6553 80.5688 52.7241 81 53.9991 81ZM53.9991 67.5C55.2741 67.5 56.3428 67.0688 57.2053 66.2063C58.0678 65.3438 58.4991 64.275 58.4991 63V49.5C58.4991 48.225 58.0678 47.1562 57.2053 46.2938C56.3428 45.4312 55.2741 45 53.9991 45C52.7241 45 51.6553 45.4312 50.7928 46.2938C49.9303 47.1562 49.4991 48.225 49.4991 49.5V63C49.4991 64.275 49.9303 65.3438 50.7928 66.2063C51.6553 67.0688 52.7241 67.5 53.9991 67.5Z" fill="#E20814"/>
</g>
</g>
</svg>
