<svg width="14" height="14" viewBox="0 0 14 14" fill="none" xmlns="http://www.w3.org/2000/svg">
<circle cx="6.665" cy="6.665" r="6.665" fill="#F9C23C"/>
<path d="M7.75 3C7.75 2.58579 7.41421 2.25 7 2.25C6.58579 2.25 6.25 2.58579 6.25 3H7.75ZM6.25 6V6.75H7.75V6H6.25ZM6.25 3V6H7.75V3H6.25Z" fill="white"/>
<path d="M3.58397 8.37596C3.23933 8.60573 3.1462 9.07138 3.37596 9.41603C3.60573 9.76067 4.07138 9.8538 4.41603 9.62404L3.58397 8.37596ZM7.41603 7.62404L8.04006 7.20801L7.20801 5.95994L6.58397 6.37596L7.41603 7.62404ZM4.41603 9.62404L7.41603 7.62404L6.58397 6.37596L3.58397 8.37596L4.41603 9.62404Z" fill="white"/>
<rect x="7.75" y="6" width="1" height="2" fill="#F9C23C"/>
</svg>
