<svg xmlns="http://www.w3.org/2000/svg" width="25" height="24" viewBox="0 0 25 24" fill="none">
  <mask id="mask0_572_67718" style="mask-type:alpha" maskUnits="userSpaceOnUse" x="0" y="0" width="25" height="24">
    <rect x="0.5" width="24" height="24" fill="#D9D9D9"/>
  </mask>
  <g mask="url(#mask0_572_67718)">
    <path d="M4.49997 12.025C4.49997 13.4417 4.85414 14.7583 5.56247 15.975C6.27081 17.1917 7.23331 18.1667 8.44997 18.9C8.68331 19.05 8.84581 19.2542 8.93747 19.5125C9.02914 19.7708 9.00831 20.0167 8.87497 20.25C8.74164 20.5 8.53747 20.6625 8.26247 20.7375C7.98747 20.8125 7.72497 20.7833 7.47497 20.65C5.92497 19.75 4.70831 18.5333 3.82497 17C2.94164 15.4667 2.49997 13.8083 2.49997 12.025C2.49997 11.5917 2.52914 11.1667 2.58747 10.75C2.64581 10.3333 2.72497 9.91667 2.82497 9.5L2.49997 9.7C2.26664 9.85 2.01664 9.8875 1.74997 9.8125C1.48331 9.7375 1.28331 9.58333 1.14997 9.35C1.01664 9.11667 0.987473 8.8625 1.06247 8.5875C1.13747 8.3125 1.29164 8.10833 1.52497 7.975L4.54997 6.225C4.78331 6.09167 5.03747 6.0625 5.31247 6.1375C5.58747 6.2125 5.79164 6.36667 5.92497 6.6L7.67497 9.6C7.80831 9.83333 7.83747 10.0875 7.76247 10.3625C7.68747 10.6375 7.53331 10.8417 7.29997 10.975C7.06664 11.1083 6.81247 11.1375 6.53747 11.0625C6.26247 10.9875 6.05831 10.8333 5.92497 10.6L5.07497 9.125C4.89164 9.59167 4.74997 10.0667 4.64997 10.55C4.54997 11.0333 4.49997 11.525 4.49997 12.025ZM12.5 4C11.8166 4 11.1416 4.0875 10.475 4.2625C9.80831 4.4375 9.17497 4.69167 8.57497 5.025C8.32497 5.15833 8.06247 5.20417 7.78747 5.1625C7.51247 5.12083 7.30831 4.98333 7.17497 4.75C7.02497 4.48333 6.99164 4.2125 7.07497 3.9375C7.15831 3.6625 7.33331 3.45 7.59997 3.3C8.34997 2.86667 9.13747 2.54167 9.96247 2.325C10.7875 2.10833 11.6333 2 12.5 2C13.8166 2 15.0791 2.24583 16.2875 2.7375C17.4958 3.22917 18.575 3.94167 19.525 4.875V4.5C19.525 4.21667 19.6208 3.97917 19.8125 3.7875C20.0041 3.59583 20.2416 3.5 20.525 3.5C20.8083 3.5 21.0458 3.59583 21.2375 3.7875C21.4291 3.97917 21.525 4.21667 21.525 4.5V8C21.525 8.28333 21.4291 8.52083 21.2375 8.7125C21.0458 8.90417 20.8083 9 20.525 9H17.025C16.7416 9 16.5041 8.90417 16.3125 8.7125C16.1208 8.52083 16.025 8.28333 16.025 8C16.025 7.71667 16.1208 7.47917 16.3125 7.2875C16.5041 7.09583 16.7416 7 17.025 7H18.75C17.9833 6.05 17.0583 5.3125 15.975 4.7875C14.8916 4.2625 13.7333 4 12.5 4ZM18.55 17.275C19.1833 16.5417 19.6666 15.7333 20 14.85C20.3333 13.9667 20.5 13.0417 20.5 12.075C20.5 11.7917 20.5958 11.5417 20.7875 11.325C20.9791 11.1083 21.2166 11 21.5 11C21.7833 11 22.0208 11.1083 22.2125 11.325C22.4041 11.5417 22.5 11.7917 22.5 12.075C22.5 13.1583 22.3291 14.2042 21.9875 15.2125C21.6458 16.2208 21.15 17.1583 20.5 18.025C19.85 18.8917 19.0791 19.6333 18.1875 20.25C17.2958 20.8667 16.325 21.325 15.275 21.625L15.525 21.775C15.7583 21.9083 15.9083 22.1125 15.975 22.3875C16.0416 22.6625 16.0083 22.9167 15.875 23.15C15.7416 23.3833 15.5416 23.5333 15.275 23.6C15.0083 23.6667 14.7583 23.6333 14.525 23.5L11.475 21.75C11.2416 21.6167 11.0875 21.4125 11.0125 21.1375C10.9375 20.8625 10.9666 20.6083 11.1 20.375L12.85 17.35C12.9833 17.1167 13.1833 16.9667 13.45 16.9C13.7166 16.8333 13.9666 16.8667 14.2 17C14.4333 17.1333 14.5875 17.3375 14.6625 17.6125C14.7375 17.8875 14.7083 18.1417 14.575 18.375L13.65 19.95C14.6 19.8167 15.4958 19.5208 16.3375 19.0625C17.1791 18.6042 17.9166 18.0083 18.55 17.275Z" fill="#284093"/>
  </g>
</svg>