<svg xmlns="http://www.w3.org/2000/svg" width="25" height="24" viewBox="0 0 25 24" fill="none">
  <mask id="mask0_572_67729" style="mask-type:alpha" maskUnits="userSpaceOnUse" x="0" y="0" width="25" height="24">
    <rect x="0.5" width="24" height="24" fill="#D9D9D9"/>
  </mask>
  <g mask="url(#mask0_572_67729)">
    <path d="M9.5 15C7.83333 15 6.41667 14.4167 5.25 13.25C4.08333 12.0833 3.5 10.6667 3.5 9C3.5 8.66667 3.525 8.33333 3.575 8C3.625 7.66667 3.71667 7.35 3.85 7.05C3.93333 6.88333 4.0375 6.75833 4.1625 6.675C4.2875 6.59167 4.425 6.53333 4.575 6.5C4.725 6.46667 4.87917 6.47083 5.0375 6.5125C5.19583 6.55417 5.34167 6.64167 5.475 6.775L8.1 9.4L9.9 7.6L7.275 4.975C7.14167 4.84167 7.05417 4.69583 7.0125 4.5375C6.97083 4.37917 6.96667 4.225 7 4.075C7.03333 3.925 7.09167 3.7875 7.175 3.6625C7.25833 3.5375 7.38333 3.43333 7.55 3.35C7.85 3.21667 8.16667 3.125 8.5 3.075C8.83333 3.025 9.16667 3 9.5 3C11.1667 3 12.5833 3.58333 13.75 4.75C14.9167 5.91667 15.5 7.33333 15.5 9C15.5 9.38333 15.4667 9.74583 15.4 10.0875C15.3333 10.4292 15.2333 10.7667 15.1 11.1L20.15 16.1C20.6333 16.5833 20.875 17.175 20.875 17.875C20.875 18.575 20.6333 19.1667 20.15 19.65C19.6667 20.1333 19.075 20.375 18.375 20.375C17.675 20.375 17.0833 20.125 16.6 19.625L11.6 14.6C11.2667 14.7333 10.9292 14.8333 10.5875 14.9C10.2458 14.9667 9.88333 15 9.5 15ZM9.5 13C9.93333 13 10.3667 12.9333 10.8 12.8C11.2333 12.6667 11.625 12.4583 11.975 12.175L18.05 18.25C18.1333 18.3333 18.2458 18.3708 18.3875 18.3625C18.5292 18.3542 18.6417 18.3083 18.725 18.225C18.8083 18.1417 18.85 18.0292 18.85 17.8875C18.85 17.7458 18.8083 17.6333 18.725 17.55L12.65 11.5C12.95 11.1667 13.1667 10.7792 13.3 10.3375C13.4333 9.89583 13.5 9.45 13.5 9C13.5 8 13.1792 7.12917 12.5375 6.3875C11.8958 5.64583 11.1 5.2 10.15 5.05L12 6.9C12.2 7.1 12.3 7.33333 12.3 7.6C12.3 7.86667 12.2 8.1 12 8.3L8.8 11.5C8.6 11.7 8.36667 11.8 8.1 11.8C7.83333 11.8 7.6 11.7 7.4 11.5L5.55 9.65C5.7 10.6 6.14583 11.3958 6.8875 12.0375C7.62917 12.6792 8.5 13 9.5 13Z" fill="#284093"/>
  </g>
</svg>