<svg xmlns="http://www.w3.org/2000/svg" width="25" height="24" viewBox="0 0 25 24" fill="none">
  <mask id="mask0_572_67722" style="mask-type:alpha" maskUnits="userSpaceOnUse" x="0" y="0" width="25" height="24">
    <path d="M0.5 0H24.5V24H0.5V0Z" fill="#D9D9D9"/>
  </mask>
  <g mask="url(#mask0_572_67722)">
    <path d="M5.5 21C4.95 21 4.47917 20.8042 4.0875 20.4125C3.69583 20.0208 3.5 19.55 3.5 19V5C3.5 4.45 3.69583 3.97917 4.0875 3.5875C4.47917 3.19583 4.95 3 5.5 3H9.7C9.91667 2.4 10.2792 1.91667 10.7875 1.55C11.2958 1.18333 11.8667 1 12.5 1C13.1333 1 13.7042 1.18333 14.2125 1.55C14.7208 1.91667 15.0833 2.4 15.3 3H19.5C20.05 3 20.5208 3.19583 20.9125 3.5875C21.3042 3.97917 21.5 4.45 21.5 5V10.025C21.5 10.3083 21.4042 10.5458 21.2125 10.7375C21.0208 10.9292 20.7833 11.025 20.5 11.025C20.2167 11.025 19.9792 10.9292 19.7875 10.7375C19.5958 10.5458 19.5 10.3083 19.5 10.025V5H5.5V19H10.5C10.7833 19 11.0208 19.0958 11.2125 19.2875C11.4042 19.4792 11.5 19.7167 11.5 20C11.5 20.2833 11.4042 20.5208 11.2125 20.7125C11.0208 20.9042 10.7833 21 10.5 21H5.5ZM5.5 19V5V11.075V11V19ZM8.5 17H11C11.2833 17 11.5208 16.9042 11.7125 16.7125C11.9042 16.5208 12 16.2833 12 16C12 15.7167 11.9042 15.4792 11.7125 15.2875C11.5208 15.0958 11.2833 15 11 15H8.5C8.21667 15 7.97917 15.0958 7.7875 15.2875C7.59583 15.4792 7.5 15.7167 7.5 16C7.5 16.2833 7.59583 16.5208 7.7875 16.7125C7.97917 16.9042 8.21667 17 8.5 17ZM8.5 13H13.5C13.7833 13 14.0208 12.9042 14.2125 12.7125C14.4042 12.5208 14.5 12.2833 14.5 12C14.5 11.7167 14.4042 11.4792 14.2125 11.2875C14.0208 11.0958 13.7833 11 13.5 11H8.5C8.21667 11 7.97917 11.0958 7.7875 11.2875C7.59583 11.4792 7.5 11.7167 7.5 12C7.5 12.2833 7.59583 12.5208 7.7875 12.7125C7.97917 12.9042 8.21667 13 8.5 13ZM8.5 9H16.5C16.7833 9 17.0208 8.90417 17.2125 8.7125C17.4042 8.52083 17.5 8.28333 17.5 8C17.5 7.71667 17.4042 7.47917 17.2125 7.2875C17.0208 7.09583 16.7833 7 16.5 7H8.5C8.21667 7 7.97917 7.09583 7.7875 7.2875C7.59583 7.47917 7.5 7.71667 7.5 8C7.5 8.28333 7.59583 8.52083 7.7875 8.7125C7.97917 8.90417 8.21667 9 8.5 9ZM12.5 4.25C12.7167 4.25 12.8958 4.17917 13.0375 4.0375C13.1792 3.89583 13.25 3.71667 13.25 3.5C13.25 3.28333 13.1792 3.10417 13.0375 2.9625C12.8958 2.82083 12.7167 2.75 12.5 2.75C12.2833 2.75 12.1042 2.82083 11.9625 2.9625C11.8208 3.10417 11.75 3.28333 11.75 3.5C11.75 3.71667 11.8208 3.89583 11.9625 4.0375C12.1042 4.17917 12.2833 4.25 12.5 4.25Z" fill="#284093"/>
    <path d="M20.6795 17.4546L19.1773 18.9636C19.0894 19.0515 19.0417 19.1553 19.0341 19.275C19.0265 19.3947 19.0742 19.5061 19.1773 19.6091C19.2803 19.7121 19.3879 19.7636 19.5 19.7636C19.6121 19.7636 19.7197 19.7121 19.8227 19.6091L21.7637 17.6682C21.9546 17.4773 22.05 17.2545 22.05 17C22.05 16.7455 21.9546 16.5227 21.7637 16.3318L19.8227 14.3909C19.7349 14.303 19.6311 14.2553 19.5114 14.2477C19.3917 14.2402 19.2803 14.2879 19.1773 14.3909C19.0742 14.4939 19.0227 14.6015 19.0227 14.7137C19.0227 14.8258 19.0742 14.9333 19.1773 15.0364L20.7091 16.5455H17C16.8727 16.5455 16.7652 16.5894 16.6773 16.6773C16.5894 16.7652 16.5455 16.8727 16.5455 17C16.5455 17.1273 16.5894 17.2349 16.6773 17.3227C16.7652 17.4106 16.8727 17.4546 17 17.4546H20.6795ZM19.5 22C18.1227 22 16.9451 21.511 15.967 20.533C14.989 19.5549 14.5 18.3773 14.5 17C14.5 15.6227 14.989 14.4451 15.967 13.467C16.9451 12.489 18.1227 12 19.5 12C20.8773 12 22.0549 12.489 23.033 13.467C24.011 14.4451 24.5 15.6227 24.5 17C24.5 18.3773 24.011 19.5549 23.033 20.533C22.0549 21.511 20.8773 22 19.5 22Z" fill="#284093"/>
  </g>
</svg>