<svg width="167" height="108" viewBox="0 0 167 108" fill="none" xmlns="http://www.w3.org/2000/svg">
<rect x="1" y="0.5" width="165.5" height="107" rx="3.5" fill="#F2F6FD"/>
<rect x="1" y="0.5" width="165.5" height="107" rx="3.5" stroke="#284093" stroke-dasharray="4 4"/>
<mask id="mask0_6003_65077" style="mask-type:alpha" maskUnits="userSpaceOnUse" x="71" y="32" width="25" height="24">
<rect x="71.75" y="32" width="24" height="24" fill="#D9D9D9"/>
</mask>
<g mask="url(#mask0_6003_65077)">
<path d="M82.75 45H77.75C77.4667 45 77.2292 44.9042 77.0375 44.7125C76.8458 44.5208 76.75 44.2833 76.75 44C76.75 43.7167 76.8458 43.4792 77.0375 43.2875C77.2292 43.0958 77.4667 43 77.75 43H82.75V38C82.75 37.7167 82.8458 37.4792 83.0375 37.2875C83.2292 37.0958 83.4667 37 83.75 37C84.0333 37 84.2708 37.0958 84.4625 37.2875C84.6542 37.4792 84.75 37.7167 84.75 38V43H89.75C90.0333 43 90.2708 43.0958 90.4625 43.2875C90.6542 43.4792 90.75 43.7167 90.75 44C90.75 44.2833 90.6542 44.5208 90.4625 44.7125C90.2708 44.9042 90.0333 45 89.75 45H84.75V50C84.75 50.2833 84.6542 50.5208 84.4625 50.7125C84.2708 50.9042 84.0333 51 83.75 51C83.4667 51 83.2292 50.9042 83.0375 50.7125C82.8458 50.5208 82.75 50.2833 82.75 50V45Z" fill="#284093"/>
</g>
<path d="M36.2893 70.296H32.7973L32.1973 72H30.7693L33.7573 63.648H35.3413L38.3293 72H36.8893L36.2893 70.296ZM35.9053 69.18L34.5493 65.304L33.1813 69.18H35.9053ZM39.6725 68.664C39.6725 68 39.8085 67.412 40.0805 66.9C40.3605 66.388 40.7365 65.992 41.2085 65.712C41.6885 65.424 42.2205 65.28 42.8045 65.28C43.2365 65.28 43.6605 65.376 44.0765 65.568C44.5005 65.752 44.8365 66 45.0845 66.312V63.12H46.4645V72H45.0845V71.004C44.8605 71.324 44.5485 71.588 44.1485 71.796C43.7565 72.004 43.3045 72.108 42.7925 72.108C42.2165 72.108 41.6885 71.964 41.2085 71.676C40.7365 71.38 40.3605 70.972 40.0805 70.452C39.8085 69.924 39.6725 69.328 39.6725 68.664ZM45.0845 68.688C45.0845 68.232 44.9885 67.836 44.7965 67.5C44.6125 67.164 44.3685 66.908 44.0645 66.732C43.7605 66.556 43.4325 66.468 43.0805 66.468C42.7285 66.468 42.4005 66.556 42.0965 66.732C41.7925 66.9 41.5445 67.152 41.3525 67.488C41.1685 67.816 41.0765 68.208 41.0765 68.664C41.0765 69.12 41.1685 69.52 41.3525 69.864C41.5445 70.208 41.7925 70.472 42.0965 70.656C42.4085 70.832 42.7365 70.92 43.0805 70.92C43.4325 70.92 43.7605 70.832 44.0645 70.656C44.3685 70.48 44.6125 70.224 44.7965 69.888C44.9885 69.544 45.0845 69.144 45.0845 68.688ZM48.3053 68.664C48.3053 68 48.4413 67.412 48.7133 66.9C48.9933 66.388 49.3693 65.992 49.8413 65.712C50.3213 65.424 50.8533 65.28 51.4373 65.28C51.8693 65.28 52.2933 65.376 52.7093 65.568C53.1333 65.752 53.4693 66 53.7173 66.312V63.12H55.0973V72H53.7173V71.004C53.4933 71.324 53.1813 71.588 52.7813 71.796C52.3893 72.004 51.9373 72.108 51.4253 72.108C50.8493 72.108 50.3213 71.964 49.8413 71.676C49.3693 71.38 48.9933 70.972 48.7133 70.452C48.4413 69.924 48.3053 69.328 48.3053 68.664ZM53.7173 68.688C53.7173 68.232 53.6213 67.836 53.4293 67.5C53.2453 67.164 53.0013 66.908 52.6973 66.732C52.3933 66.556 52.0653 66.468 51.7133 66.468C51.3613 66.468 51.0333 66.556 50.7293 66.732C50.4253 66.9 50.1773 67.152 49.9853 67.488C49.8013 67.816 49.7093 68.208 49.7093 68.664C49.7093 69.12 49.8013 69.52 49.9853 69.864C50.1773 70.208 50.4253 70.472 50.7293 70.656C51.0413 70.832 51.3693 70.92 51.7133 70.92C52.0653 70.92 52.3933 70.832 52.6973 70.656C53.0013 70.48 53.2453 70.224 53.4293 69.888C53.6213 69.544 53.7173 69.144 53.7173 68.688ZM62.3793 66.372C62.6113 66.052 62.9273 65.792 63.3273 65.592C63.7353 65.384 64.1873 65.28 64.6833 65.28C65.2673 65.28 65.7953 65.42 66.2673 65.7C66.7393 65.98 67.1113 66.38 67.3833 66.9C67.6553 67.412 67.7913 68 67.7913 68.664C67.7913 69.328 67.6553 69.924 67.3833 70.452C67.1113 70.972 66.7353 71.38 66.2553 71.676C65.7833 71.964 65.2593 72.108 64.6833 72.108C64.1713 72.108 63.7153 72.008 63.3153 71.808C62.9233 71.608 62.6113 71.352 62.3793 71.04V72H61.0113V63.12H62.3793V66.372ZM66.3993 68.664C66.3993 68.208 66.3033 67.816 66.1113 67.488C65.9273 67.152 65.6793 66.9 65.3673 66.732C65.0633 66.556 64.7353 66.468 64.3833 66.468C64.0393 66.468 63.7113 66.556 63.3993 66.732C63.0953 66.908 62.8473 67.164 62.6553 67.5C62.4713 67.836 62.3793 68.232 62.3793 68.688C62.3793 69.144 62.4713 69.544 62.6553 69.888C62.8473 70.224 63.0953 70.48 63.3993 70.656C63.7113 70.832 64.0393 70.92 64.3833 70.92C64.7353 70.92 65.0633 70.832 65.3673 70.656C65.6793 70.472 65.9273 70.208 66.1113 69.864C66.3033 69.52 66.3993 69.12 66.3993 68.664ZM69.1881 68.664C69.1881 68 69.3241 67.412 69.5961 66.9C69.8761 66.388 70.2521 65.992 70.7241 65.712C71.2041 65.424 71.7321 65.28 72.3081 65.28C72.8281 65.28 73.2801 65.384 73.6641 65.592C74.0561 65.792 74.3681 66.044 74.6001 66.348V65.388H75.9801V72H74.6001V71.016C74.3681 71.328 74.0521 71.588 73.6521 71.796C73.2521 72.004 72.7961 72.108 72.2841 72.108C71.7161 72.108 71.1961 71.964 70.7241 71.676C70.2521 71.38 69.8761 70.972 69.5961 70.452C69.3241 69.924 69.1881 69.328 69.1881 68.664ZM74.6001 68.688C74.6001 68.232 74.5041 67.836 74.3121 67.5C74.1281 67.164 73.8841 66.908 73.5801 66.732C73.2761 66.556 72.9481 66.468 72.5961 66.468C72.2441 66.468 71.9161 66.556 71.6121 66.732C71.3081 66.9 71.0601 67.152 70.8681 67.488C70.6841 67.816 70.5921 68.208 70.5921 68.664C70.5921 69.12 70.6841 69.52 70.8681 69.864C71.0601 70.208 71.3081 70.472 71.6121 70.656C71.9241 70.832 72.2521 70.92 72.5961 70.92C72.9481 70.92 73.2761 70.832 73.5801 70.656C73.8841 70.48 74.1281 70.224 74.3121 69.888C74.5041 69.544 74.6001 69.144 74.6001 68.688ZM77.821 68.688C77.821 68.008 77.957 67.412 78.229 66.9C78.509 66.38 78.893 65.98 79.381 65.7C79.869 65.42 80.429 65.28 81.061 65.28C81.861 65.28 82.521 65.472 83.041 65.856C83.569 66.232 83.925 66.772 84.109 67.476H82.633C82.513 67.148 82.321 66.892 82.057 66.708C81.793 66.524 81.461 66.432 81.061 66.432C80.501 66.432 80.053 66.632 79.717 67.032C79.389 67.424 79.225 67.976 79.225 68.688C79.225 69.4 79.389 69.956 79.717 70.356C80.053 70.756 80.501 70.956 81.061 70.956C81.853 70.956 82.377 70.608 82.633 69.912H84.109C83.917 70.584 83.557 71.12 83.029 71.52C82.501 71.912 81.845 72.108 81.061 72.108C80.429 72.108 79.869 71.968 79.381 71.688C78.893 71.4 78.509 71 78.229 70.488C77.957 69.968 77.821 69.368 77.821 68.688ZM88.5883 68.7L91.6363 72H89.7883L87.3403 69.156V72H85.9723V63.12H87.3403V68.28L89.7403 65.388H91.6363L88.5883 68.7ZM98.102 63.66V72H96.734V63.66H98.102ZM108.402 65.28C108.922 65.28 109.386 65.388 109.794 65.604C110.21 65.82 110.534 66.14 110.766 66.564C111.006 66.988 111.126 67.5 111.126 68.1V72H109.77V68.304C109.77 67.712 109.622 67.26 109.326 66.948C109.03 66.628 108.626 66.468 108.114 66.468C107.602 66.468 107.194 66.628 106.89 66.948C106.594 67.26 106.446 67.712 106.446 68.304V72H105.09V68.304C105.09 67.712 104.942 67.26 104.646 66.948C104.35 66.628 103.946 66.468 103.434 66.468C102.922 66.468 102.514 66.628 102.21 66.948C101.914 67.26 101.766 67.712 101.766 68.304V72H100.398V65.388H101.766V66.144C101.99 65.872 102.274 65.66 102.618 65.508C102.962 65.356 103.33 65.28 103.722 65.28C104.25 65.28 104.722 65.392 105.138 65.616C105.554 65.84 105.874 66.164 106.098 66.588C106.298 66.188 106.61 65.872 107.034 65.64C107.458 65.4 107.914 65.28 108.402 65.28ZM112.911 68.664C112.911 68 113.047 67.412 113.319 66.9C113.599 66.388 113.975 65.992 114.447 65.712C114.927 65.424 115.455 65.28 116.031 65.28C116.551 65.28 117.003 65.384 117.387 65.592C117.779 65.792 118.091 66.044 118.323 66.348V65.388H119.703V72H118.323V71.016C118.091 71.328 117.775 71.588 117.375 71.796C116.975 72.004 116.519 72.108 116.007 72.108C115.439 72.108 114.919 71.964 114.447 71.676C113.975 71.38 113.599 70.972 113.319 70.452C113.047 69.924 112.911 69.328 112.911 68.664ZM118.323 68.688C118.323 68.232 118.227 67.836 118.035 67.5C117.851 67.164 117.607 66.908 117.303 66.732C116.999 66.556 116.671 66.468 116.319 66.468C115.967 66.468 115.639 66.556 115.335 66.732C115.031 66.9 114.783 67.152 114.591 67.488C114.407 67.816 114.315 68.208 114.315 68.664C114.315 69.12 114.407 69.52 114.591 69.864C114.783 70.208 115.031 70.472 115.335 70.656C115.647 70.832 115.975 70.92 116.319 70.92C116.671 70.92 116.999 70.832 117.303 70.656C117.607 70.48 117.851 70.224 118.035 69.888C118.227 69.544 118.323 69.144 118.323 68.688ZM124.664 65.28C125.176 65.28 125.628 65.384 126.02 65.592C126.42 65.792 126.732 66.044 126.956 66.348V65.388H128.336V72.108C128.336 72.716 128.208 73.256 127.952 73.728C127.696 74.208 127.324 74.584 126.836 74.856C126.356 75.128 125.78 75.264 125.108 75.264C124.212 75.264 123.468 75.052 122.876 74.628C122.284 74.212 121.948 73.644 121.868 72.924H123.224C123.328 73.268 123.548 73.544 123.884 73.752C124.228 73.968 124.636 74.076 125.108 74.076C125.66 74.076 126.104 73.908 126.44 73.572C126.784 73.236 126.956 72.748 126.956 72.108V71.004C126.724 71.316 126.408 71.58 126.008 71.796C125.616 72.004 125.168 72.108 124.664 72.108C124.088 72.108 123.56 71.964 123.08 71.676C122.608 71.38 122.232 70.972 121.952 70.452C121.68 69.924 121.544 69.328 121.544 68.664C121.544 68 121.68 67.412 121.952 66.9C122.232 66.388 122.608 65.992 123.08 65.712C123.56 65.424 124.088 65.28 124.664 65.28ZM126.956 68.688C126.956 68.232 126.86 67.836 126.668 67.5C126.484 67.164 126.24 66.908 125.936 66.732C125.632 66.556 125.304 66.468 124.952 66.468C124.6 66.468 124.272 66.556 123.968 66.732C123.664 66.9 123.416 67.152 123.224 67.488C123.04 67.816 122.948 68.208 122.948 68.664C122.948 69.12 123.04 69.52 123.224 69.864C123.416 70.208 123.664 70.472 123.968 70.656C124.28 70.832 124.608 70.92 124.952 70.92C125.304 70.92 125.632 70.832 125.936 70.656C126.24 70.48 126.484 70.224 126.668 69.888C126.86 69.544 126.956 69.144 126.956 68.688ZM136.692 68.532C136.692 68.78 136.676 69.004 136.644 69.204H131.592C131.632 69.732 131.828 70.156 132.18 70.476C132.532 70.796 132.964 70.956 133.476 70.956C134.212 70.956 134.732 70.648 135.036 70.032H136.512C136.312 70.64 135.948 71.14 135.42 71.532C134.9 71.916 134.252 72.108 133.476 72.108C132.844 72.108 132.276 71.968 131.772 71.688C131.276 71.4 130.884 71 130.596 70.488C130.316 69.968 130.176 69.368 130.176 68.688C130.176 68.008 130.312 67.412 130.584 66.9C130.864 66.38 131.252 65.98 131.748 65.7C132.252 65.42 132.828 65.28 133.476 65.28C134.1 65.28 134.656 65.416 135.144 65.688C135.632 65.96 136.012 66.344 136.284 66.84C136.556 67.328 136.692 67.892 136.692 68.532ZM135.264 68.1C135.256 67.596 135.076 67.192 134.724 66.888C134.372 66.584 133.936 66.432 133.416 66.432C132.944 66.432 132.54 66.584 132.204 66.888C131.868 67.184 131.668 67.588 131.604 68.1H135.264Z" fill="#284093"/>
</svg>
