<svg width="167" height="108" viewBox="0 0 167 108" fill="none" xmlns="http://www.w3.org/2000/svg">
<rect x="0.5" y="0.5" width="165.5" height="107" rx="3.5" fill="#F2F6FD"/>
<rect x="0.5" y="0.5" width="165.5" height="107" rx="3.5" stroke="#284093" stroke-dasharray="4 4"/>
<mask id="mask0_6003_65039" style="mask-type:alpha" maskUnits="userSpaceOnUse" x="71" y="32" width="25" height="24">
<rect x="71.25" y="32" width="24" height="24" fill="#D9D9D9"/>
</mask>
<g mask="url(#mask0_6003_65039)">
<path d="M82.25 45H77.25C76.9667 45 76.7292 44.9042 76.5375 44.7125C76.3458 44.5208 76.25 44.2833 76.25 44C76.25 43.7167 76.3458 43.4792 76.5375 43.2875C76.7292 43.0958 76.9667 43 77.25 43H82.25V38C82.25 37.7167 82.3458 37.4792 82.5375 37.2875C82.7292 37.0958 82.9667 37 83.25 37C83.5333 37 83.7708 37.0958 83.9625 37.2875C84.1542 37.4792 84.25 37.7167 84.25 38V43H89.25C89.5333 43 89.7708 43.0958 89.9625 43.2875C90.1542 43.4792 90.25 43.7167 90.25 44C90.25 44.2833 90.1542 44.5208 89.9625 44.7125C89.7708 44.9042 89.5333 45 89.25 45H84.25V50C84.25 50.2833 84.1542 50.5208 83.9625 50.7125C83.7708 50.9042 83.5333 51 83.25 51C82.9667 51 82.7292 50.9042 82.5375 50.7125C82.3458 50.5208 82.25 50.2833 82.25 50V45Z" fill="#284093"/>
</g>
<path d="M36.3421 70.296H32.8501L32.2501 72H30.8221L33.8101 63.648H35.3941L38.3821 72H36.9421L36.3421 70.296ZM35.9581 69.18L34.6021 65.304L33.2341 69.18H35.9581ZM39.7253 68.664C39.7253 68 39.8613 67.412 40.1333 66.9C40.4133 66.388 40.7893 65.992 41.2613 65.712C41.7413 65.424 42.2733 65.28 42.8573 65.28C43.2893 65.28 43.7133 65.376 44.1293 65.568C44.5533 65.752 44.8893 66 45.1373 66.312V63.12H46.5173V72H45.1373V71.004C44.9133 71.324 44.6013 71.588 44.2013 71.796C43.8093 72.004 43.3573 72.108 42.8453 72.108C42.2693 72.108 41.7413 71.964 41.2613 71.676C40.7893 71.38 40.4133 70.972 40.1333 70.452C39.8613 69.924 39.7253 69.328 39.7253 68.664ZM45.1373 68.688C45.1373 68.232 45.0413 67.836 44.8493 67.5C44.6653 67.164 44.4213 66.908 44.1173 66.732C43.8133 66.556 43.4853 66.468 43.1333 66.468C42.7813 66.468 42.4533 66.556 42.1493 66.732C41.8453 66.9 41.5973 67.152 41.4053 67.488C41.2213 67.816 41.1293 68.208 41.1293 68.664C41.1293 69.12 41.2213 69.52 41.4053 69.864C41.5973 70.208 41.8453 70.472 42.1493 70.656C42.4613 70.832 42.7893 70.92 43.1333 70.92C43.4853 70.92 43.8133 70.832 44.1173 70.656C44.4213 70.48 44.6653 70.224 44.8493 69.888C45.0413 69.544 45.1373 69.144 45.1373 68.688ZM48.3581 68.664C48.3581 68 48.4941 67.412 48.7661 66.9C49.0461 66.388 49.4221 65.992 49.8941 65.712C50.3741 65.424 50.9061 65.28 51.4901 65.28C51.9221 65.28 52.3461 65.376 52.7621 65.568C53.1861 65.752 53.5221 66 53.7701 66.312V63.12H55.1501V72H53.7701V71.004C53.5461 71.324 53.2341 71.588 52.8341 71.796C52.4421 72.004 51.9901 72.108 51.4781 72.108C50.9021 72.108 50.3741 71.964 49.8941 71.676C49.4221 71.38 49.0461 70.972 48.7661 70.452C48.4941 69.924 48.3581 69.328 48.3581 68.664ZM53.7701 68.688C53.7701 68.232 53.6741 67.836 53.4821 67.5C53.2981 67.164 53.0541 66.908 52.7501 66.732C52.4461 66.556 52.1181 66.468 51.7661 66.468C51.4141 66.468 51.0861 66.556 50.7821 66.732C50.4781 66.9 50.2301 67.152 50.0381 67.488C49.8541 67.816 49.7621 68.208 49.7621 68.664C49.7621 69.12 49.8541 69.52 50.0381 69.864C50.2301 70.208 50.4781 70.472 50.7821 70.656C51.0941 70.832 51.4221 70.92 51.7661 70.92C52.1181 70.92 52.4461 70.832 52.7501 70.656C53.0541 70.48 53.2981 70.224 53.4821 69.888C53.6741 69.544 53.7701 69.144 53.7701 68.688ZM63.8361 66.504H62.6121V72H61.2321V66.504H60.4521V65.388H61.2321V64.92C61.2321 64.16 61.4321 63.608 61.8321 63.264C62.2401 62.912 62.8761 62.736 63.7401 62.736V63.876C63.3241 63.876 63.0321 63.956 62.8641 64.116C62.6961 64.268 62.6121 64.536 62.6121 64.92V65.388H63.8361V66.504ZM66.9164 66.348C67.1164 66.012 67.3804 65.752 67.7084 65.568C68.0444 65.376 68.4404 65.28 68.8964 65.28V66.696H68.5484C68.0124 66.696 67.6044 66.832 67.3244 67.104C67.0524 67.376 66.9164 67.848 66.9164 68.52V72H65.5484V65.388H66.9164V66.348ZM73.5219 72.108C72.8979 72.108 72.3339 71.968 71.8299 71.688C71.3259 71.4 70.9299 71 70.6419 70.488C70.3539 69.968 70.2099 69.368 70.2099 68.688C70.2099 68.016 70.3579 67.42 70.6539 66.9C70.9499 66.38 71.3539 65.98 71.8659 65.7C72.3779 65.42 72.9499 65.28 73.5819 65.28C74.2139 65.28 74.7859 65.42 75.2979 65.7C75.8099 65.98 76.2139 66.38 76.5099 66.9C76.8059 67.42 76.9539 68.016 76.9539 68.688C76.9539 69.36 76.8019 69.956 76.4979 70.476C76.1939 70.996 75.7779 71.4 75.2499 71.688C74.7299 71.968 74.1539 72.108 73.5219 72.108ZM73.5219 70.92C73.8739 70.92 74.2019 70.836 74.5059 70.668C74.8179 70.5 75.0699 70.248 75.2619 69.912C75.4539 69.576 75.5499 69.168 75.5499 68.688C75.5499 68.208 75.4579 67.804 75.2739 67.476C75.0899 67.14 74.8459 66.888 74.5419 66.72C74.2379 66.552 73.9099 66.468 73.5579 66.468C73.2059 66.468 72.8779 66.552 72.5739 66.72C72.2779 66.888 72.0419 67.14 71.8659 67.476C71.6899 67.804 71.6019 68.208 71.6019 68.688C71.6019 69.4 71.7819 69.952 72.1419 70.344C72.5099 70.728 72.9699 70.92 73.5219 70.92ZM82.1423 65.28C82.6623 65.28 83.1263 65.388 83.5343 65.604C83.9503 65.82 84.2743 66.14 84.5063 66.564C84.7383 66.988 84.8543 67.5 84.8543 68.1V72H83.4983V68.304C83.4983 67.712 83.3503 67.26 83.0543 66.948C82.7583 66.628 82.3543 66.468 81.8423 66.468C81.3303 66.468 80.9223 66.628 80.6183 66.948C80.3223 67.26 80.1743 67.712 80.1743 68.304V72H78.8063V65.388H80.1743V66.144C80.3983 65.872 80.6823 65.66 81.0263 65.508C81.3783 65.356 81.7503 65.28 82.1423 65.28ZM88.6952 66.504V70.164C88.6952 70.412 88.7512 70.592 88.8632 70.704C88.9832 70.808 89.1832 70.86 89.4632 70.86H90.3032V72H89.2232C88.6072 72 88.1352 71.856 87.8072 71.568C87.4792 71.28 87.3152 70.812 87.3152 70.164V66.504H86.5352V65.388H87.3152V63.744H88.6952V65.388H90.3032V66.504H88.6952ZM97.0493 63.66V72H95.6813V63.66H97.0493ZM107.349 65.28C107.869 65.28 108.333 65.388 108.741 65.604C109.157 65.82 109.481 66.14 109.713 66.564C109.953 66.988 110.073 67.5 110.073 68.1V72H108.717V68.304C108.717 67.712 108.569 67.26 108.273 66.948C107.977 66.628 107.573 66.468 107.061 66.468C106.549 66.468 106.141 66.628 105.837 66.948C105.541 67.26 105.393 67.712 105.393 68.304V72H104.037V68.304C104.037 67.712 103.889 67.26 103.593 66.948C103.297 66.628 102.893 66.468 102.381 66.468C101.869 66.468 101.461 66.628 101.157 66.948C100.861 67.26 100.713 67.712 100.713 68.304V72H99.3453V65.388H100.713V66.144C100.937 65.872 101.221 65.66 101.565 65.508C101.909 65.356 102.277 65.28 102.669 65.28C103.197 65.28 103.669 65.392 104.085 65.616C104.501 65.84 104.821 66.164 105.045 66.588C105.245 66.188 105.557 65.872 105.981 65.64C106.405 65.4 106.861 65.28 107.349 65.28ZM111.858 68.664C111.858 68 111.994 67.412 112.266 66.9C112.546 66.388 112.922 65.992 113.394 65.712C113.874 65.424 114.402 65.28 114.978 65.28C115.498 65.28 115.95 65.384 116.334 65.592C116.726 65.792 117.038 66.044 117.27 66.348V65.388H118.65V72H117.27V71.016C117.038 71.328 116.722 71.588 116.322 71.796C115.922 72.004 115.466 72.108 114.954 72.108C114.386 72.108 113.866 71.964 113.394 71.676C112.922 71.38 112.546 70.972 112.266 70.452C111.994 69.924 111.858 69.328 111.858 68.664ZM117.27 68.688C117.27 68.232 117.174 67.836 116.982 67.5C116.798 67.164 116.554 66.908 116.25 66.732C115.946 66.556 115.618 66.468 115.266 66.468C114.914 66.468 114.586 66.556 114.282 66.732C113.978 66.9 113.73 67.152 113.538 67.488C113.354 67.816 113.262 68.208 113.262 68.664C113.262 69.12 113.354 69.52 113.538 69.864C113.73 70.208 113.978 70.472 114.282 70.656C114.594 70.832 114.922 70.92 115.266 70.92C115.618 70.92 115.946 70.832 116.25 70.656C116.554 70.48 116.798 70.224 116.982 69.888C117.174 69.544 117.27 69.144 117.27 68.688ZM123.611 65.28C124.123 65.28 124.575 65.384 124.967 65.592C125.367 65.792 125.679 66.044 125.903 66.348V65.388H127.283V72.108C127.283 72.716 127.155 73.256 126.899 73.728C126.643 74.208 126.271 74.584 125.783 74.856C125.303 75.128 124.727 75.264 124.055 75.264C123.159 75.264 122.415 75.052 121.823 74.628C121.231 74.212 120.895 73.644 120.815 72.924H122.171C122.275 73.268 122.495 73.544 122.831 73.752C123.175 73.968 123.583 74.076 124.055 74.076C124.607 74.076 125.051 73.908 125.387 73.572C125.731 73.236 125.903 72.748 125.903 72.108V71.004C125.671 71.316 125.355 71.58 124.955 71.796C124.563 72.004 124.115 72.108 123.611 72.108C123.035 72.108 122.507 71.964 122.027 71.676C121.555 71.38 121.179 70.972 120.899 70.452C120.627 69.924 120.491 69.328 120.491 68.664C120.491 68 120.627 67.412 120.899 66.9C121.179 66.388 121.555 65.992 122.027 65.712C122.507 65.424 123.035 65.28 123.611 65.28ZM125.903 68.688C125.903 68.232 125.807 67.836 125.615 67.5C125.431 67.164 125.187 66.908 124.883 66.732C124.579 66.556 124.251 66.468 123.899 66.468C123.547 66.468 123.219 66.556 122.915 66.732C122.611 66.9 122.363 67.152 122.171 67.488C121.987 67.816 121.895 68.208 121.895 68.664C121.895 69.12 121.987 69.52 122.171 69.864C122.363 70.208 122.611 70.472 122.915 70.656C123.227 70.832 123.555 70.92 123.899 70.92C124.251 70.92 124.579 70.832 124.883 70.656C125.187 70.48 125.431 70.224 125.615 69.888C125.807 69.544 125.903 69.144 125.903 68.688ZM135.64 68.532C135.64 68.78 135.624 69.004 135.592 69.204H130.54C130.58 69.732 130.776 70.156 131.128 70.476C131.48 70.796 131.912 70.956 132.424 70.956C133.16 70.956 133.68 70.648 133.984 70.032H135.46C135.26 70.64 134.896 71.14 134.368 71.532C133.848 71.916 133.2 72.108 132.424 72.108C131.792 72.108 131.224 71.968 130.72 71.688C130.224 71.4 129.832 71 129.544 70.488C129.264 69.968 129.124 69.368 129.124 68.688C129.124 68.008 129.26 67.412 129.532 66.9C129.812 66.38 130.2 65.98 130.696 65.7C131.2 65.42 131.776 65.28 132.424 65.28C133.048 65.28 133.604 65.416 134.092 65.688C134.58 65.96 134.96 66.344 135.232 66.84C135.504 67.328 135.64 67.892 135.64 68.532ZM134.212 68.1C134.204 67.596 134.024 67.192 133.672 66.888C133.32 66.584 132.884 66.432 132.364 66.432C131.892 66.432 131.488 66.584 131.152 66.888C130.816 67.184 130.616 67.588 130.552 68.1H134.212Z" fill="#284093"/>
</svg>
