<svg width="14" height="14" viewBox="0 0 14 14" fill="none" xmlns="http://www.w3.org/2000/svg">
<path d="M7.00065 7.93333L8.93398 9.86666C9.05621 9.98888 9.21176 10.05 9.40065 10.05C9.58954 10.05 9.7451 9.98888 9.86732 9.86666C9.98954 9.74444 10.0507 9.58888 10.0507 9.39999C10.0507 9.21111 9.98954 9.05555 9.86732 8.93333L7.93398 6.99999L9.86732 5.06666C9.98954 4.94444 10.0507 4.78888 10.0507 4.59999C10.0507 4.41111 9.98954 4.25555 9.86732 4.13333C9.7451 4.01111 9.58954 3.94999 9.40065 3.94999C9.21176 3.94999 9.05621 4.01111 8.93398 4.13333L7.00065 6.06666L5.06732 4.13333C4.9451 4.01111 4.78954 3.94999 4.60065 3.94999C4.41176 3.94999 4.25621 4.01111 4.13398 4.13333C4.01176 4.25555 3.95065 4.41111 3.95065 4.59999C3.95065 4.78888 4.01176 4.94444 4.13398 5.06666L6.06732 6.99999L4.13398 8.93333C4.01176 9.05555 3.95065 9.21111 3.95065 9.39999C3.95065 9.58888 4.01176 9.74444 4.13398 9.86666C4.25621 9.98888 4.41176 10.05 4.60065 10.05C4.78954 10.05 4.9451 9.98888 5.06732 9.86666L7.00065 7.93333ZM7.00065 13.6667C6.07843 13.6667 5.21176 13.4917 4.40065 13.1417C3.58954 12.7917 2.88398 12.3167 2.28398 11.7167C1.68398 11.1167 1.20898 10.4111 0.858984 9.59999C0.508984 8.78888 0.333984 7.92222 0.333984 6.99999C0.333984 6.07777 0.508984 5.21111 0.858984 4.39999C1.20898 3.58888 1.68398 2.88333 2.28398 2.28333C2.88398 1.68333 3.58954 1.20833 4.40065 0.858328C5.21176 0.508328 6.07843 0.333328 7.00065 0.333328C7.92287 0.333328 8.78954 0.508328 9.60065 0.858328C10.4118 1.20833 11.1173 1.68333 11.7173 2.28333C12.3173 2.88333 12.7923 3.58888 13.1423 4.39999C13.4923 5.21111 13.6673 6.07777 13.6673 6.99999C13.6673 7.92222 13.4923 8.78888 13.1423 9.59999C12.7923 10.4111 12.3173 11.1167 11.7173 11.7167C11.1173 12.3167 10.4118 12.7917 9.60065 13.1417C8.78954 13.4917 7.92287 13.6667 7.00065 13.6667Z" fill="#E20814"/>
</svg>
