<svg width="50" height="48" viewBox="0 0 50 48" fill="none" xmlns="http://www.w3.org/2000/svg">
<path d="M22.6367 25.5751L19.3742 22.3688C18.9617 21.9563 18.4461 21.7501 17.8273 21.7501C17.2086 21.7501 16.6742 21.9751 16.2242 22.4251C15.8117 22.8376 15.6055 23.3626 15.6055 24.0001C15.6055 24.6376 15.8117 25.1626 16.2242 25.5751L21.0617 30.4126C21.5117 30.8626 22.0367 31.0876 22.6367 31.0876C23.2367 31.0876 23.7617 30.8626 24.2117 30.4126L33.7742 20.8501C34.2242 20.4001 34.4398 19.8751 34.4211 19.2751C34.4023 18.6751 34.1867 18.1501 33.7742 17.7001C33.3242 17.2501 32.7898 17.0157 32.1711 16.997C31.5523 16.9782 31.018 17.1938 30.568 17.6438L22.6367 25.5751ZM16.3367 45.9376L13.0742 40.4251L6.88672 39.0751C6.32422 38.9626 5.87422 38.672 5.53672 38.2032C5.19922 37.7345 5.06797 37.2188 5.14297 36.6563L5.76172 30.3001L1.54297 25.4626C1.16797 25.0501 0.980469 24.5626 0.980469 24.0001C0.980469 23.4376 1.16797 22.9501 1.54297 22.5376L5.76172 17.7001L5.14297 11.3438C5.06797 10.7813 5.19922 10.2657 5.53672 9.79696C5.87422 9.32821 6.32422 9.03758 6.88672 8.92508L13.0742 7.57508L16.3367 2.06258C16.6367 1.57508 17.0492 1.24696 17.5742 1.07821C18.0992 0.909459 18.6242 0.937584 19.1492 1.16258L24.9992 3.63758L30.8492 1.16258C31.3742 0.937584 31.8992 0.909459 32.4242 1.07821C32.9492 1.24696 33.3617 1.57508 33.6617 2.06258L36.9242 7.57508L43.1117 8.92508C43.6742 9.03758 44.1242 9.32821 44.4617 9.79696C44.7992 10.2657 44.9305 10.7813 44.8555 11.3438L44.2367 17.7001L48.4555 22.5376C48.8305 22.9501 49.018 23.4376 49.018 24.0001C49.018 24.5626 48.8305 25.0501 48.4555 25.4626L44.2367 30.3001L44.8555 36.6563C44.9305 37.2188 44.7992 37.7345 44.4617 38.2032C44.1242 38.672 43.6742 38.9626 43.1117 39.0751L36.9242 40.4251L33.6617 45.9376C33.3617 46.4251 32.9492 46.7532 32.4242 46.922C31.8992 47.0907 31.3742 47.0626 30.8492 46.8376L24.9992 44.3626L19.1492 46.8376C18.6242 47.0626 18.0992 47.0907 17.5742 46.922C17.0492 46.7532 16.6367 46.4251 16.3367 45.9376Z" fill="#24A148"/>
</svg>
