<svg width="50" height="48" viewBox="0 0 50 48" fill="none" xmlns="http://www.w3.org/2000/svg">
<path d="M16.3367 45.9382L13.0742 40.4257L6.88672 39.0757C6.32422 38.9632 5.87422 38.6726 5.53672 38.2038C5.19922 37.7351 5.06797 37.2194 5.14297 36.6569L5.76172 30.3007L1.54297 25.4632C1.16797 25.0507 0.980469 24.5632 0.980469 24.0007C0.980469 23.4382 1.16797 22.9507 1.54297 22.5382L5.76172 17.7007L5.14297 11.3444C5.06797 10.7819 5.19922 10.2663 5.53672 9.79757C5.87422 9.32882 6.32422 9.03819 6.88672 8.92569L13.0742 7.57569L16.3367 2.06319C16.6367 1.57569 17.0492 1.24757 17.5742 1.07882C18.0992 0.910069 18.6242 0.938194 19.1492 1.16319L24.9992 3.63819L30.8492 1.16319C31.3742 0.938194 31.8992 0.910069 32.4242 1.07882C32.9492 1.24757 33.3617 1.57569 33.6617 2.06319L36.9242 7.57569L43.1117 8.92569C43.6742 9.03819 44.1242 9.32882 44.4617 9.79757C44.7992 10.2663 44.9305 10.7819 44.8555 11.3444L44.2367 17.7007L48.4555 22.5382C48.8305 22.9507 49.018 23.4382 49.018 24.0007C49.018 24.5632 48.8305 25.0507 48.4555 25.4632L44.2367 30.3007L44.8555 36.6569C44.9305 37.2194 44.7992 37.7351 44.4617 38.2038C44.1242 38.6726 43.6742 38.9632 43.1117 39.0757L36.9242 40.4257L33.6617 45.9382C33.3617 46.4257 32.9492 46.7538 32.4242 46.9226C31.8992 47.0913 31.3742 47.0632 30.8492 46.8382L24.9992 44.3632L19.1492 46.8382C18.6242 47.0632 18.0992 47.0913 17.5742 46.9226C17.0492 46.7538 16.6367 46.4257 16.3367 45.9382ZM24.9992 35.2507C25.6367 35.2507 26.1711 35.0351 26.6023 34.6038C27.0336 34.1726 27.2492 33.6382 27.2492 33.0007C27.2492 32.3632 27.0336 31.8288 26.6023 31.3976C26.1711 30.9663 25.6367 30.7507 24.9992 30.7507C24.3617 30.7507 23.8273 30.9663 23.3961 31.3976C22.9648 31.8288 22.7492 32.3632 22.7492 33.0007C22.7492 33.6382 22.9648 34.1726 23.3961 34.6038C23.8273 35.0351 24.3617 35.2507 24.9992 35.2507ZM24.9992 26.2507C25.6367 26.2507 26.1711 26.0351 26.6023 25.6038C27.0336 25.1726 27.2492 24.6382 27.2492 24.0007V15.0007C27.2492 14.3632 27.0336 13.8288 26.6023 13.3976C26.1711 12.9663 25.6367 12.7507 24.9992 12.7507C24.3617 12.7507 23.8273 12.9663 23.3961 13.3976C22.9648 13.8288 22.7492 14.3632 22.7492 15.0007V24.0007C22.7492 24.6382 22.9648 25.1726 23.3961 25.6038C23.8273 26.0351 24.3617 26.2507 24.9992 26.2507Z" fill="#D3883E"/>
</svg>
