<svg width="14" height="14" viewBox="0 0 14 14" fill="none" xmlns="http://www.w3.org/2000/svg">
<path d="M6.06732 8.19999L4.63398 6.76666C4.51176 6.64444 4.35621 6.58333 4.16732 6.58333C3.97843 6.58333 3.82287 6.64444 3.70065 6.76666C3.57843 6.88888 3.51732 7.04444 3.51732 7.23333C3.51732 7.42222 3.57843 7.57777 3.70065 7.69999L5.60065 9.59999C5.73398 9.73333 5.88954 9.79999 6.06732 9.79999C6.2451 9.79999 6.40065 9.73333 6.53398 9.59999L10.3007 5.83333C10.4229 5.71111 10.484 5.55555 10.484 5.36666C10.484 5.17777 10.4229 5.02222 10.3007 4.89999C10.1784 4.77777 10.0229 4.71666 9.83398 4.71666C9.64509 4.71666 9.48954 4.77777 9.36732 4.89999L6.06732 8.19999ZM7.00065 13.6667C6.07843 13.6667 5.21176 13.4917 4.40065 13.1417C3.58954 12.7917 2.88398 12.3167 2.28398 11.7167C1.68398 11.1167 1.20898 10.4111 0.858984 9.59999C0.508984 8.78888 0.333984 7.92222 0.333984 6.99999C0.333984 6.07777 0.508984 5.21111 0.858984 4.39999C1.20898 3.58888 1.68398 2.88333 2.28398 2.28333C2.88398 1.68333 3.58954 1.20833 4.40065 0.858328C5.21176 0.508328 6.07843 0.333328 7.00065 0.333328C7.92287 0.333328 8.78954 0.508328 9.60065 0.858328C10.4118 1.20833 11.1173 1.68333 11.7173 2.28333C12.3173 2.88333 12.7923 3.58888 13.1423 4.39999C13.4923 5.21111 13.6673 6.07777 13.6673 6.99999C13.6673 7.92222 13.4923 8.78888 13.1423 9.59999C12.7923 10.4111 12.3173 11.1167 11.7173 11.7167C11.1173 12.3167 10.4118 12.7917 9.60065 13.1417C8.78954 13.4917 7.92287 13.6667 7.00065 13.6667Z" fill="#24A148"/>
</svg>
