<svg width="20" height="20" viewBox="0 0 20 20" fill="none" xmlns="http://www.w3.org/2000/svg">
<mask id="mask0_5462_115510" style="mask-type:alpha" maskUnits="userSpaceOnUse" x="0" y="0" width="20" height="20">
<rect width="20" height="20" fill="#D9D9D9"/>
</mask>
<g mask="url(#mask0_5462_115510)">
<path d="M10.0007 12.9792C9.88954 12.9792 9.78537 12.9618 9.68815 12.9271C9.59093 12.8924 9.50065 12.8334 9.41732 12.75L6.41732 9.75004C6.25065 9.58337 6.17079 9.38893 6.17773 9.16671C6.18468 8.94449 6.26454 8.75004 6.41732 8.58337C6.58398 8.41671 6.7819 8.3299 7.01107 8.32296C7.24023 8.31601 7.43815 8.39587 7.60482 8.56254L9.16732 10.125V4.16671C9.16732 3.9306 9.24718 3.73268 9.4069 3.57296C9.56662 3.41324 9.76454 3.33337 10.0007 3.33337C10.2368 3.33337 10.4347 3.41324 10.5944 3.57296C10.7541 3.73268 10.834 3.9306 10.834 4.16671V10.125L12.3965 8.56254C12.5632 8.39587 12.7611 8.31601 12.9902 8.32296C13.2194 8.3299 13.4173 8.41671 13.584 8.58337C13.7368 8.75004 13.8166 8.94449 13.8236 9.16671C13.8305 9.38893 13.7507 9.58337 13.584 9.75004L10.584 12.75C10.5007 12.8334 10.4104 12.8924 10.3132 12.9271C10.2159 12.9618 10.1118 12.9792 10.0007 12.9792ZM5.00065 16.6667C4.54232 16.6667 4.14996 16.5035 3.82357 16.1771C3.49718 15.8507 3.33398 15.4584 3.33398 15V13.3334C3.33398 13.0973 3.41385 12.8993 3.57357 12.7396C3.73329 12.5799 3.93121 12.5 4.16732 12.5C4.40343 12.5 4.60135 12.5799 4.76107 12.7396C4.92079 12.8993 5.00065 13.0973 5.00065 13.3334V15H15.0007V13.3334C15.0007 13.0973 15.0805 12.8993 15.2402 12.7396C15.4 12.5799 15.5979 12.5 15.834 12.5C16.0701 12.5 16.268 12.5799 16.4277 12.7396C16.5875 12.8993 16.6673 13.0973 16.6673 13.3334V15C16.6673 15.4584 16.5041 15.8507 16.1777 16.1771C15.8513 16.5035 15.459 16.6667 15.0007 16.6667H5.00065Z" fill="#393939"/>
</g>
</svg>
