<svg width="14" height="14" viewBox="0 0 14 14" fill="none" xmlns="http://www.w3.org/2000/svg">
<path d="M7.00065 10.3333C7.18954 10.3333 7.34787 10.2694 7.47565 10.1417C7.60343 10.0139 7.66732 9.85556 7.66732 9.66667C7.66732 9.47778 7.60343 9.31945 7.47565 9.19167C7.34787 9.06389 7.18954 9 7.00065 9C6.81176 9 6.65343 9.06389 6.52565 9.19167C6.39787 9.31945 6.33398 9.47778 6.33398 9.66667C6.33398 9.85556 6.39787 10.0139 6.52565 10.1417C6.65343 10.2694 6.81176 10.3333 7.00065 10.3333ZM7.00065 7.66667C7.18954 7.66667 7.34787 7.60278 7.47565 7.475C7.60343 7.34722 7.66732 7.18889 7.66732 7V4.33334C7.66732 4.14445 7.60343 3.98611 7.47565 3.85834C7.34787 3.73056 7.18954 3.66667 7.00065 3.66667C6.81176 3.66667 6.65343 3.73056 6.52565 3.85834C6.39787 3.98611 6.33398 4.14445 6.33398 4.33334V7C6.33398 7.18889 6.39787 7.34722 6.52565 7.475C6.65343 7.60278 6.81176 7.66667 7.00065 7.66667ZM7.00065 13.6667C6.07843 13.6667 5.21176 13.4917 4.40065 13.1417C3.58954 12.7917 2.88398 12.3167 2.28398 11.7167C1.68398 11.1167 1.20898 10.4111 0.858984 9.6C0.508984 8.78889 0.333984 7.92222 0.333984 7C0.333984 6.07778 0.508984 5.21111 0.858984 4.4C1.20898 3.58889 1.68398 2.88334 2.28398 2.28334C2.88398 1.68334 3.58954 1.20834 4.40065 0.858336C5.21176 0.508336 6.07843 0.333336 7.00065 0.333336C7.92287 0.333336 8.78954 0.508336 9.60065 0.858336C10.4118 1.20834 11.1173 1.68334 11.7173 2.28334C12.3173 2.88334 12.7923 3.58889 13.1423 4.4C13.4923 5.21111 13.6673 6.07778 13.6673 7C13.6673 7.92222 13.4923 8.78889 13.1423 9.6C12.7923 10.4111 12.3173 11.1167 11.7173 11.7167C11.1173 12.3167 10.4118 12.7917 9.60065 13.1417C8.78954 13.4917 7.92287 13.6667 7.00065 13.6667Z" fill="#D3883E"/>
</svg>
