<svg width="62" height="61" viewBox="0 0 62 61" fill="none" xmlns="http://www.w3.org/2000/svg">
<mask id="mask0_18499_124753" style="mask-type:alpha" maskUnits="userSpaceOnUse" x="0" y="0" width="62" height="61">
<rect x="0.5" width="61" height="61" fill="#D9D9D9"/>
</mask>
<g mask="url(#mask0_18499_124753)">
<path d="M52.6043 13.4905V40.911C52.6043 41.5465 52.4047 42.023 52.0056 42.3407C51.6064 42.6584 51.1706 42.8173 50.6981 42.8173C50.2256 42.8173 49.7898 42.6519 49.3906 42.3212C48.9915 41.9905 48.7919 41.5074 48.7919 40.872V13.4905C48.7919 13.2949 48.7104 13.1157 48.5475 12.9527C48.3845 12.7898 48.2053 12.7083 48.0097 12.7083H20.5647C19.9293 12.7083 19.4527 12.5087 19.135 12.1096C18.8173 11.7104 18.6585 11.2746 18.6585 10.8021C18.6585 10.3296 18.8173 9.89382 19.135 9.49465C19.4527 9.09548 19.9293 8.89589 20.5647 8.89589H48.0097C49.2936 8.89589 50.3804 9.34069 51.2699 10.2303C52.1595 11.1199 52.6043 12.2066 52.6043 13.4905ZM13.9907 52.1041C12.7068 52.1041 11.6201 51.6593 10.7305 50.7697C9.8409 49.8801 9.39611 48.7934 9.39611 47.5095V14.2528L6.27768 11.1343C5.92574 10.7824 5.7457 10.3401 5.73757 9.80734C5.7294 9.2746 5.90943 8.82411 6.27768 8.45587C6.64588 8.08767 7.09228 7.90356 7.61688 7.90356C8.14148 7.90356 8.58788 8.08767 8.95608 8.45587L53.0443 52.5441C53.3962 52.896 53.5762 53.3384 53.5844 53.8711C53.5926 54.4039 53.4125 54.8543 53.0443 55.2225C52.6761 55.5908 52.2297 55.7749 51.7051 55.7749C51.1805 55.7749 50.7341 55.5908 50.3659 55.2225L47.2474 52.1042L13.9907 52.1041ZM37.677 42.5728H19.9539C19.4944 42.5728 19.1539 42.3643 18.9323 41.9472C18.7107 41.5301 18.7531 41.1261 19.0594 40.735L23.0674 35.4026C23.3052 35.0962 23.6074 34.9431 23.974 34.9431C24.3406 34.9431 24.6428 35.0881 24.8807 35.3781L29.0451 40.7155L32.0218 36.9176L13.2085 18.1044V47.5095C13.2085 47.7051 13.29 47.8843 13.4529 48.0473C13.6159 48.2102 13.7951 48.2917 13.9907 48.2917H43.3959L37.677 42.5728Z" fill="#C1C1C1"/>
</g>
</svg>
