<svg width="14" height="13" viewBox="0 0 14 13" fill="none" xmlns="http://www.w3.org/2000/svg">
<path d="M0.817177 12.5C0.694955 12.5 0.583844 12.4694 0.483844 12.4083C0.383844 12.3472 0.306066 12.2667 0.250511 12.1667C0.194955 12.0667 0.1644 11.9583 0.158844 11.8417C0.153289 11.725 0.183844 11.6111 0.250511 11.5L6.41718 0.833333C6.48384 0.722222 6.56996 0.638889 6.67551 0.583333C6.78107 0.527778 6.8894 0.5 7.00051 0.5C7.11162 0.5 7.21996 0.527778 7.32551 0.583333C7.43107 0.638889 7.51718 0.722222 7.58384 0.833333L13.7505 11.5C13.8172 11.6111 13.8477 11.725 13.8422 11.8417C13.8366 11.9583 13.8061 12.0667 13.7505 12.1667C13.695 12.2667 13.6172 12.3472 13.5172 12.4083C13.4172 12.4694 13.3061 12.5 13.1838 12.5H0.817177ZM7.00051 10.5C7.1894 10.5 7.34773 10.4361 7.47551 10.3083C7.60329 10.1806 7.66718 10.0222 7.66718 9.83333C7.66718 9.64444 7.60329 9.48611 7.47551 9.35833C7.34773 9.23056 7.1894 9.16667 7.00051 9.16667C6.81162 9.16667 6.65329 9.23056 6.52551 9.35833C6.39773 9.48611 6.33384 9.64444 6.33384 9.83333C6.33384 10.0222 6.39773 10.1806 6.52551 10.3083C6.65329 10.4361 6.81162 10.5 7.00051 10.5ZM7.00051 8.5C7.1894 8.5 7.34773 8.43611 7.47551 8.30833C7.60329 8.18056 7.66718 8.02222 7.66718 7.83333V5.83333C7.66718 5.64444 7.60329 5.48611 7.47551 5.35833C7.34773 5.23056 7.1894 5.16667 7.00051 5.16667C6.81162 5.16667 6.65329 5.23056 6.52551 5.35833C6.39773 5.48611 6.33384 5.64444 6.33384 5.83333V7.83333C6.33384 8.02222 6.39773 8.18056 6.52551 8.30833C6.65329 8.43611 6.81162 8.5 7.00051 8.5Z" fill="#E20814"/>
</svg>
