<svg width="48" height="49" viewBox="0 0 48 49" fill="none" xmlns="http://www.w3.org/2000/svg">
<rect y="0.718323" width="48" height="48" rx="24" fill="#D5E0F9"/>
<mask id="mask0_21708_234955" style="mask-type:alpha" maskUnits="userSpaceOnUse" x="12" y="12" width="24" height="25">
<rect x="12" y="12.7183" width="24" height="24" fill="#D9D9D9"/>
</mask>
<g mask="url(#mask0_21708_234955)">
<path d="M24 33.7183C21.9 33.7183 20.0417 33.0808 18.425 31.8058C16.8083 30.5308 15.7583 28.9017 15.275 26.9183C15.2083 26.6683 15.2583 26.4392 15.425 26.2308C15.5917 26.0225 15.8167 25.9017 16.1 25.8683C16.3667 25.835 16.6083 25.885 16.825 26.0183C17.0417 26.1517 17.1917 26.3517 17.275 26.6183C17.675 28.1183 18.5 29.3433 19.75 30.2933C21 31.2433 22.4167 31.7183 24 31.7183C25.95 31.7183 27.6042 31.0392 28.9625 29.6808C30.3208 28.3225 31 26.6683 31 24.7183C31 22.7683 30.3208 21.1142 28.9625 19.7558C27.6042 18.3975 25.95 17.7183 24 17.7183C22.85 17.7183 21.775 17.985 20.775 18.5183C19.775 19.0517 18.9333 19.785 18.25 20.7183H20C20.2833 20.7183 20.5208 20.8142 20.7125 21.0058C20.9042 21.1975 21 21.435 21 21.7183C21 22.0017 20.9042 22.2392 20.7125 22.4308C20.5208 22.6225 20.2833 22.7183 20 22.7183H16C15.7167 22.7183 15.4792 22.6225 15.2875 22.4308C15.0958 22.2392 15 22.0017 15 21.7183V17.7183C15 17.435 15.0958 17.1975 15.2875 17.0058C15.4792 16.8142 15.7167 16.7183 16 16.7183C16.2833 16.7183 16.5208 16.8142 16.7125 17.0058C16.9042 17.1975 17 17.435 17 17.7183V19.0683C17.85 18.0017 18.8875 17.1767 20.1125 16.5933C21.3375 16.01 22.6333 15.7183 24 15.7183C25.25 15.7183 26.4208 15.9558 27.5125 16.4308C28.6042 16.9058 29.5542 17.5475 30.3625 18.3558C31.1708 19.1642 31.8125 20.1142 32.2875 21.2058C32.7625 22.2975 33 23.4683 33 24.7183C33 25.9683 32.7625 27.1392 32.2875 28.2308C31.8125 29.3225 31.1708 30.2725 30.3625 31.0808C29.5542 31.8892 28.6042 32.5308 27.5125 33.0058C26.4208 33.4808 25.25 33.7183 24 33.7183ZM25 24.3183L27.5 26.8183C27.6833 27.0017 27.775 27.235 27.775 27.5183C27.775 27.8017 27.6833 28.035 27.5 28.2183C27.3167 28.4017 27.0833 28.4933 26.8 28.4933C26.5167 28.4933 26.2833 28.4017 26.1 28.2183L23.3 25.4183C23.2 25.3183 23.125 25.2058 23.075 25.0808C23.025 24.9558 23 24.8267 23 24.6933V20.7183C23 20.435 23.0958 20.1975 23.2875 20.0058C23.4792 19.8142 23.7167 19.7183 24 19.7183C24.2833 19.7183 24.5208 19.8142 24.7125 20.0058C24.9042 20.1975 25 20.435 25 20.7183V24.3183Z" fill="#284093"/>
</g>
</svg>
