<svg width="48" height="49" viewBox="0 0 48 49" fill="none" xmlns="http://www.w3.org/2000/svg">
<rect y="0.718323" width="48" height="48" rx="24" fill="#D5E0F9"/>
<mask id="mask0_21708_234959" style="mask-type:alpha" maskUnits="userSpaceOnUse" x="12" y="12" width="24" height="25">
<rect x="12" y="12.7183" width="24" height="24" fill="#D9D9D9"/>
</mask>
<g mask="url(#mask0_21708_234959)">
<path d="M17 33.7183C16.45 33.7183 15.9792 33.5225 15.5875 33.1308C15.1958 32.7392 15 32.2683 15 31.7183V17.7183C15 17.1683 15.1958 16.6975 15.5875 16.3058C15.9792 15.9142 16.45 15.7183 17 15.7183H21.2C21.4167 15.1183 21.7792 14.635 22.2875 14.2683C22.7958 13.9017 23.3667 13.7183 24 13.7183C24.6333 13.7183 25.2042 13.9017 25.7125 14.2683C26.2208 14.635 26.5833 15.1183 26.8 15.7183H31C31.55 15.7183 32.0208 15.9142 32.4125 16.3058C32.8042 16.6975 33 17.1683 33 17.7183V31.7183C33 32.2683 32.8042 32.7392 32.4125 33.1308C32.0208 33.5225 31.55 33.7183 31 33.7183H17ZM17 31.7183H31V17.7183H17V31.7183ZM20 29.7183H25C25.2833 29.7183 25.5208 29.6225 25.7125 29.4308C25.9042 29.2392 26 29.0017 26 28.7183C26 28.435 25.9042 28.1975 25.7125 28.0058C25.5208 27.8142 25.2833 27.7183 25 27.7183H20C19.7167 27.7183 19.4792 27.8142 19.2875 28.0058C19.0958 28.1975 19 28.435 19 28.7183C19 29.0017 19.0958 29.2392 19.2875 29.4308C19.4792 29.6225 19.7167 29.7183 20 29.7183ZM20 25.7183H28C28.2833 25.7183 28.5208 25.6225 28.7125 25.4308C28.9042 25.2392 29 25.0017 29 24.7183C29 24.435 28.9042 24.1975 28.7125 24.0058C28.5208 23.8142 28.2833 23.7183 28 23.7183H20C19.7167 23.7183 19.4792 23.8142 19.2875 24.0058C19.0958 24.1975 19 24.435 19 24.7183C19 25.0017 19.0958 25.2392 19.2875 25.4308C19.4792 25.6225 19.7167 25.7183 20 25.7183ZM20 21.7183H28C28.2833 21.7183 28.5208 21.6225 28.7125 21.4308C28.9042 21.2392 29 21.0017 29 20.7183C29 20.435 28.9042 20.1975 28.7125 20.0058C28.5208 19.8142 28.2833 19.7183 28 19.7183H20C19.7167 19.7183 19.4792 19.8142 19.2875 20.0058C19.0958 20.1975 19 20.435 19 20.7183C19 21.0017 19.0958 21.2392 19.2875 21.4308C19.4792 21.6225 19.7167 21.7183 20 21.7183ZM24 16.9683C24.2167 16.9683 24.3958 16.8975 24.5375 16.7558C24.6792 16.6142 24.75 16.435 24.75 16.2183C24.75 16.0017 24.6792 15.8225 24.5375 15.6808C24.3958 15.5392 24.2167 15.4683 24 15.4683C23.7833 15.4683 23.6042 15.5392 23.4625 15.6808C23.3208 15.8225 23.25 16.0017 23.25 16.2183C23.25 16.435 23.3208 16.6142 23.4625 16.7558C23.6042 16.8975 23.7833 16.9683 24 16.9683Z" fill="#284093"/>
</g>
</svg>
