<svg width="48" height="49" viewBox="0 0 48 49" fill="none" xmlns="http://www.w3.org/2000/svg">
<rect y="0.718262" width="48" height="48" rx="24" fill="#D5E0F9"/>
<mask id="mask0_21708_234947" style="mask-type:alpha" maskUnits="userSpaceOnUse" x="12" y="12" width="24" height="25">
<rect x="12" y="12.7183" width="24" height="24" fill="#D9D9D9"/>
</mask>
<g mask="url(#mask0_21708_234947)">
<path d="M19 33.7183C18.45 33.7183 17.9792 33.5224 17.5875 33.1308C17.1958 32.7391 17 32.2683 17 31.7183V20.7183C17 20.1683 17.1958 19.6974 17.5875 19.3058C17.9792 18.9141 18.45 18.7183 19 18.7183H21V16.7183C21 16.1683 21.1958 15.6974 21.5875 15.3058C21.9792 14.9141 22.45 14.7183 23 14.7183H25C25.55 14.7183 26.0208 14.9141 26.4125 15.3058C26.8042 15.6974 27 16.1683 27 16.7183V18.7183H29C29.55 18.7183 30.0208 18.9141 30.4125 19.3058C30.8042 19.6974 31 20.1683 31 20.7183V31.7183C31 32.2683 30.8042 32.7391 30.4125 33.1308C30.0208 33.5224 29.55 33.7183 29 33.7183C29 34.0016 28.9042 34.2391 28.7125 34.4308C28.5208 34.6224 28.2833 34.7183 28 34.7183C27.7167 34.7183 27.4792 34.6224 27.2875 34.4308C27.0958 34.2391 27 34.0016 27 33.7183H21C21 34.0016 20.9042 34.2391 20.7125 34.4308C20.5208 34.6224 20.2833 34.7183 20 34.7183C19.7167 34.7183 19.4792 34.6224 19.2875 34.4308C19.0958 34.2391 19 34.0016 19 33.7183ZM19 31.7183H29V20.7183H19V31.7183ZM22 21.7183C21.7167 21.7183 21.4792 21.8141 21.2875 22.0058C21.0958 22.1974 21 22.4349 21 22.7183V29.7183C21 30.0016 21.0958 30.2391 21.2875 30.4308C21.4792 30.6224 21.7167 30.7183 22 30.7183C22.2833 30.7183 22.5208 30.6224 22.7125 30.4308C22.9042 30.2391 23 30.0016 23 29.7183V22.7183C23 22.4349 22.9042 22.1974 22.7125 22.0058C22.5208 21.8141 22.2833 21.7183 22 21.7183ZM26 21.7183C25.7167 21.7183 25.4792 21.8141 25.2875 22.0058C25.0958 22.1974 25 22.4349 25 22.7183V29.7183C25 30.0016 25.0958 30.2391 25.2875 30.4308C25.4792 30.6224 25.7167 30.7183 26 30.7183C26.2833 30.7183 26.5208 30.6224 26.7125 30.4308C26.9042 30.2391 27 30.0016 27 29.7183V22.7183C27 22.4349 26.9042 22.1974 26.7125 22.0058C26.5208 21.8141 26.2833 21.7183 26 21.7183ZM23 18.7183H25V16.7183H23V18.7183Z" fill="#284093"/>
</g>
</svg>
