<svg width="48" height="49" viewBox="0 0 48 49" fill="none" xmlns="http://www.w3.org/2000/svg">
<rect y="0.718323" width="48" height="48" rx="24" fill="#D5E0F9"/>
<mask id="mask0_21708_234951" style="mask-type:alpha" maskUnits="userSpaceOnUse" x="12" y="12" width="24" height="25">
<rect x="12" y="12.7183" width="24" height="24" fill="#D9D9D9"/>
</mask>
<g mask="url(#mask0_21708_234951)">
<path d="M21.0752 28.9683L24.0002 27.1933L26.9252 28.9683L26.1502 25.6433L28.7502 23.3933L25.3252 23.1183L24.0002 19.9683L22.6752 23.1183L19.2502 23.3933L21.8502 25.6433L21.0752 28.9683ZM24.0002 36.0183L20.6502 32.7183H16.0002V28.0683L12.7002 24.7183L16.0002 21.3683V16.7183H20.6502L24.0002 13.4183L27.3502 16.7183H32.0002V21.3683L35.3002 24.7183L32.0002 28.0683V32.7183H27.3502L24.0002 36.0183ZM24.0002 33.2183L26.5002 30.7183H30.0002V27.2183L32.5002 24.7183L30.0002 22.2183V18.7183H26.5002L24.0002 16.2183L21.5002 18.7183H18.0002V22.2183L15.5002 24.7183L18.0002 27.2183V30.7183H21.5002L24.0002 33.2183Z" fill="#284093"/>
</g>
</svg>
