<svg width="6" height="16" viewBox="0 0 6 16" fill="none" xmlns="http://www.w3.org/2000/svg">
<g id="boy">
<path id="boy_2" d="M3 3.78125C2.51667 3.78125 2.10417 3.62109 1.7625 3.30078C1.42083 2.98047 1.25 2.59375 1.25 2.14062C1.25 1.6875 1.42083 1.30078 1.7625 0.980469C2.10417 0.660156 2.51667 0.5 3 0.5C3.48333 0.5 3.89583 0.660156 4.2375 0.980469C4.57917 1.30078 4.75 1.6875 4.75 2.14062C4.75 2.59375 4.57917 2.98047 4.2375 3.30078C3.89583 3.62109 3.48333 3.78125 3 3.78125ZM1 14.5625V10.8125C0.716667 10.8125 0.479167 10.7227 0.2875 10.543C0.0958333 10.3633 0 10.1406 0 9.875V6.59375C0 6.07812 0.195833 5.63672 0.5875 5.26953C0.979167 4.90234 1.45 4.71875 2 4.71875H4C4.55 4.71875 5.02083 4.90234 5.4125 5.26953C5.80417 5.63672 6 6.07812 6 6.59375V9.875C6 10.1406 5.90417 10.3633 5.7125 10.543C5.52083 10.7227 5.28333 10.8125 5 10.8125V14.5625C5 14.8281 4.90417 15.0508 4.7125 15.2305C4.52083 15.4102 4.28333 15.5 4 15.5H2C1.71667 15.5 1.47917 15.4102 1.2875 15.2305C1.09583 15.0508 1 14.8281 1 14.5625Z" fill="#393939"/>
</g>
</svg>
