<svg width="41" height="40" viewBox="0 0 41 40" fill="none" xmlns="http://www.w3.org/2000/svg">
<circle cx="20.8384" cy="20" r="19.5" fill="white" stroke="#EAEAEA"/>
<mask id="mask0_3568_34071" style="mask-type:alpha" maskUnits="userSpaceOnUse" x="8" y="8" width="25" height="24">
<rect x="8.83838" y="8" width="24" height="24" fill="#D9D9D9"/>
</mask>
<g mask="url(#mask0_3568_34071)">
<path d="M13.8384 27C13.555 27 13.3175 26.9042 13.1259 26.7125C12.9342 26.5208 12.8384 26.2833 12.8384 26C12.8384 25.7167 12.9342 25.4792 13.1259 25.2875C13.3175 25.0958 13.555 25 13.8384 25H14.8384V18C14.8384 16.6167 15.255 15.3875 16.0884 14.3125C16.9217 13.2375 18.005 12.5333 19.3384 12.2V11.5C19.3384 11.0833 19.4842 10.7292 19.7759 10.4375C20.0675 10.1458 20.4217 10 20.8384 10C21.255 10 21.6092 10.1458 21.9009 10.4375C22.1925 10.7292 22.3384 11.0833 22.3384 11.5V12.2C23.6717 12.5333 24.755 13.2375 25.5884 14.3125C26.4217 15.3875 26.8384 16.6167 26.8384 18V25H27.8384C28.1217 25 28.3592 25.0958 28.5509 25.2875C28.7425 25.4792 28.8384 25.7167 28.8384 26C28.8384 26.2833 28.7425 26.5208 28.5509 26.7125C28.3592 26.9042 28.1217 27 27.8384 27H13.8384ZM20.8384 30C20.2884 30 19.8175 29.8042 19.4259 29.4125C19.0342 29.0208 18.8384 28.55 18.8384 28H22.8384C22.8384 28.55 22.6425 29.0208 22.2509 29.4125C21.8592 29.8042 21.3884 30 20.8384 30ZM16.8384 25H24.8384V18C24.8384 16.9 24.4467 15.9583 23.6634 15.175C22.88 14.3917 21.9384 14 20.8384 14C19.7384 14 18.7967 14.3917 18.0134 15.175C17.23 15.9583 16.8384 16.9 16.8384 18V25Z" fill="#666666"/>
</g>
</svg>
