<svg width="41" height="40" viewBox="0 0 41 40" fill="none" xmlns="http://www.w3.org/2000/svg">
<circle cx="20.8384" cy="20" r="19.5" fill="white" stroke="#EAEAEA"/>
<mask id="mask0_3568_34076" style="mask-type:alpha" maskUnits="userSpaceOnUse" x="8" y="8" width="25" height="24">
<rect x="8.99988" y="8" width="24" height="24" fill="#D9D9D9"/>
</mask>
<g mask="url(#mask0_3568_34076)">
<path d="M23.5999 16.075C23.5999 15.3583 23.3624 14.7833 22.8874 14.35C22.4124 13.9167 21.7833 13.7 20.9999 13.7C20.5166 13.7 20.0791 13.8042 19.6874 14.0125C19.2958 14.2208 18.9583 14.525 18.6749 14.925C18.4083 15.3083 18.0458 15.5292 17.5874 15.5875C17.1291 15.6458 16.7333 15.525 16.3999 15.225C16.1666 15.0083 16.0374 14.7417 16.0124 14.425C15.9874 14.1083 16.0666 13.8083 16.2499 13.525C16.7833 12.725 17.4624 12.1042 18.2874 11.6625C19.1124 11.2208 20.0166 11 20.9999 11C22.6166 11 23.9291 11.4583 24.9374 12.375C25.9458 13.2917 26.4499 14.4917 26.4499 15.975C26.4499 16.725 26.2916 17.4 25.9749 18C25.6583 18.6 25.0749 19.3083 24.2249 20.125C23.6083 20.7083 23.1916 21.1625 22.9749 21.4875C22.7583 21.8125 22.6166 22.1833 22.5499 22.6C22.4833 23 22.3124 23.3333 22.0374 23.6C21.7624 23.8667 21.4333 24 21.0499 24C20.6666 24 20.3374 23.8708 20.0624 23.6125C19.7874 23.3542 19.6499 23.0333 19.6499 22.65C19.6499 22 19.7916 21.4042 20.0749 20.8625C20.3583 20.3208 20.8333 19.75 21.4999 19.15C22.3499 18.4 22.9124 17.8208 23.1874 17.4125C23.4624 17.0042 23.5999 16.5583 23.5999 16.075ZM20.9999 30C20.4499 30 19.9791 29.8042 19.5874 29.4125C19.1958 29.0208 18.9999 28.55 18.9999 28C18.9999 27.45 19.1958 26.9792 19.5874 26.5875C19.9791 26.1958 20.4499 26 20.9999 26C21.5499 26 22.0208 26.1958 22.4124 26.5875C22.8041 26.9792 22.9999 27.45 22.9999 28C22.9999 28.55 22.8041 29.0208 22.4124 29.4125C22.0208 29.8042 21.5499 30 20.9999 30Z" fill="#666666"/>
</g>
</svg>
