<svg width="28" height="28" viewBox="0 0 28 28" fill="none" xmlns="http://www.w3.org/2000/svg">
<g id="Component 8">
<circle id="Ellipse 3" cx="14" cy="14" r="13.5" fill="white" stroke="#EAEAEA"/>
<g id="download">
<mask id="mask0_3813_461" style="mask-type:alpha" maskUnits="userSpaceOnUse" x="5" y="5" width="18" height="18">
<rect id="Bounding box" x="5.58203" y="5.90088" width="16.8" height="16.8" fill="#D9D9D9"/>
</mask>
<g mask="url(#mask0_3813_461)">
<path id="download_2" d="M13.9821 16.8034C13.8887 16.8034 13.8012 16.7888 13.7196 16.7597C13.6379 16.7305 13.5621 16.6809 13.4921 16.6109L10.9721 14.0909C10.8321 13.9509 10.765 13.7876 10.7708 13.6009C10.7767 13.4143 10.8437 13.2509 10.9721 13.1109C11.1121 12.9709 11.2783 12.898 11.4708 12.8922C11.6633 12.8863 11.8296 12.9534 11.9696 13.0934L13.2821 14.4059V9.40093C13.2821 9.20259 13.3492 9.03634 13.4833 8.90218C13.6175 8.76801 13.7837 8.70093 13.9821 8.70093C14.1804 8.70093 14.3467 8.76801 14.4808 8.90218C14.615 9.03634 14.6821 9.20259 14.6821 9.40093V14.4059L15.9946 13.0934C16.1346 12.9534 16.3008 12.8863 16.4933 12.8922C16.6858 12.898 16.8521 12.9709 16.9921 13.1109C17.1204 13.2509 17.1875 13.4143 17.1933 13.6009C17.1992 13.7876 17.1321 13.9509 16.9921 14.0909L14.4721 16.6109C14.4021 16.6809 14.3262 16.7305 14.2446 16.7597C14.1629 16.7888 14.0754 16.8034 13.9821 16.8034ZM9.78208 19.9009C9.39708 19.9009 9.0675 19.7638 8.79333 19.4897C8.51916 19.2155 8.38208 18.8859 8.38208 18.5009V17.1009C8.38208 16.9026 8.44916 16.7363 8.58333 16.6022C8.7175 16.468 8.88375 16.4009 9.08208 16.4009C9.28041 16.4009 9.44666 16.468 9.58083 16.6022C9.715 16.7363 9.78208 16.9026 9.78208 17.1009V18.5009H18.1821V17.1009C18.1821 16.9026 18.2492 16.7363 18.3833 16.6022C18.5175 16.468 18.6837 16.4009 18.8821 16.4009C19.0804 16.4009 19.2467 16.468 19.3808 16.6022C19.515 16.7363 19.5821 16.9026 19.5821 17.1009V18.5009C19.5821 18.8859 19.445 19.2155 19.1708 19.4897C18.8967 19.7638 18.5671 19.9009 18.1821 19.9009H9.78208Z" fill="#393939"/>
</g>
</g>
</g>
</svg>
