<svg width="24" height="24" viewBox="0 0 24 24" fill="none" xmlns="http://www.w3.org/2000/svg">
<mask id="mask0_5828_99" style="mask-type:alpha" maskUnits="userSpaceOnUse" x="0" y="0" width="24" height="24">
<rect width="24" height="24" fill="#D9D9D9"/>
</mask>
<g mask="url(#mask0_5828_99)">
<path d="M13.95 20.3999L19.9 18.5499C19.8167 18.3999 19.6958 18.2707 19.5375 18.1624C19.3792 18.0541 19.2 17.9999 19 17.9999H13.95C13.5 17.9999 13.1417 17.9832 12.875 17.9499C12.6083 17.9166 12.3333 17.8499 12.05 17.7499L10.625 17.2749C10.3583 17.1916 10.1667 17.0249 10.05 16.7749C9.93333 16.5249 9.91667 16.2666 10 15.9999C10.0833 15.7332 10.2458 15.5374 10.4875 15.4124C10.7292 15.2874 10.9833 15.2666 11.25 15.3499L12.3 15.6999C12.5833 15.7832 12.9042 15.8499 13.2625 15.8999C13.6208 15.9499 14.1083 15.9832 14.725 15.9999H15C15 15.8166 14.9458 15.6416 14.8375 15.4749C14.7292 15.3082 14.6 15.1999 14.45 15.1499L8.6 12.9999H7V18.4999L13.95 20.3999ZM13.425 22.3499L7 20.5499C6.86667 20.9832 6.60417 21.3332 6.2125 21.5999C5.82083 21.8666 5.41667 21.9999 5 21.9999H3C2.45 21.9999 1.97917 21.8041 1.5875 21.4124C1.19583 21.0207 1 20.5499 1 19.9999V12.9999C1 12.4499 1.19583 11.9791 1.5875 11.5874C1.97917 11.1957 2.45 10.9999 3 10.9999H8.6C8.71667 10.9999 8.83333 11.0124 8.95 11.0374C9.06667 11.0624 9.175 11.0916 9.275 11.1249L15.15 13.2999C15.7 13.4999 16.1458 13.8499 16.4875 14.3499C16.8292 14.8499 17 15.3999 17 15.9999H19C19.8333 15.9999 20.5417 16.2749 21.125 16.8249C21.7083 17.3749 22 18.0999 22 18.9999C22 19.3666 21.9042 19.6541 21.7125 19.8624C21.5208 20.0707 21.225 20.2416 20.825 20.3749L14.575 22.3249C14.3917 22.3916 14.2 22.4249 14 22.4249C13.8 22.4249 13.6083 22.3999 13.425 22.3499ZM3 19.9999H5V12.9999H3V19.9999ZM14 1.94989C14.2 1.94989 14.3958 1.97906 14.5875 2.03739C14.7792 2.09572 14.9667 2.19156 15.15 2.32489L20.15 5.89989C20.4167 6.08322 20.625 6.31656 20.775 6.59989C20.925 6.88322 21 7.19156 21 7.52489V12.9999C21 13.2832 20.9042 13.5207 20.7125 13.7124C20.5208 13.9041 20.2833 13.9999 20 13.9999C19.7167 13.9999 19.4792 13.9041 19.2875 13.7124C19.0958 13.5207 19 13.2832 19 12.9999V7.49989L14 3.99989L9 7.49989V7.99989C9 8.28322 8.90417 8.52072 8.7125 8.71239C8.52083 8.90406 8.28333 8.99989 8 8.99989C7.71667 8.99989 7.47917 8.90406 7.2875 8.71239C7.09583 8.52072 7 8.28322 7 7.99989V7.52489C7 7.19156 7.075 6.88322 7.225 6.59989C7.375 6.31656 7.58333 6.08322 7.85 5.89989L12.85 2.32489C13.0333 2.19156 13.2208 2.09572 13.4125 2.03739C13.6042 1.97906 13.8 1.94989 14 1.94989ZM13 7.99989C13.1333 7.99989 13.25 7.94989 13.35 7.84989C13.45 7.74989 13.5 7.63322 13.5 7.49989C13.5 7.36656 13.45 7.24989 13.35 7.14989C13.25 7.04989 13.1333 6.99989 13 6.99989C12.8667 6.99989 12.75 7.04989 12.65 7.14989C12.55 7.24989 12.5 7.36656 12.5 7.49989C12.5 7.63322 12.55 7.74989 12.65 7.84989C12.75 7.94989 12.8667 7.99989 13 7.99989ZM15 7.99989C15.1333 7.99989 15.25 7.94989 15.35 7.84989C15.45 7.74989 15.5 7.63322 15.5 7.49989C15.5 7.36656 15.45 7.24989 15.35 7.14989C15.25 7.04989 15.1333 6.99989 15 6.99989C14.8667 6.99989 14.75 7.04989 14.65 7.14989C14.55 7.24989 14.5 7.36656 14.5 7.49989C14.5 7.63322 14.55 7.74989 14.65 7.84989C14.75 7.94989 14.8667 7.99989 15 7.99989ZM13 9.99989C13.1333 9.99989 13.25 9.94989 13.35 9.84989C13.45 9.74989 13.5 9.63322 13.5 9.49989C13.5 9.36656 13.45 9.24989 13.35 9.14989C13.25 9.04989 13.1333 8.99989 13 8.99989C12.8667 8.99989 12.75 9.04989 12.65 9.14989C12.55 9.24989 12.5 9.36656 12.5 9.49989C12.5 9.63322 12.55 9.74989 12.65 9.84989C12.75 9.94989 12.8667 9.99989 13 9.99989ZM15 9.99989C15.1333 9.99989 15.25 9.94989 15.35 9.84989C15.45 9.74989 15.5 9.63322 15.5 9.49989C15.5 9.36656 15.45 9.24989 15.35 9.14989C15.25 9.04989 15.1333 8.99989 15 8.99989C14.8667 8.99989 14.75 9.04989 14.65 9.14989C14.55 9.24989 14.5 9.36656 14.5 9.49989C14.5 9.63322 14.55 9.74989 14.65 9.84989C14.75 9.94989 14.8667 9.99989 15 9.99989Z" fill="#161616"/>
</g>
</svg>
