<svg width="25" height="24" viewBox="0 0 25 24" fill="none" xmlns="http://www.w3.org/2000/svg">
<mask id="mask0_3568_34073" style="mask-type:alpha" maskUnits="userSpaceOnUse" x="0" y="0" width="25" height="24">
<rect x="0.838379" width="24" height="24" fill="#D9D9D9"/>
</mask>
<g mask="url(#mask0_3568_34073)">
<path d="M5.83838 19C5.55505 19 5.31755 18.9042 5.12588 18.7125C4.93421 18.5208 4.83838 18.2833 4.83838 18C4.83838 17.7167 4.93421 17.4792 5.12588 17.2875C5.31755 17.0958 5.55505 17 5.83838 17H6.83838V10C6.83838 8.61667 7.25505 7.3875 8.08838 6.3125C8.92171 5.2375 10.005 4.53333 11.3384 4.2V3.5C11.3384 3.08333 11.4842 2.72917 11.7759 2.4375C12.0675 2.14583 12.4217 2 12.8384 2C13.255 2 13.6092 2.14583 13.9009 2.4375C14.1925 2.72917 14.3384 3.08333 14.3384 3.5V4.2C15.6717 4.53333 16.755 5.2375 17.5884 6.3125C18.4217 7.3875 18.8384 8.61667 18.8384 10V17H19.8384C20.1217 17 20.3592 17.0958 20.5509 17.2875C20.7425 17.4792 20.8384 17.7167 20.8384 18C20.8384 18.2833 20.7425 18.5208 20.5509 18.7125C20.3592 18.9042 20.1217 19 19.8384 19H5.83838ZM12.8384 22C12.2884 22 11.8175 21.8042 11.4259 21.4125C11.0342 21.0208 10.8384 20.55 10.8384 20H14.8384C14.8384 20.55 14.6425 21.0208 14.2509 21.4125C13.8592 21.8042 13.3884 22 12.8384 22ZM8.83838 17H16.8384V10C16.8384 8.9 16.4467 7.95833 15.6634 7.175C14.88 6.39167 13.9384 6 12.8384 6C11.7384 6 10.7967 6.39167 10.0134 7.175C9.23005 7.95833 8.83838 8.9 8.83838 10V17Z" fill="#666666"/>
</g>
</svg>
