<svg width="17" height="20" viewBox="0 0 17 20" fill="none" xmlns="http://www.w3.org/2000/svg">
<path d="M1.83838 17C1.55505 17 1.31755 16.9042 1.12588 16.7125C0.934212 16.5208 0.838379 16.2833 0.838379 16C0.838379 15.7167 0.934212 15.4792 1.12588 15.2875C1.31755 15.0958 1.55505 15 1.83838 15H2.83838V8C2.83838 6.61667 3.25505 5.3875 4.08838 4.3125C4.92171 3.2375 6.00505 2.53333 7.33838 2.2V1.5C7.33838 1.08333 7.48421 0.729167 7.77588 0.4375C8.06755 0.145833 8.42171 0 8.83838 0C9.25505 0 9.60921 0.145833 9.90088 0.4375C10.1925 0.729167 10.3384 1.08333 10.3384 1.5V2.2C11.6717 2.53333 12.755 3.2375 13.5884 4.3125C14.4217 5.3875 14.8384 6.61667 14.8384 8V15H15.8384C16.1217 15 16.3592 15.0958 16.5509 15.2875C16.7425 15.4792 16.8384 15.7167 16.8384 16C16.8384 16.2833 16.7425 16.5208 16.5509 16.7125C16.3592 16.9042 16.1217 17 15.8384 17H1.83838ZM8.83838 20C8.28838 20 7.81755 19.8042 7.42588 19.4125C7.03421 19.0208 6.83838 18.55 6.83838 18H10.8384C10.8384 18.55 10.6425 19.0208 10.2509 19.4125C9.85921 19.8042 9.38838 20 8.83838 20ZM4.83838 15H12.8384V8C12.8384 6.9 12.4467 5.95833 11.6634 5.175C10.88 4.39167 9.93838 4 8.83838 4C7.73838 4 6.79671 4.39167 6.01338 5.175C5.23005 5.95833 4.83838 6.9 4.83838 8V15Z" fill="#666666"/>
</svg>
