<svg width="11" height="19" viewBox="0 0 11 19" fill="none" xmlns="http://www.w3.org/2000/svg">
<path d="M7.59994 5.075C7.59994 4.35833 7.36243 3.78333 6.88743 3.35C6.41244 2.91667 5.78327 2.7 4.99993 2.7C4.5166 2.7 4.0791 2.80417 3.68743 3.0125C3.29577 3.22083 2.95827 3.525 2.67493 3.925C2.40827 4.30833 2.04577 4.52917 1.58743 4.5875C1.1291 4.64583 0.733268 4.525 0.399935 4.225C0.166601 4.00833 0.0374346 3.74167 0.0124346 3.425C-0.0125654 3.10833 0.0666012 2.80833 0.249935 2.525C0.783268 1.725 1.46243 1.10417 2.28743 0.6625C3.11243 0.220833 4.0166 0 4.99993 0C6.6166 0 7.9291 0.458333 8.93744 1.375C9.94577 2.29167 10.4499 3.49167 10.4499 4.975C10.4499 5.725 10.2916 6.4 9.97494 7C9.65827 7.6 9.07494 8.30833 8.22494 9.125C7.60827 9.70833 7.1916 10.1625 6.97494 10.4875C6.75827 10.8125 6.6166 11.1833 6.54993 11.6C6.48327 12 6.31244 12.3333 6.03744 12.6C5.76243 12.8667 5.43327 13 5.04993 13C4.6666 13 4.33743 12.8708 4.06243 12.6125C3.78743 12.3542 3.64993 12.0333 3.64993 11.65C3.64993 11 3.7916 10.4042 4.07493 9.8625C4.35827 9.32083 4.83327 8.75 5.49993 8.15C6.34993 7.4 6.91244 6.82083 7.18744 6.4125C7.46244 6.00417 7.59994 5.55833 7.59994 5.075ZM4.99993 19C4.44993 19 3.9791 18.8042 3.58743 18.4125C3.19577 18.0208 2.99993 17.55 2.99993 17C2.99993 16.45 3.19577 15.9792 3.58743 15.5875C3.9791 15.1958 4.44993 15 4.99993 15C5.54993 15 6.02077 15.1958 6.41244 15.5875C6.8041 15.9792 6.99994 16.45 6.99994 17C6.99994 17.55 6.8041 18.0208 6.41244 18.4125C6.02077 18.8042 5.54993 19 4.99993 19Z" fill="#666666"/>
</svg>
