<svg width="24" height="24" viewBox="0 0 24 24" fill="none" xmlns="http://www.w3.org/2000/svg">
<mask id="mask0_5828_93" style="mask-type:alpha" maskUnits="userSpaceOnUse" x="0" y="0" width="24" height="24">
<rect width="24" height="24" fill="#D9D9D9"/>
</mask>
<g mask="url(#mask0_5828_93)">
<path d="M4.00022 12.025C4.00022 13.4417 4.35438 14.7583 5.06272 15.975C5.77105 17.1917 6.73355 18.1667 7.95022 18.9C8.18355 19.05 8.34605 19.2542 8.43772 19.5125C8.52938 19.7708 8.50855 20.0167 8.37522 20.25C8.24188 20.5 8.03772 20.6625 7.76272 20.7375C7.48772 20.8125 7.22522 20.7833 6.97522 20.65C5.42522 19.75 4.20855 18.5333 3.32522 17C2.44188 15.4667 2.00022 13.8083 2.00022 12.025C2.00022 11.5917 2.02938 11.1667 2.08772 10.75C2.14605 10.3333 2.22522 9.91667 2.32522 9.5L2.00022 9.7C1.76688 9.85 1.51688 9.8875 1.25022 9.8125C0.98355 9.7375 0.78355 9.58333 0.650217 9.35C0.516883 9.11667 0.487717 8.8625 0.562717 8.5875C0.637717 8.3125 0.791883 8.10833 1.02522 7.975L4.05022 6.225C4.28355 6.09167 4.53772 6.0625 4.81272 6.1375C5.08772 6.2125 5.29188 6.36667 5.42522 6.6L7.17522 9.6C7.30855 9.83333 7.33772 10.0875 7.26272 10.3625C7.18772 10.6375 7.03355 10.8417 6.80022 10.975C6.56688 11.1083 6.31272 11.1375 6.03772 11.0625C5.76272 10.9875 5.55855 10.8333 5.42522 10.6L4.57522 9.125C4.39188 9.59167 4.25022 10.0667 4.15022 10.55C4.05022 11.0333 4.00022 11.525 4.00022 12.025ZM12.0002 4C11.3169 4 10.6419 4.0875 9.97522 4.2625C9.30855 4.4375 8.67522 4.69167 8.07522 5.025C7.82522 5.15833 7.56272 5.20417 7.28772 5.1625C7.01272 5.12083 6.80855 4.98333 6.67522 4.75C6.52522 4.48333 6.49188 4.2125 6.57522 3.9375C6.65855 3.6625 6.83355 3.45 7.10022 3.3C7.85022 2.86667 8.63772 2.54167 9.46272 2.325C10.2877 2.10833 11.1335 2 12.0002 2C13.3169 2 14.5794 2.24583 15.7877 2.7375C16.996 3.22917 18.0752 3.94167 19.0252 4.875V4.5C19.0252 4.21667 19.121 3.97917 19.3127 3.7875C19.5044 3.59583 19.7419 3.5 20.0252 3.5C20.3085 3.5 20.546 3.59583 20.7377 3.7875C20.9294 3.97917 21.0252 4.21667 21.0252 4.5V8C21.0252 8.28333 20.9294 8.52083 20.7377 8.7125C20.546 8.90417 20.3085 9 20.0252 9H16.5252C16.2419 9 16.0044 8.90417 15.8127 8.7125C15.621 8.52083 15.5252 8.28333 15.5252 8C15.5252 7.71667 15.621 7.47917 15.8127 7.2875C16.0044 7.09583 16.2419 7 16.5252 7H18.2502C17.4836 6.05 16.5585 5.3125 15.4752 4.7875C14.3919 4.2625 13.2336 4 12.0002 4ZM18.0502 17.275C18.6835 16.5417 19.1669 15.7333 19.5002 14.85C19.8336 13.9667 20.0002 13.0417 20.0002 12.075C20.0002 11.7917 20.0961 11.5417 20.2877 11.325C20.4794 11.1083 20.7169 11 21.0002 11C21.2836 11 21.521 11.1083 21.7127 11.325C21.9044 11.5417 22.0002 11.7917 22.0002 12.075C22.0002 13.1583 21.8294 14.2042 21.4877 15.2125C21.146 16.2208 20.6502 17.1583 20.0002 18.025C19.3502 18.8917 18.5794 19.6333 17.6877 20.25C16.7961 20.8667 15.8252 21.325 14.7752 21.625L15.0252 21.775C15.2586 21.9083 15.4086 22.1125 15.4752 22.3875C15.5419 22.6625 15.5085 22.9167 15.3752 23.15C15.2419 23.3833 15.0419 23.5333 14.7752 23.6C14.5086 23.6667 14.2586 23.6333 14.0252 23.5L10.9752 21.75C10.7419 21.6167 10.5877 21.4125 10.5127 21.1375C10.4377 20.8625 10.4669 20.6083 10.6002 20.375L12.3502 17.35C12.4836 17.1167 12.6836 16.9667 12.9502 16.9C13.2169 16.8333 13.4669 16.8667 13.7002 17C13.9336 17.1333 14.0877 17.3375 14.1627 17.6125C14.2377 17.8875 14.2086 18.1417 14.0752 18.375L13.1502 19.95C14.1002 19.8167 14.996 19.5208 15.8377 19.0625C16.6794 18.6042 17.4169 18.0083 18.0502 17.275Z" fill="#161616"/>
</g>
</svg>
