<svg width="28" height="28" viewBox="0 0 28 28" fill="none" xmlns="http://www.w3.org/2000/svg">
<g id="Component 7">
<circle id="Ellipse 3" cx="14" cy="14" r="13.5" fill="white" stroke="#EAEAEA"/>
<g id="share">
<mask id="mask0_3813_466" style="mask-type:alpha" maskUnits="userSpaceOnUse" x="6" y="6" width="16" height="16">
<rect id="Bounding box" x="6" y="6" width="16" height="16" fill="#D9D9D9"/>
</mask>
<g mask="url(#mask0_3813_466)">
<path id="share_2" d="M18 20.6666C17.4444 20.6666 16.9722 20.4721 16.5833 20.0833C16.1944 19.6944 16 19.2221 16 18.6666C16 18.5888 16.0056 18.5083 16.0167 18.4249C16.0278 18.3416 16.0444 18.2666 16.0667 18.1999L11.3667 15.4666C11.1778 15.6333 10.9667 15.7638 10.7333 15.8583C10.5 15.9527 10.2556 15.9999 10 15.9999C9.44444 15.9999 8.97222 15.8055 8.58333 15.4166C8.19444 15.0277 8 14.5555 8 13.9999C8 13.4444 8.19444 12.9721 8.58333 12.5833C8.97222 12.1944 9.44444 11.9999 10 11.9999C10.2556 11.9999 10.5 12.0471 10.7333 12.1416C10.9667 12.236 11.1778 12.3666 11.3667 12.5333L16.0667 9.79992C16.0444 9.73325 16.0278 9.65825 16.0167 9.57492C16.0056 9.49159 16 9.41103 16 9.33325C16 8.7777 16.1944 8.30547 16.5833 7.91659C16.9722 7.5277 17.4444 7.33325 18 7.33325C18.5556 7.33325 19.0278 7.5277 19.4167 7.91659C19.8056 8.30547 20 8.7777 20 9.33325C20 9.88881 19.8056 10.361 19.4167 10.7499C19.0278 11.1388 18.5556 11.3333 18 11.3333C17.7444 11.3333 17.5 11.286 17.2667 11.1916C17.0333 11.0971 16.8222 10.9666 16.6333 10.7999L11.9333 13.5333C11.9556 13.5999 11.9722 13.6749 11.9833 13.7583C11.9944 13.8416 12 13.9221 12 13.9999C12 14.0777 11.9944 14.1583 11.9833 14.2416C11.9722 14.3249 11.9556 14.3999 11.9333 14.4666L16.6333 17.1999C16.8222 17.0333 17.0333 16.9027 17.2667 16.8083C17.5 16.7138 17.7444 16.6666 18 16.6666C18.5556 16.6666 19.0278 16.861 19.4167 17.2499C19.8056 17.6388 20 18.111 20 18.6666C20 19.2221 19.8056 19.6944 19.4167 20.0833C19.0278 20.4721 18.5556 20.6666 18 20.6666ZM18 9.99992C18.1889 9.99992 18.3472 9.93603 18.475 9.80825C18.6028 9.68047 18.6667 9.52214 18.6667 9.33325C18.6667 9.14436 18.6028 8.98603 18.475 8.85825C18.3472 8.73047 18.1889 8.66659 18 8.66659C17.8111 8.66659 17.6528 8.73047 17.525 8.85825C17.3972 8.98603 17.3333 9.14436 17.3333 9.33325C17.3333 9.52214 17.3972 9.68047 17.525 9.80825C17.6528 9.93603 17.8111 9.99992 18 9.99992ZM10 14.6666C10.1889 14.6666 10.3472 14.6027 10.475 14.4749C10.6028 14.3471 10.6667 14.1888 10.6667 13.9999C10.6667 13.811 10.6028 13.6527 10.475 13.5249C10.3472 13.3971 10.1889 13.3333 10 13.3333C9.81111 13.3333 9.65278 13.3971 9.525 13.5249C9.39722 13.6527 9.33333 13.811 9.33333 13.9999C9.33333 14.1888 9.39722 14.3471 9.525 14.4749C9.65278 14.6027 9.81111 14.6666 10 14.6666ZM18 19.3333C18.1889 19.3333 18.3472 19.2694 18.475 19.1416C18.6028 19.0138 18.6667 18.8555 18.6667 18.6666C18.6667 18.4777 18.6028 18.3194 18.475 18.1916C18.3472 18.0638 18.1889 17.9999 18 17.9999C17.8111 17.9999 17.6528 18.0638 17.525 18.1916C17.3972 18.3194 17.3333 18.4777 17.3333 18.6666C17.3333 18.8555 17.3972 19.0138 17.525 19.1416C17.6528 19.2694 17.8111 19.3333 18 19.3333Z" fill="#393939"/>
</g>
</g>
</g>
</svg>
