<svg width="49" height="35" viewBox="0 0 49 35" fill="none" xmlns="http://www.w3.org/2000/svg">
<path d="M11.6666 34.9999C8.44186 34.9999 5.69123 33.8813 3.41472 31.644C1.13824 29.4068 0 26.6725 0 23.441C0 20.5423 0.932594 17.9928 2.79778 15.7926C4.66297 13.5924 6.9761 12.2889 9.73718 11.8821C10.485 8.39403 12.2388 5.54167 14.9984 3.325C17.758 1.10833 20.9252 0 24.4999 0C28.7249 0 32.3089 1.47154 35.2519 4.41461C38.195 7.35764 39.6666 10.9416 39.6666 15.1666V16.3333H40.3845C42.8435 16.5248 44.8941 17.5135 46.5364 19.2994C48.1787 21.0852 48.9999 23.2077 48.9999 25.6666C48.9999 28.2691 48.1024 30.4753 46.3076 32.2852C44.5127 34.095 42.314 34.9999 39.7115 34.9999H26.9679C25.7893 34.9999 24.7916 34.5916 23.975 33.7749C23.1583 32.9582 22.75 31.9606 22.75 30.7819V18.0024L18.4333 22.2473L15.9743 19.8108L24.4999 11.2853L33.0255 19.8108L30.5666 22.2473L26.2499 18.0024V30.7819C26.2499 30.9614 26.3247 31.126 26.4743 31.2756C26.6239 31.4252 26.7884 31.4999 26.9679 31.4999H39.6666C41.2999 31.4999 42.6805 30.9361 43.8083 29.8083C44.9361 28.6805 45.4999 27.2999 45.4999 25.6666C45.4999 24.0333 44.9361 22.6527 43.8083 21.5249C42.6805 20.3972 41.2999 19.8333 39.6666 19.8333H36.1666V15.1666C36.1666 11.9388 35.0291 9.18744 32.7541 6.91244C30.4791 4.63744 27.7277 3.49994 24.4999 3.49994C21.2722 3.49994 18.5208 4.63744 16.2458 6.91244C13.9708 9.18744 12.8333 11.9388 12.8333 15.1666H11.6217C9.41107 15.1666 7.50476 15.9638 5.90281 17.5583C4.3009 19.1527 3.49994 21.0777 3.49994 23.3333C3.49994 25.5888 4.29716 27.5138 5.89161 29.1083C7.48605 30.7027 9.41105 31.4999 11.6666 31.4999H17.4999V34.9999H11.6666Z" fill="#8D8D8D"/>
</svg>
