<svg width="28" height="28" viewBox="0 0 28 28" fill="none" xmlns="http://www.w3.org/2000/svg">
<rect width="28" height="28" rx="14" fill="black"/>
<mask id="mask0_5624_69350" style="mask-type:alpha" maskUnits="userSpaceOnUse" x="6" y="6" width="20" height="20">
<rect x="6" y="6" width="20" height="20" fill="#D9D9D9"/>
</mask>
<g mask="url(#mask0_5624_69350)">
<path d="M8.89583 19.1042H9.9349L17.0625 11.9766L16.0234 10.9375L8.89583 18.0651V19.1042ZM8.16667 20.5625C7.96007 20.5625 7.78689 20.4926 7.64714 20.3529C7.50738 20.2131 7.4375 20.0399 7.4375 19.8333V18.0651C7.4375 17.8707 7.47396 17.6853 7.54688 17.5091C7.61979 17.3329 7.72309 17.178 7.85677 17.0443L17.0625 7.85677C17.2083 7.72309 17.3694 7.61979 17.5456 7.54688C17.7218 7.47396 17.9071 7.4375 18.1016 7.4375C18.296 7.4375 18.4844 7.47396 18.6667 7.54688C18.849 7.61979 19.0069 7.72917 19.1406 7.875L20.1432 8.89583C20.2891 9.02951 20.3954 9.1875 20.4622 9.36979C20.5291 9.55208 20.5625 9.73438 20.5625 9.91667C20.5625 10.1111 20.5291 10.2964 20.4622 10.4727C20.3954 10.6489 20.2891 10.8099 20.1432 10.9557L10.9557 20.1432C10.822 20.2769 10.6671 20.3802 10.4909 20.4531C10.3147 20.526 10.1293 20.5625 9.9349 20.5625H8.16667ZM16.5339 11.4661L16.0234 10.9375L17.0625 11.9766L16.5339 11.4661Z" fill="white"/>
</g>
</svg>
