<svg width="79" height="20" viewBox="0 0 79 20" fill="none" xmlns="http://www.w3.org/2000/svg">
<path fill-rule="evenodd" clip-rule="evenodd" d="M2.53609 14.7835C2.53609 16.5341 2.53609 18.2135 2.53609 19.9184C1.6806 19.9184 0.850424 19.9184 0 19.9184C0 14.7733 0 9.62318 0 4.47305C0.101241 4.46797 0.192358 4.47305 0.283475 4.47305C1.81221 4.47305 3.34095 4.46797 4.86969 4.47814C5.70493 4.48323 6.50979 4.64099 7.2691 4.99214C8.73709 5.67916 9.68369 6.81402 10.0887 8.37636C10.4936 9.94379 10.4025 11.4909 9.6432 12.9412C8.24607 15.6232 5.15822 16.2186 2.87524 14.9565C2.78413 14.9107 2.69301 14.8649 2.53609 14.7835ZM2.5614 12.5341C3.15872 12.9718 3.81172 13.2313 4.54572 13.2822C5.75555 13.3738 6.7882 12.8089 7.31972 11.7606C7.73481 10.9362 7.83605 10.0659 7.66394 9.16517C7.38552 7.69443 6.42374 6.81911 4.94056 6.72242C4.18125 6.67662 3.42194 6.71224 2.66264 6.71733C2.63733 6.71733 2.60695 6.73769 2.5614 6.76313C2.5614 8.67153 2.5614 10.585 2.5614 12.5341Z" fill="#003422"/>
<path fill-rule="evenodd" clip-rule="evenodd" d="M58.8159 15.3077C58.8159 10.2033 58.8159 5.12954 58.8159 0.0608411C59.069 -0.0104058 60.9015 -0.0256729 61.3064 0.0506629C61.3166 0.579925 61.3115 1.11937 61.3115 1.66389C61.3115 2.2203 61.3115 2.7767 61.3115 3.33311C61.3115 3.87764 61.3115 4.42216 61.3115 5.00741C61.4077 4.96669 61.4735 4.95143 61.5292 4.9158C64.1614 3.39926 67.3809 4.48323 68.4642 7.32293C69.2741 9.44507 69.0615 11.5061 67.6796 13.3484C66.6925 14.6664 65.3105 15.2975 63.6805 15.3331C62.1214 15.3636 60.5573 15.3331 58.9981 15.3331C58.9475 15.3331 58.8918 15.3178 58.8159 15.3077ZM61.3267 13.1448C61.433 13.155 61.5292 13.1652 61.6203 13.1652C62.2277 13.1652 62.8402 13.1804 63.4477 13.1601C64.6778 13.1245 65.5484 12.5239 66.0496 11.4044C66.4039 10.6206 66.4444 9.79112 66.3027 8.95143C66.0243 7.2873 64.698 6.29494 63.0326 6.51886C62.3998 6.60537 61.8228 6.83947 61.3267 7.23641C61.3267 9.21606 61.3267 11.1703 61.3267 13.1448Z" fill="#003422"/>
<path fill-rule="evenodd" clip-rule="evenodd" d="M54.4575 4.97687C54.4676 4.8242 54.4777 4.66644 54.4879 4.48832C55.3029 4.48832 56.1128 4.48832 56.9379 4.48832C56.9379 8.10664 56.9379 11.7097 56.9379 15.3433C56.1229 15.3433 55.313 15.3433 54.4929 15.3433C54.4777 15.1601 54.4626 14.9972 54.4474 14.7988C54.3158 14.87 54.2095 14.9158 54.1082 14.9718C53.4957 15.2924 52.8478 15.496 52.1593 15.5672C50.8786 15.7046 49.7498 15.3127 48.7475 14.5341C47.3554 13.4603 46.6569 12.015 46.5759 10.2746C46.4746 8.18807 47.234 6.48323 48.8842 5.20079C49.7042 4.56466 50.661 4.24914 51.6936 4.23896C52.5542 4.23387 53.3894 4.43234 54.1538 4.87C54.2246 4.91071 54.2989 4.94973 54.3765 4.98705C54.3917 4.99723 54.417 4.98196 54.4575 4.97687ZM54.4575 7.26695C53.8096 6.70715 52.6908 6.35092 51.7695 6.52903C50.7774 6.72242 50.0434 7.26695 49.6739 8.22369C49.2689 9.25677 49.2486 10.3204 49.5929 11.3738C50.3167 13.5926 52.8984 13.8369 54.4575 12.5494C54.4575 10.7835 54.4575 9.01758 54.4575 7.26695Z" fill="#003422"/>
<path fill-rule="evenodd" clip-rule="evenodd" d="M37.1149 10.6461C34.5586 10.6461 32.0276 10.6461 29.5016 10.6461C29.4004 11.6435 30.1799 12.8496 31.1569 13.2313C32.0832 13.5977 33.5614 13.5621 34.4422 12.2593C35.1711 12.2593 35.9152 12.2593 36.6948 12.2593C36.6593 12.3764 36.6441 12.468 36.6087 12.5596C35.9506 14.3356 34.3359 15.4858 32.4528 15.5876C29.7345 15.7301 27.4262 13.8573 26.9503 11.0787C26.6922 9.55193 26.8997 8.09137 27.7046 6.74277C29.3649 3.95397 33.2273 3.384 35.6216 5.57229C36.467 6.34583 36.9175 7.33819 37.1149 8.4527C37.2313 9.08374 37.2162 9.71478 37.1757 10.3458C37.1706 10.4273 37.1402 10.5138 37.1149 10.6461ZM34.7864 8.7784C34.7408 7.50104 33.5715 6.38145 32.0883 6.39672C30.6912 6.41199 29.6028 7.5214 29.4965 8.7784C31.2531 8.7784 33.0096 8.7784 34.7864 8.7784Z" fill="#003422"/>
<path d="M18.6283 15.3229C17.7728 15.3229 16.9781 15.3229 16.153 15.3229C16.153 11.7046 16.153 8.11173 16.153 4.49341C16.968 4.49341 17.7678 4.49341 18.6081 4.49341C18.6182 4.65626 18.6334 4.81911 18.6486 5.03794C18.7802 4.97178 18.8764 4.9158 18.9725 4.86491C20.3596 4.11682 21.787 4.02522 23.2399 4.62573C24.5712 5.17534 25.3102 6.19825 25.4975 7.62827C25.538 7.94379 25.5583 8.2644 25.5583 8.58501C25.5633 10.7224 25.5583 12.8547 25.5583 14.987C25.5583 15.0888 25.5583 15.1957 25.5583 15.2924C25.2647 15.384 23.417 15.3993 23.0627 15.3026C23.0627 15.1703 23.0627 15.0227 23.0627 14.8751C23.0627 12.8395 23.0627 10.8038 23.0526 8.76822C23.0475 8.13718 22.8653 7.56211 22.4147 7.09901C22.0705 6.74786 21.6402 6.55957 21.1594 6.51377C20.2381 6.42216 19.4079 6.68171 18.6283 7.24659C18.6283 9.91835 18.6283 12.6054 18.6283 15.3229Z" fill="#003422"/>
<path d="M70.3624 14.6715C70.3624 13.8522 70.3624 13.0634 70.3624 12.2186C70.4991 12.2898 70.5953 12.3458 70.6965 12.3967C71.9064 13.0736 73.1972 13.4451 74.5892 13.3942C74.9588 13.384 75.3131 13.3178 75.6421 13.1346C76.0015 12.9362 76.1787 12.6257 76.1686 12.2135C76.1585 11.8064 75.956 11.5112 75.5814 11.3738C75.2169 11.2466 74.8423 11.1601 74.4728 11.0685C73.7945 10.9107 73.1111 10.7784 72.4379 10.6003C71.9519 10.4731 71.4963 10.2593 71.0914 9.94379C70.4282 9.43489 70.0992 8.76313 70.0638 7.92853C70.0283 7.08374 70.2207 6.3102 70.7522 5.64354C71.2331 5.04812 71.8709 4.68679 72.5948 4.47305C73.8046 4.11682 75.0246 4.19316 76.2445 4.43743C76.8773 4.56466 77.4847 4.76313 78.082 5.08374C78.082 5.86237 78.082 6.65117 78.082 7.49087C77.9656 7.43489 77.8796 7.38909 77.7885 7.34328C76.609 6.74278 75.3688 6.37636 74.0273 6.43743C73.6932 6.4527 73.3693 6.51377 73.0706 6.67662C72.6606 6.90562 72.4885 7.33311 72.615 7.77076C72.6758 7.98959 72.8074 8.16262 73.0099 8.24914C73.2832 8.3611 73.5667 8.46797 73.8552 8.53921C74.6145 8.71733 75.384 8.85473 76.1433 9.03794C76.6748 9.17026 77.1759 9.38909 77.6265 9.7097C78.4161 10.2848 78.6945 11.0939 78.6844 12.0354C78.6743 13.7809 77.6923 14.8954 76.0724 15.3433C74.1843 15.8675 72.3417 15.5876 70.5649 14.7937C70.4991 14.7631 70.4384 14.7173 70.3624 14.6715Z" fill="#003422"/>
<path d="M41.9542 0.0201286C42.8047 0.0201286 43.6045 0.0201286 44.4448 0.0201286C44.4448 4.39672 44.4448 8.74786 44.4448 13.155C45.0168 13.1652 45.5534 13.1703 46.1051 13.1753C46.1051 13.9031 46.1051 14.5952 46.1051 15.3127C46.014 15.3229 45.933 15.3484 45.852 15.3484C45.3002 15.3535 44.7434 15.3433 44.1866 15.3535C42.749 15.3687 42.0757 14.4578 41.9795 13.2313C41.9542 12.9158 41.9593 12.5901 41.9593 12.2695C41.9559 8.33735 41.9542 4.4052 41.9542 0.473055C41.9542 0.33565 41.9542 0.198246 41.9542 0.0201286Z" fill="#003422"/>
<path d="M11.7996 4.49341C12.6197 4.49341 13.4144 4.49341 14.2395 4.49341C14.2395 8.11173 14.2395 11.7148 14.2395 15.3382C13.4245 15.3382 12.6197 15.3382 11.7996 15.3382C11.7996 11.7148 11.7996 8.11173 11.7996 4.49341Z" fill="#003422"/>
<path d="M14.275 1.86237H11.8401L13.5308 0.0201286H16.0517V2.59519L14.275 4.4069V1.86237Z" fill="#003422"/>
</svg>
