<svg width="64" height="20" viewBox="0 0 64 20" fill="none" xmlns="http://www.w3.org/2000/svg">
<path d="M63.5914 5.89902C63.2998 5.06777 62.7572 4.34763 62.0385 3.83819C61.3198 3.32875 60.4606 3.05518 59.5797 3.05532H59.5418C58.336 3.05532 57.2516 3.55581 56.478 4.35963C56.0814 3.94623 55.6051 3.61751 55.0779 3.39333C54.5506 3.16915 53.9834 3.05417 53.4105 3.05532H53.3726C52.3109 3.05532 51.344 3.44206 50.6046 4.08284V3.75676C50.5931 3.59885 50.5221 3.45118 50.406 3.34352C50.2899 3.23586 50.1373 3.17623 49.979 3.17665H47.1352C47.0525 3.17665 46.9707 3.19293 46.8943 3.22456C46.8179 3.25619 46.7486 3.30255 46.6901 3.361C46.6317 3.41944 46.5853 3.48883 46.5537 3.56519C46.522 3.64156 46.5057 3.7234 46.5057 3.80606V19.2493C46.5057 19.5981 46.7863 19.8787 47.1352 19.8787H49.979C50.1301 19.8782 50.276 19.823 50.3896 19.7233C50.5032 19.6237 50.5769 19.4862 50.597 19.3365V8.24982L50.6008 8.13607C50.6217 7.88584 50.7328 7.65172 50.9135 7.47733C51.0942 7.30295 51.3321 7.20018 51.5829 7.18817H52.1062C52.3757 7.20378 52.6288 7.32297 52.8125 7.52082C52.9962 7.71867 53.0964 7.97986 53.092 8.24982L53.1034 19.2834C53.1034 19.6322 53.384 19.9128 53.7328 19.9128H56.5766C56.9103 19.9128 57.1833 19.6474 57.1985 19.3137V8.23465C57.1932 7.96443 57.293 7.7027 57.4769 7.50465C57.6608 7.3066 57.9145 7.18769 58.1843 7.173H58.7076C59.3257 7.22608 59.6934 7.69245 59.6934 8.23465L59.7048 19.2531C59.7048 19.6019 59.9892 19.8825 60.3343 19.8825H63.1781C63.2607 19.8825 63.3426 19.8662 63.4189 19.8345C63.4953 19.8029 63.5647 19.7566 63.6231 19.6981C63.6816 19.6397 63.728 19.5703 63.7596 19.4939C63.7912 19.4176 63.8075 19.3357 63.8075 19.2531V7.40429C63.8075 6.59668 63.7165 6.25164 63.5914 5.89902ZM44.3407 3.21836H42.7102V0.575609C42.7107 0.490842 42.6923 0.407032 42.6564 0.33023C42.6205 0.253428 42.5681 0.185551 42.5028 0.131498C42.4375 0.0774457 42.361 0.0385673 42.2788 0.0176701C42.1967 -0.00322703 42.1109 -0.00562152 42.0277 0.0106596C40.2266 0.50736 40.5868 3.00603 37.2956 3.21836H36.9771C36.9312 3.21865 36.8854 3.22373 36.8406 3.23352H36.833C36.6932 3.26457 36.5682 3.34235 36.4786 3.45403C36.389 3.5657 36.3401 3.70458 36.3401 3.84776V6.69147C36.3401 7.03271 36.6245 7.31708 36.9733 7.31708H38.691L38.6872 19.3744C38.6872 19.7194 38.964 20 39.309 20H42.1187C42.46 20 42.7405 19.7194 42.7405 19.3782V7.32087H44.3331C44.5 7.32087 44.6601 7.25456 44.7782 7.13652C44.8962 7.01849 44.9625 6.8584 44.9625 6.69147V3.84776C44.9625 3.68214 44.8972 3.52319 44.7808 3.40537C44.6644 3.28754 44.5063 3.22035 44.3407 3.21836Z" fill="#54C1F0"/>
<path d="M34.1068 3.21834H31.263C31.0967 3.21934 30.9376 3.2861 30.8203 3.40403C30.7031 3.52196 30.6373 3.68148 30.6373 3.84775V9.72474C30.6343 9.89974 30.5627 10.0666 30.4379 10.1893C30.3131 10.312 30.145 10.3807 29.97 10.3807H28.7794C28.603 10.3807 28.4339 10.3109 28.3088 10.1866C28.1838 10.0622 28.113 9.89348 28.112 9.71715L28.1006 3.84775C28.1006 3.76509 28.0844 3.68325 28.0527 3.60689C28.0211 3.53052 27.9747 3.46114 27.9163 3.40269C27.8578 3.34425 27.7885 3.29788 27.7121 3.26625C27.6357 3.23462 27.5539 3.21834 27.4712 3.21834H24.6274C24.4611 3.21934 24.302 3.2861 24.1848 3.40403C24.0676 3.52196 24.0018 3.68148 24.0018 3.84775V10.2935C24.0018 12.7391 25.746 14.4832 28.1954 14.4832C28.1954 14.4832 30.0344 14.4832 30.0913 14.4946C30.251 14.5147 30.398 14.5921 30.5049 14.7126C30.6117 14.833 30.6711 14.9881 30.672 15.1491C30.673 15.3101 30.6153 15.4659 30.5099 15.5875C30.4045 15.7092 30.2584 15.7883 30.0989 15.8103L30.0496 15.8178L25.8901 15.833C25.7238 15.834 25.5647 15.9008 25.4474 16.0187C25.3302 16.1366 25.2644 16.2961 25.2644 16.4624V19.3061C25.2644 19.6512 25.545 19.9317 25.8901 19.9317H30.5425C32.992 19.9317 34.7362 18.1876 34.7362 15.7382V3.84775C34.7362 3.68082 34.6699 3.52073 34.5519 3.40269C34.4338 3.28466 34.2737 3.21834 34.1068 3.21834ZM6.58247 10.1835C6.58247 10.3605 6.51217 10.5302 6.38701 10.6554C6.26186 10.7805 6.09212 10.8508 5.91513 10.8508H4.11026V7.33603H5.91513C6.28293 7.33603 6.58247 7.63177 6.58247 7.99956V10.1835ZM6.83273 3.21834H0.614263C0.451657 3.21934 0.295994 3.28437 0.181013 3.39935C0.0660307 3.51433 0.000994559 3.66998 0 3.83258V19.2872C0 19.6284 0.254047 19.909 0.572554 19.9166H3.46945C3.63639 19.9166 3.79648 19.8503 3.91452 19.7322C4.03256 19.6142 4.09888 19.4541 4.09888 19.2872L4.11026 14.9647H6.83273C9.10778 14.9647 10.6927 13.3836 10.6927 11.0973V7.08957C10.6927 4.80323 9.10778 3.21834 6.83273 3.21834ZM18.3824 15.5486C18.38 15.6159 18.3672 15.6824 18.3445 15.7458C18.296 15.8738 18.2091 15.9837 18.0958 16.0604C17.9824 16.1371 17.8481 16.1769 17.7113 16.1743H16.5282C16.1566 16.1743 15.8571 15.8937 15.8571 15.5486V13.1144C15.8571 12.7732 16.1604 12.4926 16.5282 12.4926H17.7113C18.0828 12.4926 18.3824 12.7732 18.3824 13.1182V15.5486ZM17.9274 3.23351H13.984C13.6351 3.23351 13.3507 3.49892 13.3507 3.82121V6.4905C13.3507 6.83174 13.6541 7.11611 14.0219 7.11611H17.7757C18.0753 7.16161 18.3066 7.38152 18.3445 7.71519V8.08297C18.3066 8.40526 18.0791 8.64034 17.7947 8.66688H15.9329C13.4569 8.66688 11.6938 10.3124 11.6938 12.6215V15.9278C11.6938 18.2217 13.2105 19.8559 15.6675 19.8559H20.8243C21.7495 19.8559 22.5002 19.1545 22.5002 18.29V7.50286C22.5002 4.88665 21.1542 3.23351 17.9274 3.23351Z" fill="#233266"/>
</svg>
