<svg width="57" height="11" viewBox="0 0 57 11" fill="none" xmlns="http://www.w3.org/2000/svg">
<path fill-rule="evenodd" clip-rule="evenodd" d="M49 11L57 5.59332L53.2106 0L49 11Z" fill="#097939"/>
<path fill-rule="evenodd" clip-rule="evenodd" d="M46 11L55 5.59332L50.7369 0L46 11Z" fill="#ED752E"/>
<path fill-rule="evenodd" clip-rule="evenodd" d="M7.08928 0.108063L3.6443 8.66658L15.8743 8.72636L19.2335 0.108063H22.334L18.3063 10.1272C18.1521 10.5098 17.5648 10.8207 16.9952 10.8207H1.31908C0.368423 10.8207 -0.194887 10.3026 0.0622014 9.66491L3.90367 0.108063H7.08928ZM44.8995 0.0482831H48L43.6935 10.8207H40.5056L44.8995 0.0482831ZM22.6791 4.53657L38.1821 4.47679L39.2162 2.20236H23.4538L24.401 0.107665L41.1974 6.0329e-05C42.2429 -0.00671475 42.8657 0.558008 42.5903 1.26222L41.0078 5.29698C40.7318 6.00079 39.6595 6.57109 38.614 6.57109H24.7461L23.111 11H20.0945L22.6791 4.53657Z" fill="#747474"/>
</svg>
